<?xml version="1.0" encoding="UTF-8" standalone="no"?>
<svg width="200px" height="60px" viewBox="0 0 200 60" version="1.1" xmlns="http://www.w3.org/2000/svg" xmlns:xlink="http://www.w3.org/1999/xlink" xmlns:sketch="http://www.bohemiancoding.com/sketch/ns">
    <!-- Generator: Sketch 3.0.4 (8053) - http://www.bohemiancoding.com/sketch -->
    <title>btn_ios_en</title>
    <desc>Created with Sketch.</desc>
    <defs></defs>
    <g id="Simple" stroke="none" stroke-width="1" fill="none" fill-rule="evenodd" sketch:type="MSPage">
        <g id="Download-Buttons" sketch:type="MSArtboardGroup" transform="translate(-260.000000, -50.000000)">
            <g id="btn_ios_en" sketch:type="MSLayerGroup" transform="translate(260.000000, 50.000000)">
                <g id="Group" sketch:type="MSShapeGroup">
                    <path d="M192.884444,60 L7.00592593,60 C3.1437037,60 0,56.808 0,52.9005 L0,7.089 C0,3.18 3.1437037,0 7.00592593,0 L192.884444,0 C196.745185,0 200,3.18 200,7.089 L200,52.9005 C200,56.808 196.745185,60 192.884444,60 L192.884444,60 L192.884444,60 Z" id="Shape" fill="#000000"></path>
                    <g transform="translate(19.259259, 9.000000)" id="Shape" fill="#FFFFFF">
                        <path d="M25.3748148,20.676 C25.3318519,15.8415 29.2844444,13.4895 29.4651852,13.38 C27.2266667,10.0755 23.757037,9.624 22.5377778,9.588 C19.6237037,9.2775 16.797037,11.3535 15.3125926,11.3535 C13.7985185,11.3535 11.5125926,9.618 9.04888889,9.669 C5.87851852,9.7185 2.91259259,11.577 1.28592593,14.463 C-2.07111111,20.3475 0.432592593,28.995 3.64888889,33.7515 C5.25777778,36.081 7.13777778,38.682 9.59851852,38.5905 C12.0059259,38.49 12.9051852,37.0365 15.8103704,37.0365 C18.6888889,37.0365 19.5333333,38.5905 22.042963,38.532 C24.6266667,38.49 26.2533333,36.192 27.8059259,33.8415 C29.6651852,31.1715 30.4118519,28.542 30.4414815,28.407 C30.3807407,28.386 25.4237037,26.4705 25.3748148,20.676 L25.3748148,20.676 Z"></path>
                        <path d="M20.6340741,6.459 C21.9288889,4.8195 22.8148148,2.589 22.5688889,0.3255 C20.6948148,0.4095 18.3511111,1.638 17.0014815,3.2415 C15.8074074,4.6545 14.7407407,6.9705 15.0162963,9.1485 C17.1214815,9.3075 19.282963,8.073 20.6340741,6.459 L20.6340741,6.459 Z"></path>
                    </g>
                    <g transform="translate(62.222222, 27.000000)" id="Shape" fill="#FFFFFF">
                        <path d="M17.2518519,20.256 L13.8874074,20.256 L12.0444444,14.3925 L5.63851852,14.3925 L3.88296296,20.256 L0.607407407,20.256 L6.95407407,0.294 L10.8740741,0.294 L17.2518519,20.256 L17.2518519,20.256 Z M11.4888889,11.9325 L9.82222222,6.72 C9.64592593,6.1875 9.31555556,4.9335 8.82814815,2.9595 L8.76888889,2.9595 C8.57481481,3.8085 8.26222222,5.0625 7.83259259,6.72 L6.19555556,11.9325 L11.4888889,11.9325 L11.4888889,11.9325 Z"></path>
                        <path d="M33.5733333,12.882 C33.5733333,15.33 32.92,17.265 31.6133333,18.6855 C30.442963,19.95 28.9896296,20.5815 27.2548148,20.5815 C25.3822222,20.5815 24.037037,19.9005 23.2177778,18.5385 L23.1585185,18.5385 L23.1585185,26.121 L20,26.121 L20,10.6005 C20,9.0615 19.96,7.482 19.882963,5.862 L22.6607407,5.862 L22.837037,8.1435 L22.8962963,8.1435 C23.9496296,6.4245 25.5481481,5.5665 27.6933333,5.5665 C29.3703704,5.5665 30.7703704,6.237 31.8903704,7.5795 C33.0133333,8.9235 33.5733333,10.6905 33.5733333,12.882 L33.5733333,12.882 Z M30.3555556,12.999 C30.3555556,11.598 30.0444444,10.443 29.4192593,9.534 C28.7362963,8.586 27.8192593,8.112 26.6696296,8.112 C25.8903704,8.112 25.1822222,8.376 24.5496296,8.8965 C23.9155556,9.4215 23.5007407,10.107 23.3066667,10.956 C23.2088889,11.352 23.16,11.676 23.16,11.931 L23.16,14.331 C23.16,15.378 23.477037,16.2615 24.1111111,16.983 C24.7451852,17.7045 25.5688889,18.0645 26.5822222,18.0645 C27.7718519,18.0645 28.6977778,17.5995 29.36,16.6725 C30.0237037,15.744 30.3555556,14.52 30.3555556,12.999 L30.3555556,12.999 Z"></path>
                        <path d="M49.9244444,12.882 C49.9244444,15.33 49.2711111,17.265 47.962963,18.6855 C46.7940741,19.95 45.3407407,20.5815 43.6059259,20.5815 C41.7333333,20.5815 40.3881481,19.9005 39.5703704,18.5385 L39.5111111,18.5385 L39.5111111,26.121 L36.3525926,26.121 L36.3525926,10.6005 C36.3525926,9.0615 36.3125926,7.482 36.2355556,5.862 L39.0133333,5.862 L39.1896296,8.1435 L39.2488889,8.1435 C40.3007407,6.4245 41.8992593,5.5665 44.0459259,5.5665 C45.7214815,5.5665 47.1214815,6.237 48.2444444,7.5795 C49.362963,8.9235 49.9244444,10.6905 49.9244444,12.882 L49.9244444,12.882 Z M46.7066667,12.999 C46.7066667,11.598 46.3940741,10.443 45.7688889,9.534 C45.0859259,8.586 44.1718519,8.112 43.0207407,8.112 C42.24,8.112 41.5333333,8.376 40.8992593,8.8965 C40.2651852,9.4215 39.8518519,10.107 39.6577778,10.956 C39.5614815,11.352 39.5111111,11.676 39.5111111,11.931 L39.5111111,14.331 C39.5111111,15.378 39.8281481,16.2615 40.4592593,16.983 C41.0933333,17.703 41.917037,18.0645 42.9333333,18.0645 C44.122963,18.0645 45.0488889,17.5995 45.7111111,16.6725 C46.3748148,15.744 46.7066667,14.52 46.7066667,12.999 L46.7066667,12.999 Z"></path>
                        <path d="M68.2059259,14.658 C68.2059259,16.356 67.6237037,17.7375 66.4548148,18.804 C65.1703704,19.9695 63.3822222,20.5515 61.0844444,20.5515 C58.962963,20.5515 57.2622222,20.1375 55.9748148,19.308 L56.7066667,16.6425 C58.0933333,17.4915 59.6148148,17.9175 61.2725926,17.9175 C62.4622222,17.9175 63.3881481,17.6445 64.0533333,17.1015 C64.7155556,16.5585 65.0459259,15.8295 65.0459259,14.9205 C65.0459259,14.1105 64.7733333,13.428 64.2266667,12.8745 C63.682963,12.321 62.7748148,11.8065 61.5066667,11.331 C58.0548148,10.0275 56.3303704,8.118 56.3303704,5.607 C56.3303704,3.966 56.9348148,2.6205 58.1451852,1.5735 C59.3511111,0.525 60.96,0.0015 62.9718519,0.0015 C64.7659259,0.0015 66.2562963,0.318 67.4459259,0.9495 L66.6562963,3.5565 C65.5451852,2.9445 64.2888889,2.6385 62.882963,2.6385 C61.7718519,2.6385 60.9037037,2.916 60.2814815,3.468 C59.7555556,3.9615 59.4918519,4.563 59.4918519,5.2755 C59.4918519,6.0645 59.7925926,6.717 60.397037,7.23 C60.922963,7.704 61.8785185,8.217 63.2651852,8.7705 C64.9614815,9.462 66.2074074,10.2705 67.0088889,11.1975 C67.8074074,12.1215 68.2059259,13.278 68.2059259,14.658 L68.2059259,14.658 Z"></path>
                        <path d="M78.6488889,8.262 L75.1674074,8.262 L75.1674074,15.2505 C75.1674074,17.028 75.7807407,17.916 77.0103704,17.916 C77.5748148,17.916 78.042963,17.8665 78.4133333,17.7675 L78.5007407,20.196 C77.8785185,20.4315 77.0592593,20.55 76.0444444,20.55 C74.797037,20.55 73.8222222,20.1645 73.1185185,19.395 C72.4177778,18.624 72.0651852,17.331 72.0651852,15.5145 L72.0651852,8.259 L69.9911111,8.259 L69.9911111,5.859 L72.0651852,5.859 L72.0651852,3.2235 L75.1674074,2.2755 L75.1674074,5.859 L78.6488889,5.859 L78.6488889,8.262 L78.6488889,8.262 Z"></path>
                        <path d="M94.357037,12.9405 C94.357037,15.153 93.7318519,16.9695 92.4844444,18.39 C91.1762963,19.8525 89.44,20.5815 87.2755556,20.5815 C85.1896296,20.5815 83.5288889,19.881 82.2903704,18.48 C81.0518519,17.079 80.4325926,15.3105 80.4325926,13.179 C80.4325926,10.9485 81.0696296,9.1215 82.3481481,7.701 C83.6237037,6.279 85.3451852,5.568 87.5096296,5.568 C89.5955556,5.568 91.2740741,6.2685 92.5407407,7.671 C93.7525926,9.0315 94.357037,10.788 94.357037,12.9405 L94.357037,12.9405 Z M91.08,13.044 C91.08,11.7165 90.8,10.578 90.2325926,9.6285 C89.5703704,8.4795 88.6237037,7.9065 87.397037,7.9065 C86.1274074,7.9065 85.162963,8.481 84.5007407,9.6285 C83.9333333,10.5795 83.6533333,11.736 83.6533333,13.104 C83.6533333,14.4315 83.9333333,15.57 84.5007407,16.518 C85.1837037,17.667 86.1377778,18.24 87.3688889,18.24 C88.5748148,18.24 89.5214815,17.655 90.2044444,16.488 C90.7866667,15.5205 91.08,14.37 91.08,13.044 L91.08,13.044 Z"></path>
                        <path d="M104.623704,8.6745 C104.311111,8.616 103.977778,8.586 103.628148,8.586 C102.517037,8.586 101.657778,9.0105 101.053333,9.861 C100.527407,10.611 100.263704,11.559 100.263704,12.7035 L100.263704,20.256 L97.1066667,20.256 L97.1362963,10.395 C97.1362963,8.736 97.0962963,7.2255 97.0177778,5.8635 L99.7688889,5.8635 L99.8844444,8.6175 L99.9718519,8.6175 C100.305185,7.671 100.831111,6.909 101.551111,6.3375 C102.254815,5.823 103.014815,5.5665 103.834074,5.5665 C104.125926,5.5665 104.38963,5.5875 104.623704,5.625 L104.623704,8.6745 L104.623704,8.6745 Z"></path>
                        <path d="M118.74963,12.378 C118.74963,12.951 118.712593,13.434 118.634074,13.8285 L109.158519,13.8285 C109.195556,15.2505 109.653333,16.338 110.533333,17.088 C111.331852,17.7585 112.364444,18.0945 113.632593,18.0945 C115.035556,18.0945 116.315556,17.868 117.466667,17.4135 L117.961481,19.6335 C116.616296,20.2275 115.028148,20.523 113.195556,20.523 C110.991111,20.523 109.260741,19.866 108.001481,18.5535 C106.745185,17.241 106.115556,15.4785 106.115556,13.2675 C106.115556,11.097 106.700741,9.2895 107.872593,7.848 C109.099259,6.309 110.757037,5.5395 112.842963,5.5395 C114.891852,5.5395 116.442963,6.309 117.496296,7.848 C118.33037,9.0705 118.74963,10.5825 118.74963,12.378 L118.74963,12.378 Z M115.737778,11.5485 C115.758519,10.6005 115.552593,9.7815 115.124444,9.09 C114.577778,8.2005 113.737778,7.7565 112.607407,7.7565 C111.574815,7.7565 110.734815,8.19 110.093333,9.06 C109.567407,9.7515 109.254815,10.581 109.158519,11.547 L115.737778,11.547 L115.737778,11.5485 Z"></path>
                    </g>
                    <g transform="translate(65.185185, 10.500000)" id="Shape" fill="#FFFFFF">
                        <path d="M7.48148148,4.5135 C7.48148148,6.279 6.95851852,7.608 5.91407407,8.5005 C4.94666667,9.324 3.57185185,9.7365 1.79111111,9.7365 C0.908148148,9.7365 0.152592593,9.6975 -0.48,9.6195 L-0.48,-0.027 C0.345185185,-0.162 1.23407407,-0.231 2.19407407,-0.231 C3.89037037,-0.231 5.16888889,0.1425 6.03111111,0.8895 C6.99703704,1.734 7.48148148,2.9415 7.48148148,4.5135 L7.48148148,4.5135 Z M5.84444444,4.557 C5.84444444,3.4125 5.54518519,2.535 4.94666667,1.923 C4.34814815,1.3125 3.47407407,1.0065 2.32296296,1.0065 C1.83407407,1.0065 1.41777778,1.0395 1.07259259,1.1085 L1.07259259,8.442 C1.2637037,8.472 1.61333333,8.4855 2.12148148,8.4855 C3.30962963,8.4855 4.22666667,8.151 4.87259259,7.482 C5.51851852,6.813 5.84444444,5.838 5.84444444,4.557 L5.84444444,4.557 Z"></path>
                        <path d="M16.1614815,6.0555 C16.1614815,7.143 15.8548148,8.034 15.2414815,8.733 C14.5985185,9.4515 13.7466667,9.81 12.682963,9.81 C11.6577778,9.81 10.8414815,9.4665 10.2325926,8.7765 C9.62518519,8.088 9.32148148,7.2195 9.32148148,6.1725 C9.32148148,5.0775 9.63407407,4.179 10.2622222,3.4815 C10.8903704,2.784 11.7348148,2.4345 12.7985185,2.4345 C13.8237037,2.4345 14.6474074,2.778 15.2711111,3.4665 C15.8637037,4.1355 16.1614815,4.9995 16.1614815,6.0555 L16.1614815,6.0555 Z M14.5511111,6.1065 C14.5511111,5.454 14.4118519,4.8945 14.1348148,4.428 C13.8088889,3.864 13.3451852,3.582 12.7422222,3.582 C12.1185185,3.582 11.6444444,3.864 11.3185185,4.428 C11.04,4.8945 10.9022222,5.463 10.9022222,6.135 C10.9022222,6.7875 11.0414815,7.347 11.3185185,7.8135 C11.6548148,8.3775 12.122963,8.6595 12.7274074,8.6595 C13.32,8.6595 13.7851852,8.373 14.12,7.7985 C14.4074074,7.323 14.5511111,6.759 14.5511111,6.1065 L14.5511111,6.1065 Z"></path>
                        <path d="M27.8,2.5785 L25.6148148,9.6495 L24.1925926,9.6495 L23.2874074,6.579 C23.0577778,5.8125 22.8711111,5.0505 22.7259259,4.2945 L22.6977778,4.2945 C22.562963,5.0715 22.3762963,5.832 22.1362963,6.579 L21.1748148,9.6495 L19.7362963,9.6495 L17.6814815,2.5785 L19.277037,2.5785 L20.0666667,5.94 C20.2577778,6.735 20.4148148,7.4925 20.5407407,8.2095 L20.5688889,8.2095 C20.6844444,7.6185 20.8755556,6.8655 21.1451852,5.955 L22.1362963,2.58 L23.4014815,2.58 L24.3511111,5.883 C24.5807407,6.6885 24.7674074,7.464 24.9111111,8.211 L24.9540741,8.211 C25.0592593,7.4835 25.2177778,6.708 25.4281481,5.883 L26.2755556,2.58 L27.8,2.58 L27.8,2.5785 Z"></path>
                        <path d="M35.8488889,9.6495 L34.2962963,9.6495 L34.2962963,5.5995 C34.2962963,4.3515 33.8281481,3.7275 32.8888889,3.7275 C32.4281481,3.7275 32.0562963,3.8985 31.7674074,4.242 C31.4814815,4.5855 31.3362963,4.9905 31.3362963,5.454 L31.3362963,9.648 L29.7837037,9.648 L29.7837037,4.599 C29.7837037,3.978 29.7644444,3.3045 29.7274074,2.5755 L31.0918519,2.5755 L31.1644444,3.681 L31.2074074,3.681 C31.3881481,3.3375 31.6577778,3.054 32.0118519,2.8275 C32.4325926,2.5635 32.9037037,2.43 33.4192593,2.43 C34.0711111,2.43 34.6133333,2.643 35.0444444,3.0705 C35.5807407,3.594 35.8488889,4.3755 35.8488889,5.4135 L35.8488889,9.6495 L35.8488889,9.6495 Z"></path>
                        <path d="M40.1303704,9.6495 L38.5792593,9.6495 L38.5792593,-0.666 L40.1303704,-0.666 L40.1303704,9.6495 L40.1303704,9.6495 Z"></path>
                        <path d="M49.2711111,6.0555 C49.2711111,7.143 48.9644444,8.034 48.3511111,8.733 C47.7081481,9.4515 46.8548148,9.81 45.7925926,9.81 C44.7659259,9.81 43.9496296,9.4665 43.3422222,8.7765 C42.7348148,8.088 42.4311111,7.2195 42.4311111,6.1725 C42.4311111,5.0775 42.7437037,4.179 43.3718519,3.4815 C44,2.784 44.8444444,2.4345 45.9066667,2.4345 C46.9333333,2.4345 47.7555556,2.778 48.3807407,3.4665 C48.9733333,4.1355 49.2711111,4.9995 49.2711111,6.0555 L49.2711111,6.0555 Z M47.6592593,6.1065 C47.6592593,5.454 47.52,4.8945 47.242963,4.428 C46.9185185,3.864 46.4533333,3.582 45.8518519,3.582 C45.2266667,3.582 44.7525926,3.864 44.4281481,4.428 C44.1496296,4.8945 44.0118519,5.463 44.0118519,6.135 C44.0118519,6.7875 44.1511111,7.347 44.4281481,7.8135 C44.7644444,8.3775 45.2325926,8.6595 45.837037,8.6595 C46.4296296,8.6595 46.8933333,8.373 47.2281481,7.7985 C47.517037,7.323 47.6592593,6.759 47.6592593,6.1065 L47.6592593,6.1065 Z"></path>
                        <path d="M56.7851852,9.6495 L55.3911111,9.6495 L55.2755556,8.835 L55.2325926,8.835 C54.7555556,9.4845 54.0755556,9.81 53.1925926,9.81 C52.5333333,9.81 52,9.5955 51.5985185,9.1695 C51.2340741,8.7825 51.0518519,8.301 51.0518519,7.7295 C51.0518519,6.8655 51.4074074,6.207 52.122963,5.751 C52.837037,5.295 53.8414815,5.0715 55.1348148,5.082 L55.1348148,4.95 C55.1348148,4.0185 54.6518519,3.5535 53.6844444,3.5535 C52.9955556,3.5535 52.3881481,3.729 51.8637037,4.077 L51.5481481,3.045 C52.197037,2.6385 52.9985185,2.4345 53.9437037,2.4345 C55.7688889,2.4345 56.6844444,3.4095 56.6844444,5.3595 L56.6844444,7.9635 C56.6844444,8.67 56.7185185,9.2325 56.7851852,9.6495 L56.7851852,9.6495 Z M55.1733333,7.2195 L55.1733333,6.129 C53.4607407,6.099 52.6044444,6.5745 52.6044444,7.554 C52.6044444,7.923 52.7022222,8.199 52.9022222,8.3835 C53.1022222,8.568 53.357037,8.6595 53.6607407,8.6595 C54.0014815,8.6595 54.32,8.55 54.6103704,8.3325 C54.9022222,8.1135 55.0814815,7.836 55.1481481,7.4955 C55.1644444,7.419 55.1733333,7.326 55.1733333,7.2195 L55.1733333,7.2195 Z"></path>
                        <path d="M65.6074074,9.6495 L64.2296296,9.6495 L64.157037,8.514 L64.1140741,8.514 C63.6740741,9.378 62.9244444,9.81 61.8711111,9.81 C61.0296296,9.81 60.3288889,9.4755 59.7733333,8.8065 C59.2177778,8.1375 58.9407407,7.269 58.9407407,6.2025 C58.9407407,5.058 59.2414815,4.131 59.8459259,3.423 C60.4311111,2.763 61.1481481,2.433 62.0014815,2.433 C62.9392593,2.433 63.5955556,2.7525 63.9688889,3.393 L63.9985185,3.393 L63.9985185,-0.666 L65.5525926,-0.666 L65.5525926,7.7445 C65.5525926,8.433 65.5703704,9.0675 65.6074074,9.6495 L65.6074074,9.6495 Z M63.9985185,6.6675 L63.9985185,5.4885 C63.9985185,5.2845 63.9837037,5.1195 63.9555556,4.9935 C63.8681481,4.6155 63.68,4.2975 63.3940741,4.041 C63.1051852,3.7845 62.757037,3.6555 62.3555556,3.6555 C61.7762963,3.6555 61.322963,3.888 60.9896296,4.3545 C60.6592593,4.821 60.4918519,5.4165 60.4918519,6.144 C60.4918519,6.843 60.6503704,7.41 60.9688889,7.8465 C61.3051852,8.3115 61.7585185,8.544 62.3259259,8.544 C62.8355556,8.544 63.242963,8.3505 63.5525926,7.962 C63.8518519,7.6035 63.9985185,7.1715 63.9985185,6.6675 L63.9985185,6.6675 Z"></path>
                        <path d="M78.8859259,6.0555 C78.8859259,7.143 78.5792593,8.034 77.9659259,8.733 C77.322963,9.4515 76.4725926,9.81 75.4074074,9.81 C74.3837037,9.81 73.5674074,9.4665 72.957037,8.7765 C72.3496296,8.088 72.0459259,7.2195 72.0459259,6.1725 C72.0459259,5.0775 72.3585185,4.179 72.9866667,3.4815 C73.6148148,2.784 74.4592593,2.4345 75.5244444,2.4345 C76.5481481,2.4345 77.3733333,2.778 77.9955556,3.4665 C78.5881481,4.1355 78.8859259,4.9995 78.8859259,6.0555 L78.8859259,6.0555 Z M77.277037,6.1065 C77.277037,5.454 77.1377778,4.8945 76.8607407,4.428 C76.5333333,3.864 76.0711111,3.582 75.4666667,3.582 C74.8444444,3.582 74.3703704,3.864 74.042963,4.428 C73.7644444,4.8945 73.6266667,5.463 73.6266667,6.135 C73.6266667,6.7875 73.7659259,7.347 74.042963,7.8135 C74.3792593,8.3775 74.8474074,8.6595 75.4518519,8.6595 C76.0444444,8.6595 76.5111111,8.373 76.8459259,7.7985 C77.1318519,7.323 77.277037,6.759 77.277037,6.1065 L77.277037,6.1065 Z"></path>
                        <path d="M87.2340741,9.6495 L85.682963,9.6495 L85.682963,5.5995 C85.682963,4.3515 85.2148148,3.7275 84.2740741,3.7275 C83.8133333,3.7275 83.4414815,3.8985 83.1540741,4.242 C82.8666667,4.5855 82.722963,4.9905 82.722963,5.454 L82.722963,9.648 L81.1688889,9.648 L81.1688889,4.599 C81.1688889,3.978 81.1511111,3.3045 81.1140741,2.5755 L82.477037,2.5755 L82.5496296,3.681 L82.5925926,3.681 C82.7748148,3.3375 83.0444444,3.054 83.397037,2.8275 C83.8192593,2.5635 84.2888889,2.43 84.8059259,2.43 C85.4562963,2.43 85.9985185,2.643 86.4296296,3.0705 C86.9674074,3.594 87.2340741,4.3755 87.2340741,5.4135 L87.2340741,9.6495 L87.2340741,9.6495 Z"></path>
                        <path d="M97.682963,3.756 L95.9733333,3.756 L95.9733333,7.191 C95.9733333,8.064 96.277037,8.5005 96.8785185,8.5005 C97.157037,8.5005 97.3881481,8.4765 97.5703704,8.427 L97.6103704,9.6195 C97.3037037,9.7365 96.9007407,9.795 96.4044444,9.795 C95.7911111,9.795 95.3140741,9.606 94.9688889,9.228 C94.6222222,8.85 94.4503704,8.214 94.4503704,7.3215 L94.4503704,3.756 L93.4296296,3.756 L93.4296296,2.5785 L94.4503704,2.5785 L94.4503704,1.2825 L95.9718519,0.8175 L95.9718519,2.577 L97.6814815,2.577 L97.6814815,3.756 L97.682963,3.756 Z"></path>
                        <path d="M105.902222,9.6495 L104.348148,9.6495 L104.348148,5.6295 C104.348148,4.362 103.88,3.7275 102.942222,3.7275 C102.222222,3.7275 101.73037,4.095 101.460741,4.83 C101.414815,4.9845 101.388148,5.1735 101.388148,5.3955 L101.388148,9.648 L99.837037,9.648 L99.837037,-0.666 L101.388148,-0.666 L101.388148,3.5955 L101.417778,3.5955 C101.906667,2.82 102.607407,2.433 103.515556,2.433 C104.158519,2.433 104.69037,2.646 105.112593,3.0735 C105.638519,3.606 105.902222,4.398 105.902222,5.445 L105.902222,9.6495 L105.902222,9.6495 Z"></path>
                        <path d="M114.380741,5.7795 C114.380741,6.0615 114.36,6.2985 114.322963,6.492 L109.666667,6.492 C109.687407,7.191 109.90963,7.7235 110.340741,8.0925 C110.734815,8.4225 111.242963,8.5875 111.865185,8.5875 C112.554074,8.5875 113.182222,8.4765 113.748148,8.253 L113.991111,9.345 C113.328889,9.636 112.54963,9.7815 111.647407,9.7815 C110.565926,9.7815 109.714074,9.459 109.097778,8.814 C108.478519,8.169 108.171852,7.3035 108.171852,6.2175 C108.171852,5.151 108.457778,4.263 109.034074,3.555 C109.635556,2.799 110.448889,2.421 111.475556,2.421 C112.48,2.421 113.242963,2.799 113.758519,3.555 C114.174815,4.155 114.380741,4.8975 114.380741,5.7795 L114.380741,5.7795 Z M112.899259,5.373 C112.911111,4.9065 112.808889,4.5045 112.598519,4.1655 C112.328889,3.729 111.918519,3.51 111.362963,3.51 C110.856296,3.51 110.442963,3.723 110.127407,4.1505 C109.86963,4.491 109.717037,4.8975 109.666667,5.373 L112.899259,5.373 L112.899259,5.373 Z"></path>
                    </g>
                </g>
            </g>
        </g>
    </g>
</svg>