<?xml version="1.0" encoding="UTF-8" standalone="no"?>
<svg width="1024px" height="1024px" viewBox="0 0 1024 1024" version="1.1" xmlns="http://www.w3.org/2000/svg" xmlns:xlink="http://www.w3.org/1999/xlink" xmlns:sketch="http://www.bohemiancoding.com/sketch/ns">
    <!-- Generator: Sketch 3.2.2 (9983) - http://www.bohemiancoding.com/sketch -->
    <title>logo</title>
    <desc>Created with Sketch.</desc>
    <defs>
        <linearGradient x1="52.2007048%" y1="0%" x2="52.2007048%" y2="100%" id="linearGradient-1">
            <stop stop-color="#0088D5" offset="0%"></stop>
            <stop stop-color="#00E3CA" offset="100%"></stop>
        </linearGradient>
    </defs>
    <g id="Website" stroke="none" stroke-width="1" fill="none" fill-rule="evenodd" sketch:type="MSPage">
        <g id="logo" sketch:type="MSArtboardGroup" fill="url(#linearGradient-1)">
            <path d="M279.202771,168 L346.405543,206.783784 L346.405543,284.351351 L279.202771,323.135135 L212,284.351351 L212,206.783784 L279.202771,168 Z M744.797229,168 L812,206.783784 L812,284.351351 L744.797229,323.135135 L677.594457,284.351351 L677.594457,206.783784 L744.797229,168 Z M279.202771,701.664865 L346.405543,740.448649 L346.405543,818.016216 L279.202771,856.8 L212,818.016216 L212,740.448649 L279.202771,701.664865 Z M744.797229,701.664865 L812,740.448649 L812,818.016216 L744.797229,856.8 L677.594457,818.016216 L677.594457,740.448649 L744.797229,701.664865 Z M356.801848,301.416216 L424.004619,340.2 L424.004619,417.767568 L356.801848,456.551351 L289.599076,417.767568 L289.599076,340.2 L356.801848,301.416216 Z M667.198152,301.416216 L734.400924,340.2 L734.400924,417.767568 L667.198152,456.551351 L599.995381,417.767568 L599.995381,340.2 L667.198152,301.416216 Z M279.202771,434.832432 L346.405543,473.616216 L346.405543,551.183784 L279.202771,589.967568 L212,551.183784 L212,473.616216 L279.202771,434.832432 Z M434.400924,434.832432 L501.603695,473.616216 L501.603695,551.183784 L434.400924,589.967568 L367.198152,551.183784 L367.198152,473.616216 L434.400924,434.832432 Z M589.599076,434.832432 L656.801848,473.616216 L656.801848,551.183784 L589.599076,589.967568 L522.396305,551.183784 L522.396305,473.616216 L589.599076,434.832432 Z M744.797229,434.832432 L812,473.616216 L812,551.183784 L744.797229,589.967568 L677.594457,551.183784 L677.594457,473.616216 L744.797229,434.832432 Z M356.801848,568.248649 L424.004619,607.032432 L424.004619,684.6 L356.801848,723.383784 L289.599076,684.6 L289.599076,607.032432 L356.801848,568.248649 Z M667.198152,568.248649 L734.400924,607.032432 L734.400924,684.6 L667.198152,723.383784 L599.995381,684.6 L599.995381,607.032432 L667.198152,568.248649 Z" sketch:type="MSShapeGroup"></path>
        </g>
    </g>
</svg>