<?xml version="1.0" encoding="UTF-8" standalone="no"?>
<svg width="180px" height="154px" viewBox="0 0 180 154" version="1.1" xmlns="http://www.w3.org/2000/svg" xmlns:xlink="http://www.w3.org/1999/xlink" xmlns:sketch="http://www.bohemiancoding.com/sketch/ns">
    <!-- Generator: Sketch 3.0.3 (7891) - http://www.bohemiancoding.com/sketch -->
    <title>Logo(Vector)</title>
    <desc>Created with Sketch.</desc>
    <defs></defs>
    <g id="Logo" stroke="none" stroke-width="1" fill="none" fill-rule="evenodd" sketch:type="MSPage">
        <g sketch:type="MSArtboardGroup" transform="translate(-468.000000, -235.000000)" id="Logo(Vector)" fill="#FFFFFF">
            <g sketch:type="MSLayerGroup" transform="translate(468.000000, 235.000000)">
                <path d="M161.957478,85.4178158 C172.75678,91.8290769 180,103.643755 180,117.157895 C180,137.505228 163.580125,154 143.325183,154 C135.0673,154 127.44687,151.258288 121.316718,146.631579 C145.626224,146.631579 165.330073,126.837852 165.330073,102.421053 C165.330073,96.3958034 164.130233,90.6520704 161.957478,85.4178158 Z" id="Oval-1" opacity="0.25" sketch:type="MSShapeGroup"></path>
                <path d="M143.98814,64.5181763 C156.77623,72.2526321 165.330073,86.3333573 165.330073,102.421053 C165.330073,126.837852 145.626224,146.631579 121.320293,146.631579 C111.49877,146.631579 102.428675,143.399658 95.1063944,137.936746 C95.1401968,137.93681 95.1740067,137.936842 95.207824,137.936842 C124.37494,137.936842 148.01956,114.18437 148.01956,84.8842105 C148.01956,77.6684319 146.585528,70.7891172 143.98814,64.5181763 Z" id="Oval-5" opacity="0.5" sketch:type="MSShapeGroup"></path>
                <path d="M121.843789,39.0635671 C137.502275,48.2690624 148.01956,65.3428123 148.01956,84.8842105 C148.01956,114.18437 124.37494,137.936842 95.207824,137.936842 C83.3163795,137.936842 72.3428822,133.988716 63.5154284,127.326161 C98.4509795,127.249547 126.748166,98.776007 126.748166,63.6631579 C126.748166,54.9426779 125.002779,46.6317146 121.843789,39.0635671 Z" id="Oval-6" opacity="0.75" sketch:type="MSShapeGroup"></path>
                <ellipse id="Oval-7" sketch:type="MSShapeGroup" cx="63.3740831" cy="63.6631579" rx="63.3740831" ry="63.6631579"></ellipse>
            </g>
        </g>
    </g>
</svg>