<?xml version="1.0" encoding="UTF-8" standalone="no"?>
<svg width="400px" height="1810px" viewBox="0 0 400 1810" version="1.1" xmlns="http://www.w3.org/2000/svg" xmlns:xlink="http://www.w3.org/1999/xlink" xmlns:sketch="http://www.bohemiancoding.com/sketch/ns">
    <!-- Generator: Sketch 3.2.2 (9983) - http://www.bohemiancoding.com/sketch -->
    <title>sprite</title>
    <desc>Created with Sketch.</desc>
    <defs>
        <path id="path-1" d="M26.6811597,49.7780513 C27.7155634,51.7998357 24.8602675,62.1021957 26.6811599,63.6689527 C28.8921152,65.5713331 35.9424514,58.6112116 38.9917997,59.5814113 C41.47351,60.3710077 44.1745535,60.8044301 47,60.8044301 C59.1502645,60.8044301 69,52.7893354 69,42.902215 C69,33.0150947 59.1502645,25 47,25 C34.8497355,25 25,33.0150947 25,42.902215 C25,45.3384567 25.5980337,47.6610369 26.6811597,49.7780513 Z"></path>
        <path d="M52.3643844,49.8118318 C55.1357429,47.4470337 56.8929655,43.9287275 56.8929655,40 C56.8929655,32.8794118 51.1205882,27.1070345 44,27.1070345 C36.8794118,27.1070345 31.1070345,32.8794118 31.1070345,40 C31.1070345,43.7360107 32.6960905,47.1008776 35.2351917,49.4555897 C29.3563683,53.7418727 22.6986694,59.7629223 22.7867966,65 C22.9442293,74.3556504 34.9453768,73.4999994 44.5000005,73.4999994 C54.0546243,73.4999994 65.3397132,72.5180118 65.2132034,65 C65.1411361,60.7173011 58.2672638,54.4300409 52.3643844,49.8118318 Z" id="path-2"></path>
        <path id="path-3" d="M26.6811597,49.7780513 C27.7155634,51.7998357 24.8602675,62.1021957 26.6811599,63.6689527 C28.8921152,65.5713331 35.9424514,58.6112116 38.9917997,59.5814113 C41.47351,60.3710077 44.1745535,60.8044301 47,60.8044301 C59.1502645,60.8044301 69,52.7893354 69,42.902215 C69,33.0150947 59.1502645,25 47,25 C34.8497355,25 25,33.0150947 25,42.902215 C25,45.3384567 25.5980337,47.6610369 26.6811597,49.7780513 Z"></path>
        <path d="M52.3643844,49.8118318 C55.1357429,47.4470337 56.8929655,43.9287275 56.8929655,40 C56.8929655,32.8794118 51.1205882,27.1070345 44,27.1070345 C36.8794118,27.1070345 31.1070345,32.8794118 31.1070345,40 C31.1070345,43.7360107 32.6960905,47.1008776 35.2351917,49.4555897 C29.3563683,53.7418727 22.6986694,59.7629223 22.7867966,65 C22.9442293,74.3556504 34.9453768,73.4999994 44.5000005,73.4999994 C54.0546243,73.4999994 65.3397132,72.5180118 65.2132034,65 C65.1411361,60.7173011 58.2672638,54.4300409 52.3643844,49.8118318 Z" id="path-4"></path>
    </defs>
    <g id="Page-1" stroke="none" stroke-width="1" fill="none" fill-rule="evenodd" sketch:type="MSPage">
        <g id="sprite" sketch:type="MSArtboardGroup">
            <g id="icon_nerby" sketch:type="MSLayerGroup" transform="translate(300.000000, 300.000000)">
                <path d="M70,45 C70,33.954305 61.045695,25 50,25 C38.954305,25 30,33.954305 30,45 C30,56.045695 38.954305,65 50,65 L70,65 L70,45 Z" id="Oval-11" stroke="#4CDAAF" stroke-width="4.29980139" stroke-linecap="round" stroke-linejoin="round" sketch:type="MSShapeGroup" transform="translate(50.000000, 45.000000) rotate(-315.000000) translate(-50.000000, -45.000000) "></path>
                <circle id="Oval-12" fill="#4CDAAF" sketch:type="MSShapeGroup" cx="50" cy="45" r="5"></circle>
            </g>
            <g id="icon_chat-2" sketch:type="MSLayerGroup" transform="translate(200.000000, 300.000000)">
                <path d="M44.2608698,60.0294561 C45.0366725,61.5005837 45.3476098,70.67202 46.713279,71.8120523 C48.3714956,73.1962969 51.2068385,66.4568009 53.4938498,67.1627552 C55.3551325,67.7372957 57.3809152,68.0526704 59.5,68.0526704 C68.6126984,68.0526704 76,62.2205814 76,55.0263352 C76,47.8320889 68.6126984,42 59.5,42 C50.3873016,42 43,47.8320889 43,55.0263352 C43,56.7990376 43.4485253,58.4890357 44.2608698,60.0294561 Z" id="Oval-8" stroke="#4CDAAF" stroke-width="4.29980139" stroke-linecap="round" stroke-linejoin="round" sketch:type="MSShapeGroup" transform="translate(59.500000, 57.000000) scale(-1, 1) translate(-59.500000, -57.000000) "></path>
                <g id="Oval-7">
                    <use stroke="none" fill="#FFFFFF" fill-rule="evenodd" sketch:type="MSShapeGroup" xlink:href="#path-1"></use>
                    <use stroke="#4CDAAF" stroke-width="4.47179344" stroke-linecap="round" stroke-linejoin="round" fill="none" xlink:href="#path-1"></use>
                </g>
            </g>
            <g id="icon_camera-2" sketch:type="MSLayerGroup" transform="translate(0.000000, 300.000000)" stroke="#4CDAAF" stroke-width="4.3902439" stroke-linecap="round" stroke-linejoin="round">
                <path d="M37.4340095,33.8791865 C31.6626834,34.6965303 26.7590993,35.610722 26.7590993,35.610722 C23.5772443,36.1549775 21,39.233736 21,42.4666971 L21,64.1462061 C21,67.3801705 23.6246401,70 26.8622977,70 L75.1377023,70 C78.3832942,70 81,67.3791672 81,64.1462061 L81,42.4666971 C81,39.2327327 78.4264004,36.1699632 75.2517043,35.623569 C75.2517043,35.623569 70.7676363,34.8003468 65.3616978,34.0160007 L62.6959858,28.3174491 C61.8388657,26.4851644 59.5075036,25 57.4886299,25 L45.2430774,25 C43.2213257,25 40.892791,26.4852726 40.0357215,28.3174491 L37.4340095,33.8791865 Z" id="Rectangle-27" sketch:type="MSShapeGroup"></path>
                <circle id="Oval-6" sketch:type="MSShapeGroup" cx="51" cy="51" r="11"></circle>
            </g>
            <g id="icon_group-2" sketch:type="MSLayerGroup" transform="translate(100.000000, 300.000000)">
                <path d="M65.931755,50.1280182 C67.8811631,48.4467863 69.1162242,45.951883 69.1162242,43.1669138 C69.1162242,38.1041671 65.0347217,34 59.9999333,34 C54.9651449,34 50.8836425,38.1041671 50.8836425,43.1669138 C50.8836425,45.8339277 52.016299,48.2349265 53.8242985,49.9100572 C49.6430595,52.9615948 44.8966057,57.2509872 44.9488869,60.9695874 C45.0421457,67.6027899 53.553095,66.9725402 60.3276862,66.9537825 C67.1022774,66.9350249 75.105762,66.2166034 75.0308211,60.8862958 C74.9880671,57.8453363 70.1122018,53.3922394 65.931755,50.1280182 Z" id="Oval-9" stroke="#4CDAAF" stroke-width="4" stroke-linecap="round" stroke-linejoin="round" sketch:type="MSShapeGroup"></path>
                <g id="Oval-10">
                    <use stroke="none" fill="#FFFFFF" fill-rule="evenodd" sketch:type="MSShapeGroup" xlink:href="#path-2"></use>
                    <use stroke="#4CDAAF" stroke-width="4.47179344" stroke-linecap="round" stroke-linejoin="round" fill="none" xlink:href="#path-2"></use>
                </g>
            </g>
            <g id="icon_nerby" sketch:type="MSLayerGroup" transform="translate(300.000000, 200.000000)">
                <path d="M70,45 C70,33.954305 61.045695,25 50,25 C38.954305,25 30,33.954305 30,45 C30,56.045695 38.954305,65 50,65 L70,65 L70,45 Z" id="Oval-11" stroke="#D9D9D9" stroke-width="4.29980139" stroke-linecap="round" stroke-linejoin="round" sketch:type="MSShapeGroup" transform="translate(50.000000, 45.000000) rotate(-315.000000) translate(-50.000000, -45.000000) "></path>
                <circle id="Oval-12" fill="#D8D8D8" sketch:type="MSShapeGroup" cx="50" cy="45" r="5"></circle>
            </g>
            <g id="icon_chat-2" sketch:type="MSLayerGroup" transform="translate(200.000000, 200.000000)">
                <path d="M44.2608698,60.0294561 C45.0366725,61.5005837 45.3476098,70.67202 46.713279,71.8120523 C48.3714956,73.1962969 51.2068385,66.4568009 53.4938498,67.1627552 C55.3551325,67.7372957 57.3809152,68.0526704 59.5,68.0526704 C68.6126984,68.0526704 76,62.2205814 76,55.0263352 C76,47.8320889 68.6126984,42 59.5,42 C50.3873016,42 43,47.8320889 43,55.0263352 C43,56.7990376 43.4485253,58.4890357 44.2608698,60.0294561 Z" id="Oval-8" stroke="#D9D9D9" stroke-width="4.29980139" stroke-linecap="round" stroke-linejoin="round" sketch:type="MSShapeGroup" transform="translate(59.500000, 57.000000) scale(-1, 1) translate(-59.500000, -57.000000) "></path>
                <g id="Oval-7">
                    <use stroke="none" fill="#FFFFFF" fill-rule="evenodd" sketch:type="MSShapeGroup" xlink:href="#path-3"></use>
                    <use stroke="#D9D9D9" stroke-width="4.47179344" stroke-linecap="round" stroke-linejoin="round" fill="none" xlink:href="#path-3"></use>
                </g>
            </g>
            <g id="icon_camera-2" sketch:type="MSLayerGroup" transform="translate(0.000000, 200.000000)" stroke="#D9D9D9" stroke-width="4.3902439" stroke-linecap="round" stroke-linejoin="round">
                <path d="M37.4340095,33.8791865 C31.6626834,34.6965303 26.7590993,35.610722 26.7590993,35.610722 C23.5772443,36.1549775 21,39.233736 21,42.4666971 L21,64.1462061 C21,67.3801705 23.6246401,70 26.8622977,70 L75.1377023,70 C78.3832942,70 81,67.3791672 81,64.1462061 L81,42.4666971 C81,39.2327327 78.4264004,36.1699632 75.2517043,35.623569 C75.2517043,35.623569 70.7676363,34.8003468 65.3616978,34.0160007 L62.6959858,28.3174491 C61.8388657,26.4851644 59.5075036,25 57.4886299,25 L45.2430774,25 C43.2213257,25 40.892791,26.4852726 40.0357215,28.3174491 L37.4340095,33.8791865 Z" id="Rectangle-27" sketch:type="MSShapeGroup"></path>
                <circle id="Oval-6" sketch:type="MSShapeGroup" cx="51" cy="51" r="11"></circle>
            </g>
            <g id="icon_group-2" sketch:type="MSLayerGroup" transform="translate(100.000000, 200.000000)">
                <path d="M65.931755,50.1280182 C67.8811631,48.4467863 69.1162242,45.951883 69.1162242,43.1669138 C69.1162242,38.1041671 65.0347217,34 59.9999333,34 C54.9651449,34 50.8836425,38.1041671 50.8836425,43.1669138 C50.8836425,45.8339277 52.016299,48.2349265 53.8242985,49.9100572 C49.6430595,52.9615948 44.8966057,57.2509872 44.9488869,60.9695874 C45.0421457,67.6027899 53.553095,66.9725402 60.3276862,66.9537825 C67.1022774,66.9350249 75.105762,66.2166034 75.0308211,60.8862958 C74.9880671,57.8453363 70.1122018,53.3922394 65.931755,50.1280182 Z" id="Oval-9" stroke="#D9D9D9" stroke-width="4" stroke-linecap="round" stroke-linejoin="round" sketch:type="MSShapeGroup"></path>
                <g id="Oval-10">
                    <use stroke="none" fill="#FFFFFF" fill-rule="evenodd" sketch:type="MSShapeGroup" xlink:href="#path-4"></use>
                    <use stroke="#D9D9D9" stroke-width="4.47179344" stroke-linecap="round" stroke-linejoin="round" fill="none" xlink:href="#path-4"></use>
                </g>
            </g>
            <g id="icon_last-2-+-icon_last-3" sketch:type="MSLayerGroup" transform="translate(0.000000, 800.000000)">
                <path d="M61,28.7867966 L39.7867966,50 L61,71.2132034" id="icon_last-2" stroke="#D9D9D9" stroke-width="6" stroke-linecap="round" stroke-linejoin="round" sketch:type="MSShapeGroup"></path>
                <g id="icon_last-3"></g>
            </g>
            <g id="icon_next-3-+-icon_next-2" sketch:type="MSLayerGroup" transform="translate(100.000000, 800.000000)" stroke="#D9D9D9" stroke-width="6" stroke-linecap="round" stroke-linejoin="round">
                <path d="M39,29.2867966 L60.2132034,50.5 L39,71.7132034" id="icon_next-3" sketch:type="MSShapeGroup"></path>
            </g>
            <g id="icon_plane-2" sketch:type="MSLayerGroup" transform="translate(0.000000, 400.000000)" stroke="#FFFFFF" stroke-linecap="round" stroke-linejoin="round">
                <path d="M98.75,106.25 L101.5625,129.0625 L115,116.875" id="Path-95" stroke-width="6.25" sketch:type="MSShapeGroup"></path>
                <path d="M160,45 L66.25,83.5883905 L131.12069,126.25 L160,45 Z" id="Path-93" stroke-width="6.25" sketch:type="MSShapeGroup"></path>
                <path d="M99.0625,104.375 L159.0625,46.5625" id="Line" stroke-width="6.25" sketch:type="MSShapeGroup"></path>
                <path d="M82.5,116.25 L40.3125,154.6875" id="Line" stroke-width="3.75" sketch:type="MSShapeGroup"></path>
                <path d="M65,102.5 L44.6875,120.3125" id="Line" stroke-width="3.75" sketch:type="MSShapeGroup"></path>
                <path d="M89.375,140 L74.6875,154.6875" id="Line" stroke-width="3.75" sketch:type="MSShapeGroup"></path>
            </g>
            <g id="icon_video-2" sketch:type="MSLayerGroup" transform="translate(200.000000, 400.000000)" stroke="#FFFFFF" stroke-width="8" stroke-linecap="round" stroke-linejoin="round">
                <rect id="Rectangle-10" sketch:type="MSShapeGroup" x="50" y="73" width="68" height="55" rx="5.70342205"></rect>
                <path d="M149.524715,120.637008 L129.763366,100.786458 L149.524715,80.9359086 L149.524715,120.637008 L149.524715,120.637008 Z" id="Rectangle-11" sketch:type="MSShapeGroup"></path>
            </g>
            <g id="icon_lbs-2" sketch:type="MSLayerGroup" transform="translate(200.000000, 600.000000)">
                <path d="M127.878873,113.825299 C133.8096,107.157396 137.412921,98.3700693 137.412921,88.7403846 C137.412921,67.8969457 120.531164,51 99.7064607,51 C78.8817575,51 62,67.8969457 62,88.7403846 C62,98.3700693 65.6033218,107.157396 71.5340481,113.825299 L99.7064607,150.530955 L127.878873,113.825299 L127.878873,113.825299 Z" id="Oval-3" stroke="#FFFFFF" stroke-width="8" stroke-linecap="round" stroke-linejoin="round" sketch:type="MSShapeGroup"></path>
                <ellipse id="Oval-3" fill="#FFFFFF" sketch:type="MSShapeGroup" cx="100.186798" cy="89.7019231" rx="10.8075843" ry="10.8173077"></ellipse>
            </g>
            <g id="icon_time-2" sketch:type="MSLayerGroup" transform="translate(0.000000, 600.000000)">
                <circle id="Oval-2" stroke="#FFFFFF" stroke-width="7.60869565" stroke-linecap="round" stroke-linejoin="round" sketch:type="MSShapeGroup" cx="100" cy="101" r="50"></circle>
                <rect id="Rectangle-13" fill="#FFFFFF" sketch:type="MSShapeGroup" x="66.8478261" y="97.1956522" width="37.5" height="8.15217391" rx="5.43478261"></rect>
                <rect id="Rectangle-14" fill="#FFFFFF" sketch:type="MSShapeGroup" transform="translate(112.452892, 89.090587) rotate(-45.000000) translate(-112.452892, -89.090587) " x="91.2499265" y="85.0144996" width="42.4059304" height="8.15217391" rx="5.43478261"></rect>
            </g>
            <g id="icon_scrolldown-2" sketch:type="MSLayerGroup" transform="translate(300.000000, 800.000000)" fill="#FFFFFF">
                <path d="M50.4396713,52.6460228 L33.7266085,42.9967316 C32.7680799,42.4433248 31.5524546,42.7755504 31.0001094,43.7322403 C30.4439134,44.6956001 30.772931,45.9107326 31.7263897,46.4612122 L49.152734,56.5223168 C49.5588927,56.7568126 50.0112126,56.8322946 50.4396713,56.7686327 C50.86813,56.8322946 51.3204499,56.7568126 51.7266085,56.5223168 L69.1529529,46.4612122 C70.1064116,45.9107326 70.4354292,44.6956001 69.8792332,43.7322403 C69.326888,42.7755504 68.1112627,42.4433248 67.152734,42.9967316 L50.4396713,52.6460228 Z" id="icon_scrolldown" sketch:type="MSShapeGroup"></path>
            </g>
            <g id="icon_play" sketch:type="MSLayerGroup" transform="translate(200.000000, 800.000000)">
                <path d="M67.6909394,47.4456249 C70.0643798,48.8564891 70.0594515,51.1468814 67.6909394,52.5548161 L44.297494,66.4607791 C41.9240536,67.8716433 40,66.7783868 40,64.0240374 L40,35.9764037 C40,33.2197642 41.9289818,32.1317273 44.297494,33.5396619 L67.6909394,47.4456249 Z" id="Rectangle-3" fill="#FFFFFF" sketch:type="MSShapeGroup"></path>
                <circle id="Oval-1" stroke="#FFFFFF" stroke-width="2" stroke-linecap="round" stroke-linejoin="round" sketch:type="MSShapeGroup" cx="50" cy="50" r="35"></circle>
            </g>
            <path d="M80.0553378,7.77058279 C90.3851104,7.77058279 99.4388974,9.17359066 107.21697,11.9796485 C114.995043,14.7857063 121.466426,18.5167821 126.631312,23.172988 C131.796198,27.8291938 135.685176,33.1791249 138.298363,39.2229417 C140.911549,45.2667586 142.218123,51.5263321 142.218123,58.0018501 C142.218123,64.045667 141.049893,70.0277225 138.713396,75.9481961 C136.3769,81.8686698 132.856837,87.3265245 128.153101,92.3219241 C123.449365,97.3173238 117.515984,101.634271 110.352778,105.272895 C103.189573,108.91152 94.7813871,111.470853 85.1279686,112.950971 C84.9435084,117.452998 84.7897939,121.584933 84.6668204,125.346901 C84.6053336,126.950363 84.5438478,128.5538 84.4823611,130.157262 C84.4208743,131.760723 84.37476,133.225402 84.3440166,134.551341 C84.3132732,135.877281 84.2825303,137.033606 84.2517869,138.020352 C84.2210436,139.007097 84.2056721,139.685475 84.2056721,140.055504 C84.0826986,144.372516 83.5754406,148.859058 82.6838829,153.515264 C81.7923251,158.171469 80.5011229,162.719682 78.8102375,167.160037 C77.1193521,171.600392 75.0595771,175.809416 72.6308508,179.787234 C70.2021245,183.765052 67.3737768,187.249445 64.1457228,190.240518 C60.9176689,193.231591 57.305377,195.605912 53.3087388,197.363552 C49.3121005,199.121193 44.9466073,200 40.2121282,200 C35.1702154,200 30.6663791,198.689498 26.7004842,196.068455 C22.7345893,193.447412 19.2606405,189.916766 16.2785335,185.476411 C13.2964266,181.036056 10.775508,175.917389 8.7157021,170.120259 C6.65589624,164.323129 4.98040766,158.263985 3.68918607,151.942646 C2.39796449,145.621307 1.46030574,139.253809 0.876181692,132.839963 C0.292057644,126.426117 0,120.38239 0,114.708603 C0,104.96449 0.891544386,95.5597123 2.6746599,86.493987 C4.45777542,77.4282618 7.00943694,68.9331263 10.329721,61.0083256 C13.6500051,53.083525 17.6773263,45.8526383 22.4118054,39.3154487 C27.1462845,32.778259 32.4801794,27.1662276 38.41365,22.4791859 C44.3471206,17.7921443 50.8031317,14.1689921 57.7818769,11.6096207 C64.7606221,9.05024931 72.1850348,7.77058279 80.0553378,7.77058279 L80.0553378,7.77058279 L80.0553378,7.77058279 Z M302.033255,125.001893 C300.547334,125.781058 298.985719,126.512771 297.348398,127.19704 C294.397034,128.430472 291.537943,129.047179 288.77104,129.047179 C287.787252,129.047179 286.849593,128.862167 285.958036,128.492137 C285.066478,128.122107 284.267162,127.489983 283.560065,126.595745 C282.852967,125.701506 282.284223,124.514346 281.853816,123.034228 C281.423409,121.554109 281.208208,119.703989 281.208208,117.483811 C281.208208,116.188708 281.361923,114.569852 281.669357,112.627197 C281.97679,110.684542 282.468677,108.202297 283.145031,105.180389 C283.821385,102.15848 284.313272,99.7070708 284.620706,97.826087 C284.928139,95.9451031 285.081854,94.4804246 285.081854,93.4320074 C285.081854,92.0752322 284.835911,90.8572364 284.344017,89.7779833 C283.852123,88.6987303 283.19115,87.7890879 282.361079,87.0490287 C281.531008,86.3089695 280.562606,85.7385157 279.455845,85.3376503 C278.349084,84.9367849 277.211596,84.7363552 276.043348,84.7363552 C272.661577,84.7363552 269.679515,85.6459977 267.097072,87.4653099 C264.514629,89.2846221 262.20891,91.5201841 260.179848,94.1720629 C258.150785,96.8239417 256.213982,100.154158 254.36938,104.162812 C252.524777,108.171466 250.987632,111.409177 249.757897,113.876041 L248.743371,113.876041 C248.620398,110.730789 248.712626,107.061384 249.02006,102.867715 C249.327494,98.6740463 249.481208,95.4363358 249.481208,93.1544866 C249.481208,91.242667 249.435094,89.7317354 249.342864,88.6216466 C249.250634,87.5115578 248.989319,86.663586 248.558912,86.0777058 C248.128504,85.4918256 247.467532,85.1218016 246.575974,84.9676226 C245.684416,84.8134436 244.439329,84.7363552 242.840673,84.7363552 C241.426478,84.7363552 240.242876,84.8134436 239.289832,84.9676226 C238.336787,85.1218016 237.537472,85.4301549 236.891861,85.892692 C236.24625,86.355229 235.677506,86.9873534 235.185612,87.7890842 C234.693718,88.590815 234.201832,89.6700518 233.709938,91.026827 C232.91061,93.0619898 232.111294,95.6521582 231.311967,98.7974098 C230.512639,101.942661 229.559609,105.874167 228.452848,110.592044 C227.346086,115.309922 226.43917,119.75021 225.732073,123.913043 C225.151879,127.328767 224.633787,130.692547 224.177787,134.004452 C221.302531,137.880157 218.454269,141.377255 215.632926,144.495837 C214.341704,145.914284 212.973645,147.286457 211.528706,148.612396 C210.083768,149.938335 208.638851,151.125496 207.193913,152.173913 C205.748974,153.22233 204.319429,154.070302 202.905234,154.717854 C201.491039,155.365406 200.138351,155.689177 198.847129,155.689177 C197.125501,155.689177 196.003384,154.87204 195.480747,153.237743 C194.95811,151.603445 194.696795,149.337048 194.696795,146.438483 C194.696795,143.046545 195.219424,138.945445 196.264699,134.13506 C197.309974,129.324675 198.201518,125.023146 198.939359,121.230342 C199.6772,117.437539 200.353544,113.737298 200.968411,110.12951 C201.583279,106.521721 201.890708,103.237758 201.890708,100.277521 C201.890708,98.3657012 201.721622,96.8547697 201.383445,95.7446809 C201.045268,94.634592 200.568753,93.7712026 199.953885,93.1544866 C199.339018,92.5377706 198.631931,92.1369112 197.832603,91.9518964 C197.033276,91.7668816 196.172474,91.6743756 195.250173,91.6743756 C194.573819,91.6743756 193.882103,91.6897932 193.175006,91.720629 C192.467908,91.7514648 191.776193,91.7668825 191.099839,91.7668825 C190.300511,91.7668825 189.516567,91.7206295 188.747982,91.6281221 C187.979398,91.5356147 187.226197,91.335185 186.488356,91.026827 C185.750515,90.718469 185.135657,90.2251036 184.643763,89.546716 C184.151869,88.8683284 183.644611,88.1745333 183.121974,87.4653099 C182.599336,86.7560865 181.938364,86.1239621 181.139036,85.5689177 C180.339709,85.0138733 179.232964,84.7363552 177.818769,84.7363552 C173.576184,84.7363552 169.410519,85.6459977 165.321651,87.4653099 C161.232783,89.2846221 157.343804,91.7360315 153.6546,94.8196115 C149.965395,97.9031915 146.568304,101.510926 143.463223,105.642923 C140.358143,109.77492 137.452938,114.677739 134.747521,120.351526 C132.042105,126.025314 130.043816,131.298156 128.752594,136.170213 C127.461372,141.042269 126.815771,145.790911 126.815771,150.416281 C126.815771,154.486607 127.461372,158.140594 128.752594,161.378353 C130.043816,164.616112 131.765418,167.360457 133.917454,169.611471 C136.06949,171.862484 138.544295,173.589263 141.341941,174.791859 C144.139588,175.994456 147.01405,176.595745 149.965414,176.595745 C152.732317,176.595745 155.499179,176.133215 158.266083,175.208141 C161.032986,174.283067 163.692248,173.095906 166.243947,171.646623 C168.795647,170.197341 171.14748,168.578486 173.299516,166.790009 C175.451552,165.001533 177.265383,163.243919 178.741065,161.517114 C180.708641,166.512513 183.045102,170.320678 185.750519,172.941721 C188.455935,175.562764 191.837656,176.873265 195.89578,176.873265 C199.277551,176.873265 202.659271,176.040711 206.041042,174.375578 C209.422813,172.710445 212.589333,170.675313 215.540696,168.27012 C218.023159,166.247055 220.298962,164.136753 222.368154,161.939169 L222.368154,161.939169 C222.429226,162.716472 222.505263,163.485438 222.596265,164.246068 C222.872955,166.558753 223.426327,168.624721 224.256398,170.444033 C225.086469,172.263346 226.270071,173.712606 227.80724,174.791859 C229.344409,175.871112 231.373441,176.410731 233.894397,176.410731 C235.001158,176.410731 236.015674,176.210301 236.937976,175.809436 C237.860277,175.40857 238.721078,174.714775 239.520406,173.72803 C240.319733,172.741284 241.103678,171.461617 241.872262,169.888992 C242.640846,168.316366 243.455533,166.327487 244.316348,163.922294 L260.825455,117.761332 L262.30113,117.761332 C262.793024,121.646643 263.438625,125.485642 264.237953,129.278446 C265.03728,133.071249 266.266997,136.493972 267.927139,139.546716 C269.587281,142.59946 271.831513,145.066287 274.659903,146.947271 C277.488293,148.828255 281.208185,149.768733 285.819691,149.768733 C288.402134,149.768733 290.938424,149.383291 293.428637,148.612396 C295.91885,147.841501 298.316797,146.885605 300.62255,145.744681 C300.734924,145.689077 300.846968,145.633289 300.958685,145.577319 C300.826824,149.374614 300.760895,152.560201 300.760895,155.134135 C300.760895,158.0327 300.868495,160.761628 301.083698,163.320999 C301.298902,165.88037 301.80616,168.13135 302.605488,170.074006 C303.404815,172.016661 304.573046,173.558428 306.110214,174.699352 C307.647383,175.840277 309.737901,176.410731 312.381831,176.410731 C314.349407,176.410731 316.071009,175.917365 317.546691,174.93062 C319.022373,173.943874 320.498033,172.247931 321.973715,169.842738 L349.089232,122.109158 C350.995321,118.778892 352.809153,116.404571 354.530782,114.986124 C356.190924,113.629349 357.543612,112.950971 358.588886,112.950971 C359.449701,112.950971 360.110673,113.351831 360.571824,114.153562 C361.032974,114.955292 361.263546,116.003694 361.263546,117.298797 C361.263546,117.977185 361.079089,118.624727 360.710168,119.241443 C360.341248,119.858159 359.818618,120.521119 359.142264,121.230342 C358.46591,121.939566 357.666594,122.741284 356.744293,123.635523 C355.821992,124.529761 354.807476,125.531909 353.700715,126.641998 C350.933811,130.218951 348.689579,133.564585 346.96795,136.679001 C345.246321,139.793417 343.909005,142.645685 342.95596,145.235893 C342.002916,147.8261 341.357315,150.154168 341.019138,152.220167 C340.680961,154.286165 340.511875,156.028362 340.511875,157.446809 C340.511875,159.852001 340.803932,162.180069 341.388056,164.431082 C341.97218,166.682096 343.063554,168.70181 344.662209,170.490287 C346.260864,172.278763 348.458982,173.712606 351.256629,174.791859 C354.054276,175.871112 357.666568,176.410731 362.093613,176.410731 C365.475384,176.410731 368.995447,175.917365 372.653908,174.93062 C376.312369,173.943874 379.847804,172.571702 383.260318,170.814061 C386.672832,169.05642 389.839352,166.990453 392.759972,164.616096 C395.680593,162.24174 398.093911,159.666989 400,156.891767 L394.466221,134.227567 C393.420946,135.337656 392.252716,136.678993 390.961494,138.251619 C389.670273,139.824245 388.302213,141.473935 386.857275,143.20074 C385.412336,144.927545 383.905934,146.623488 382.338022,148.288622 C380.77011,149.953755 379.217593,151.464686 377.680424,152.821462 C376.143256,154.178237 374.652225,155.272891 373.207286,156.105458 C371.762348,156.938025 370.425031,157.354302 369.195296,157.354302 C366.920287,157.354302 365.244798,156.876354 364.16878,155.920444 C363.092762,154.964534 362.554761,153.376514 362.554761,151.156337 C362.554761,148.56613 363.16962,145.975961 364.399354,143.385754 C365.629089,140.795547 367.166235,138.189961 369.010837,135.568918 C370.855439,132.947875 372.853728,130.342289 375.005764,127.752081 C377.1578,125.161874 379.156089,122.571706 381.000692,119.981499 C382.845294,117.391291 384.613011,114.354011 386.303897,110.869565 C387.994782,107.38512 388.840212,104.378674 388.840212,101.850139 C388.840212,99.2599315 388.50204,96.9164459 387.825686,94.8196115 C387.149332,92.7227771 386.227045,90.9343275 385.058796,89.4542091 C383.890548,87.9740907 382.522489,86.8331832 380.954577,86.0314524 C379.386665,85.2297216 377.741919,84.8288622 376.020291,84.8288622 C372.63852,84.8288622 369.564229,85.3068099 366.797325,86.2627197 C364.030422,87.2186295 361.693961,88.3749547 359.787872,89.7317299 C358.558137,90.5951323 356.652077,92.6919352 354.069633,96.0222017 C351.48719,99.3524681 348.920157,102.559343 346.368457,105.642923 C343.816758,108.726503 341.218982,111.964214 338.575052,115.356152 C335.931122,118.74809 333.502432,121.862459 331.288909,124.699352 L329.075398,123.311748 L340.050726,106.845513 C340.604107,105.858768 341.726223,103.777383 343.417109,100.601295 C345.107994,97.4252077 347.060169,93.5245375 349.273691,88.8991674 C351.487214,84.2737974 353.792932,79.0934607 356.190915,73.3580019 C358.588898,67.622543 360.802388,61.7175759 362.83145,55.6429232 C364.860513,49.5682706 366.536001,43.5091267 367.857966,37.4653099 C369.179931,31.4214931 369.840904,25.7786263 369.840904,20.5365402 C369.840904,17.5763034 369.594961,14.8319584 369.103067,12.3034228 C368.611173,9.77488714 367.765743,7.60099584 366.566751,5.78168363 C365.36776,3.96237142 363.753757,2.54394588 361.724694,1.52636448 C359.695632,0.508783071 357.113228,0 353.977404,0 C349.980766,0 346.291616,0.832554117 342.909846,2.49768733 C339.528075,4.16282054 336.423041,6.42921785 333.594651,9.29694727 C330.766261,12.1646767 328.214599,15.5103108 325.93959,19.33395 C323.66458,23.1575893 321.620177,27.1816008 319.806318,31.4061055 C317.992459,35.6306101 316.393828,39.9783927 315.010376,44.4495837 C313.626924,48.9207747 312.427951,53.2223043 311.413419,57.3543016 C310.398888,61.4862988 309.553458,65.3561337 308.877104,68.9639223 C308.20075,72.5717109 307.647377,75.639827 307.21697,78.1683626 C306.048722,85.3222683 305.049578,92.691914 304.219507,100.277521 C303.389436,107.863128 302.728463,115.12485 302.236569,122.062905 C302.166287,123.054215 302.098516,124.033878 302.033255,125.001893 L302.033255,125.001893 Z M24.7175467,112.303423 C24.7175467,114.831958 24.7329181,118.239263 24.7636615,122.525439 C24.7944049,126.811616 24.9634909,131.390663 25.2709246,136.26272 C25.5783583,141.134776 26.0702449,146.06843 26.746599,151.06383 C27.4229532,156.059229 28.4220978,160.576606 29.7440627,164.616096 C31.0660277,168.655586 32.7261448,171.954967 34.7244639,174.514339 C36.722783,177.07371 39.2283302,178.353377 42.2411805,178.353377 C45.3770044,178.353377 48.0516375,177.258722 50.2651602,175.06938 C52.478683,172.880038 54.3232576,170.043187 55.7989394,166.558742 C57.2746212,163.074296 58.4428517,159.127373 59.3036661,154.717854 C60.1644805,150.308334 60.8100816,145.883463 61.2404888,141.443108 C61.670896,137.002753 61.9475822,132.762894 62.0705557,128.723404 C62.1935292,124.683914 62.255015,121.245774 62.255015,118.408881 L62.255015,114.061055 C57.1516154,112.025892 53.1396657,110.237442 50.2190454,108.695652 C47.2984252,107.153862 45.1003071,105.673766 43.6246253,104.255319 C42.1489435,102.836872 41.2112848,101.341358 40.8116209,99.7687327 C40.4119571,98.1961068 40.2121282,96.3614043 40.2121282,94.2645698 C40.2121282,93.154481 40.2428711,92.0598265 40.3043579,90.9805735 C40.3658446,89.9013205 40.5349306,88.9454251 40.8116209,88.1128585 C41.0883113,87.2802919 41.4879691,86.6019144 42.0106064,86.0777058 C42.5332437,85.5534972 43.2557021,85.2913969 44.1780032,85.2913969 C44.7928706,85.2913969 45.3616145,85.4147382 45.8842518,85.6614246 C46.4068891,85.908111 47.0678617,86.2472997 47.8671893,86.6790009 C49.8962518,87.7890897 51.7408264,88.6987322 53.4009684,89.4079556 C55.0611104,90.117179 56.4752843,90.6876327 57.6435324,91.119334 C58.9962407,91.6127068 60.2259571,91.9827308 61.3327185,92.2294172 C61.3327185,91.4276864 61.3480899,89.8396665 61.3788333,87.4653099 C61.4095767,85.0909533 61.5940341,82.3774436 61.9322112,79.3246994 C62.2703883,76.2719551 62.8391321,73.0804977 63.6384598,69.7502313 C64.4377874,66.4199648 65.606018,63.3672664 67.1431865,60.5920444 C68.6803551,57.8168224 70.6786442,55.5195897 73.1381139,53.7002775 C75.5975836,51.8809653 78.6411317,50.9713228 82.2688494,50.9713228 C83.3756108,50.9713228 84.5130985,51.0792465 85.6813466,51.2950971 C86.8495947,51.5109477 87.910225,51.9118071 88.8632695,52.4976873 C89.816314,53.0835675 90.6156297,53.8698686 91.2612405,54.8566142 C91.9068513,55.8433599 92.2296518,57.1076087 92.2296518,58.6493987 C92.2296518,59.0810999 92.2142804,59.3740356 92.183537,59.5282146 C92.1527936,59.6823936 92.1374222,59.8828233 92.1374222,60.1295097 L86.5114134,83.9037928 L85.6813466,91.2118409 C91.7070473,90.2867669 96.902599,88.8066707 101.268158,86.7715079 C105.633716,84.7363451 109.246008,82.3311887 112.105142,79.5559667 C114.964275,76.7807447 117.085536,73.7280463 118.468988,70.3977798 C119.852439,67.0675134 120.544155,63.6447909 120.544155,60.1295097 C120.544155,56.6759001 119.883182,53.1452539 118.561217,49.5374653 C117.239252,45.9296767 114.948906,42.6457132 111.690108,39.6854764 C108.431311,36.7252396 104.065818,34.2892479 98.5934978,32.3774283 C93.1211778,30.4656087 86.234766,29.5097132 77.9340558,29.5097132 C71.7238949,29.5097132 66.0979424,30.6968737 61.0560295,33.0712303 C56.0141167,35.445587 51.5256518,38.6678797 47.5905003,42.7382054 C43.6553489,46.808531 40.2428859,51.557173 37.353009,56.9842738 C34.4631321,62.4113747 32.0805566,68.1930005 30.205211,74.3293247 C28.3298653,80.4656489 26.9464344,86.7868932 26.0548766,93.293247 C25.1633189,99.7996008 24.7175467,106.136263 24.7175467,112.303423 L24.7175467,112.303423 Z M150.426562,146.438483 C150.426562,147.980273 150.534162,149.475787 150.749366,150.925069 C150.96457,152.374352 151.348856,153.669436 151.902237,154.810361 C152.455617,155.951285 153.193447,156.876346 154.115748,157.585569 C155.038049,158.294792 156.20628,158.649399 157.620475,158.649399 C159.895484,158.649399 161.955259,157.662668 163.799862,155.689177 C165.644464,153.715685 167.243095,151.341364 168.595804,148.566142 C169.948512,145.79092 171.039885,142.923234 171.869956,139.962997 C172.700027,137.00276 173.238028,134.535933 173.483975,132.562442 L180.401199,102.312673 C177.880243,102.312673 175.42081,102.944798 173.022827,104.209066 C170.624844,105.473333 168.36524,107.184695 166.243947,109.343201 C164.122655,111.501707 162.17048,113.968534 160.387365,116.743756 C158.604249,119.518978 156.851903,122.9417 155.130274,127.012026 C153.408646,131.082352 152.194301,134.659251 151.487203,137.742831 C150.780106,140.826411 150.426562,143.724932 150.426562,146.438483 L150.426562,146.438483 Z M349.365921,20.8140611 C347.398345,20.8140611 345.707485,21.4307678 344.29329,22.6641998 C342.879095,23.8976318 341.541779,25.6552461 340.2813,27.9370953 C339.020822,30.2189445 337.760363,32.9941249 336.499885,36.2627197 C335.239407,39.5313145 333.809861,43.1698844 332.211206,47.1785384 C331.227418,50.6938196 330.320502,54.3323895 329.490431,58.0943571 C328.66036,61.8563247 327.907159,65.6028182 327.230805,69.33395 C326.554451,73.0650819 325.954964,76.7499047 325.432326,80.3885291 C324.909689,84.0271536 324.463917,87.449876 324.094997,90.6567993 C323.172695,98.2424061 322.434866,105.704558 321.881485,113.043478 C323.234193,108.973153 324.709853,104.548282 326.308508,99.7687327 C327.907163,94.9891836 329.490423,90.271377 331.058335,85.6151711 C332.626247,80.9589653 334.101907,76.549512 335.485359,72.386679 C336.86881,68.223846 338.021669,64.6931998 338.94397,61.7946346 C339.374378,60.4378594 339.989236,58.7419158 340.788564,56.706753 C341.587891,54.6715902 342.448693,52.4822812 343.370994,50.1387604 C344.293295,47.7952396 345.215582,45.3592479 346.137883,42.8307123 C347.060184,40.3021767 347.905614,37.866185 348.674199,35.5226642 C349.442783,33.1791434 350.073013,30.9898344 350.564907,28.9546716 C351.056801,26.9195088 351.302744,25.1927299 351.302744,23.7742831 C351.302744,21.8007919 350.657143,20.8140611 349.365921,20.8140611 L349.365921,20.8140611 L349.365921,20.8140611 Z" id="logo" fill="#FFFFFF" sketch:type="MSShapeGroup"></path>
            <g id="btn_android_en-+-btn_ios_en" sketch:type="MSLayerGroup" transform="translate(0.000000, 900.000000)">
                <g id="btn_android_en" transform="translate(200.000000, 0.000000)" sketch:type="MSShapeGroup">
                    <path d="M0,7.99854961 L0,52.0014504 C0,56.4189274 3.57762838,60 7.99464702,60 L192.005353,60 C196.420675,60 200,56.4264107 200,52.0014504 L200,7.99854961 C200,3.58107264 196.422372,0 192.005353,0 L7.99464702,0 C3.57932539,0 0,3.57358932 0,7.99854961 Z" id="Btn_bg" fill="#000000"></path>
                    <path d="M41.9884722,13.3553072 L42.4337048,12.7001072 L42.8707978,12.0537072 L43.8548676,10.6033072 C43.9753327,10.4249072 43.9264955,10.1849072 43.7466118,10.0657072 C43.5634722,9.94650721 43.3192862,9.99450721 43.1980071,10.1737072 L42.1439374,11.7289072 L41.7003327,12.3825072 L41.2502164,13.0449072 C39.8241699,12.5017072 38.2345188,12.1969072 36.5553327,12.1969072 C34.8777746,12.1969072 33.2881234,12.5017072 31.8620769,13.0449072 L31.4144025,12.3825072 L30.9707978,11.7289072 L29.9151002,10.1729072 C29.794635,9.99450721 29.549635,9.94650721 29.3673095,10.0649072 C29.1866118,10.1833072 29.1377746,10.4241072 29.2582397,10.6025072 L30.2414955,12.0529072 L30.6802164,12.6993072 L31.125449,13.3545072 C27.7760304,14.8873072 25.5107978,17.7913072 25.5107978,21.1153072 L47.6031234,21.1153072 C47.6031234,17.7921072 45.3378909,14.8881072 41.9884722,13.3553072 L41.9884722,13.3553072 Z M31.8230071,18.0137072 C31.1677746,18.0137072 30.6387048,17.4929072 30.6387048,16.8505072 C30.6387048,16.2081072 31.1677746,15.6881072 31.8230071,15.6881072 C32.4766118,15.6881072 33.0056815,16.2081072 33.0056815,16.8505072 C33.0056815,17.4929072 32.4766118,18.0137072 31.8230071,18.0137072 L31.8230071,18.0137072 Z M41.2901002,18.0137072 C40.6364955,18.0137072 40.1074257,17.4929072 40.1074257,16.8505072 C40.1074257,16.2081072 40.6364955,15.6881072 41.2901002,15.6881072 C41.9453327,15.6881072 42.4744025,16.2081072 42.4744025,16.8505072 C42.4744025,17.4929072 41.9453327,18.0137072 41.2901002,18.0137072 Z M25.6809141,22.6673072 L25.5107978,22.6673072 L25.5107978,24.6017072 L25.5107978,26.1801072 L25.5107978,39.7289072 C25.5107978,41.0833072 26.6307978,42.1849072 28.0088211,42.1849072 L29.812542,42.1849072 C29.7523095,42.3897072 29.7181234,42.6065072 29.7181234,42.8305072 L29.7181234,42.9601072 L29.7181234,43.7353072 L29.7181234,47.7433072 C29.7181234,49.0273072 30.7787048,50.0697072 32.0859141,50.0697072 C33.3931234,50.0697072 34.4528909,49.0273072 34.4528909,47.7433072 L34.4528909,43.7353072 L34.4528909,42.9601072 L34.4528909,42.8305072 C34.4528909,42.6073072 34.4178909,42.3897072 34.3592862,42.1849072 L38.754635,42.1849072 C38.6944025,42.3897072 38.6610304,42.6065072 38.6610304,42.8305072 L38.6610304,42.9601072 L38.6610304,43.7353072 L38.6610304,47.7433072 C38.6610304,49.0273072 39.7216118,50.0697072 41.0280071,50.0697072 C42.3344025,50.0697072 43.3949839,49.0273072 43.3949839,47.7433072 L43.3949839,43.7353072 L43.3949839,42.9601072 L43.3949839,42.8305072 C43.3949839,42.6073072 43.3616118,42.3897072 43.3013792,42.1849072 L45.1042862,42.1849072 C46.4823095,42.1849072 47.6031234,41.0833072 47.6031234,39.7289072 L47.6031234,26.1801072 L47.6031234,24.6017072 L47.6031234,22.6673072 L47.4330071,22.6673072 L25.6809141,22.6673072 L25.6809141,22.6673072 Z M21.5647513,22.6673072 C20.257542,22.6673072 19.1977746,23.7081072 19.1977746,24.9945072 L19.1977746,34.9457072 C19.1977746,36.2297072 20.257542,37.2721072 21.5647513,37.2721072 C22.8711467,37.2721072 23.9317281,36.2297072 23.9317281,34.9457072 L23.9317281,24.9937072 C23.9317281,23.7081072 22.8719606,22.6673072 21.5647513,22.6673072 Z M51.5491699,22.6673072 C50.2411467,22.6673072 49.1821932,23.7081072 49.1821932,24.9945072 L49.1821932,34.9457072 C49.1821932,36.2297072 50.2411467,37.2721072 51.5491699,37.2721072 C52.8555653,37.2721072 53.9145188,36.2297072 53.9145188,34.9457072 L53.9145188,24.9937072 C53.9145188,23.7081072 52.8555653,22.6673072 51.5491699,22.6673072 Z" id="Android" fill="#FFFFFF"></path>
                    <path d="M74.3447266,43.3583984 L68.2861328,43.3583984 L67.0185547,47 L64.1933594,47 L70.1015625,31.359375 L72.5400391,31.359375 L78.4589844,47 L75.6230469,47 L74.3447266,43.3583984 Z M69.0488281,41.1669922 L73.5820312,41.1669922 L71.3154297,34.6787109 L69.0488281,41.1669922 Z M81.8857422,35.3769531 L81.9609375,36.7197266 C82.3691427,36.2255835 82.8596977,35.8424493 83.4326172,35.5703125 C84.0055367,35.2981757 84.6429001,35.1621094 85.3447266,35.1621094 C85.9033231,35.1621094 86.4099912,35.2390943 86.8647461,35.3930664 C87.319501,35.5470385 87.7080062,35.7958967 88.0302734,36.1396484 C88.3525407,36.4834002 88.6013989,36.9309868 88.7768555,37.4824219 C88.9523121,38.0338569 89.0400391,38.7034466 89.0400391,39.4912109 L89.0400391,47 L86.4296875,47 L86.4296875,39.4697266 C86.4296875,39.0686829 86.3849288,38.7303074 86.2954102,38.4545898 C86.2058915,38.1788723 86.0751962,37.955079 85.9033203,37.7832031 C85.7314445,37.6113273 85.5183932,37.4877933 85.2641602,37.4125977 C85.0099271,37.337402 84.7181006,37.2998047 84.3886719,37.2998047 C83.8515598,37.2998047 83.3842793,37.4287096 82.9868164,37.6865234 C82.5893535,37.9443372 82.2724621,38.2916645 82.0361328,38.7285156 L82.0361328,47 L79.4257812,47 L79.4257812,35.3769531 L81.8857422,35.3769531 Z M91.2099609,41.1025391 C91.2099609,40.2216753 91.3155914,39.4160193 91.5268555,38.6855469 C91.7381195,37.9550745 92.0424785,37.3284531 92.4399414,36.8056641 C92.8374043,36.282875 93.3190076,35.8782566 93.8847656,35.5917969 C94.4505237,35.3053371 95.0878871,35.1621094 95.796875,35.1621094 C96.4414095,35.1621094 97.0089494,35.2731109 97.4995117,35.4951172 C97.9900741,35.7171235 98.4179669,36.0358052 98.7832031,36.4511719 L98.7832031,30.5 L101.393555,30.5 L101.393555,47 L99.0302734,47 L98.9013672,45.796875 C98.5289695,46.2480491 98.0867539,46.5971667 97.574707,46.8442383 C97.0626602,47.0913098 96.4628941,47.2148438 95.7753906,47.2148438 C95.0735642,47.2148438 94.4415718,47.066245 93.8793945,46.769043 C93.3172172,46.471841 92.8391947,46.0618516 92.4453125,45.5390625 C92.0514303,45.0162734 91.7470714,44.3950231 91.5322266,43.675293 C91.3173817,42.9555628 91.2099609,42.1731813 91.2099609,41.328125 L91.2099609,41.1025391 Z M93.8203125,41.328125 C93.8203125,41.8437526 93.8686519,42.3289365 93.965332,42.7836914 C94.0620122,43.2384463 94.215982,43.6376936 94.4272461,43.9814453 C94.6385102,44.325197 94.9088525,44.5955394 95.2382812,44.7924805 C95.56771,44.9894216 95.9687476,45.0878906 96.4414062,45.0878906 C97.0286488,45.0878906 97.510252,44.9571953 97.8862305,44.6958008 C98.2622089,44.4344062 98.5611968,44.0888693 98.7832031,43.6591797 L98.7832031,38.6962891 C98.5611968,38.2665994 98.2604186,37.9264335 97.8808594,37.6757812 C97.5013002,37.425129 97.0286487,37.2998047 96.4628906,37.2998047 C95.990232,37.2998047 95.587404,37.4000641 95.2543945,37.6005859 C94.9213851,37.8011078 94.6492524,38.0732405 94.4379883,38.4169922 C94.2267242,38.7607439 94.070964,39.1635719 93.9707031,39.6254883 C93.8704422,40.0874047 93.8203125,40.57975 93.8203125,41.1025391 L93.8203125,41.328125 Z M110.202148,37.7617188 C110.030273,37.7330728 109.856609,37.7115886 109.681152,37.6972656 C109.505696,37.6829426 109.324871,37.6757812 109.138672,37.6757812 C108.50846,37.6757812 107.996421,37.7975248 107.602539,38.0410156 C107.208657,38.2845064 106.91504,38.6210916 106.72168,39.0507812 L106.72168,47 L104.111328,47 L104.111328,35.3769531 L106.603516,35.3769531 L106.667969,36.6767578 C106.96159,36.2040992 107.32503,35.8334974 107.758301,35.5649414 C108.191571,35.2963854 108.70182,35.1621094 109.289062,35.1621094 C109.439454,35.1621094 109.609537,35.1782225 109.799316,35.2104492 C109.989096,35.2426759 110.126953,35.2766925 110.212891,35.3125 L110.202148,37.7617188 Z M110.975586,41.0810547 C110.975586,40.2359984 111.09912,39.4536169 111.346191,38.7338867 C111.593263,38.0141566 111.947752,37.3893256 112.409668,36.859375 C112.871584,36.3294244 113.435544,35.914064 114.101562,35.6132812 C114.767581,35.3124985 115.523108,35.1621094 116.368164,35.1621094 C117.220382,35.1621094 117.98307,35.3124985 118.65625,35.6132812 C119.32943,35.914064 119.89697,36.3294244 120.358887,36.859375 C120.820803,37.3893256 121.173501,38.0141566 121.416992,38.7338867 C121.660483,39.4536169 121.782227,40.2359984 121.782227,41.0810547 L121.782227,41.3066406 C121.782227,42.1516969 121.660483,42.9358688 121.416992,43.6591797 C121.173501,44.3824906 120.820803,45.0073216 120.358887,45.5336914 C119.89697,46.0600612 119.331221,46.471841 118.661621,46.769043 C117.992021,47.066245 117.234705,47.2148438 116.389648,47.2148438 C115.537431,47.2148438 114.776533,47.066245 114.106934,46.769043 C113.437334,46.471841 112.871584,46.0600612 112.409668,45.5336914 C111.947752,45.0073216 111.593263,44.3824906 111.346191,43.6591797 C111.09912,42.9358688 110.975586,42.1516969 110.975586,41.3066406 L110.975586,41.0810547 Z M113.585938,41.3066406 C113.585938,41.8294297 113.639648,42.3235654 113.74707,42.7890625 C113.854493,43.2545596 114.022785,43.6609683 114.251953,44.0083008 C114.481121,44.3556332 114.772947,44.6295563 115.127441,44.8300781 C115.481935,45.0306 115.902667,45.1308594 116.389648,45.1308594 C116.869469,45.1308594 117.286619,45.0306 117.641113,44.8300781 C117.995607,44.6295563 118.285643,44.3556332 118.51123,44.0083008 C118.736818,43.6609683 118.90511,43.2545596 119.016113,42.7890625 C119.127116,42.3235654 119.182617,41.8294297 119.182617,41.3066406 L119.182617,41.0810547 C119.182617,40.5654271 119.127116,40.0766625 119.016113,39.6147461 C118.90511,39.1528297 118.735027,38.7482114 118.505859,38.4008789 C118.276692,38.0535464 117.984865,37.7760427 117.630371,37.5683594 C117.275877,37.360676 116.855146,37.2568359 116.368164,37.2568359 C115.881182,37.2568359 115.464032,37.360676 115.116699,37.5683594 C114.769367,37.7760427 114.481121,38.0535464 114.251953,38.4008789 C114.022785,38.7482114 113.854493,39.1528297 113.74707,39.6147461 C113.639648,40.0766625 113.585938,40.5654271 113.585938,41.0810547 L113.585938,41.3066406 Z M126.766602,47 L124.15625,47 L124.15625,35.3769531 L126.766602,35.3769531 L126.766602,47 Z M123.995117,32.3583984 C123.995117,31.9573548 124.122232,31.6243503 124.376465,31.359375 C124.630698,31.0943997 124.994138,30.9619141 125.466797,30.9619141 C125.939455,30.9619141 126.304686,31.0943997 126.5625,31.359375 C126.820314,31.6243503 126.949219,31.9573548 126.949219,32.3583984 C126.949219,32.7522806 126.820314,33.0799141 126.5625,33.3413086 C126.304686,33.6027031 125.939455,33.7333984 125.466797,33.7333984 C124.994138,33.7333984 124.630698,33.6027031 124.376465,33.3413086 C124.122232,33.0799141 123.995117,32.7522806 123.995117,32.3583984 Z M129.119141,41.1025391 C129.119141,40.2216753 129.224771,39.4160193 129.436035,38.6855469 C129.647299,37.9550745 129.951658,37.3284531 130.349121,36.8056641 C130.746584,36.282875 131.228187,35.8782566 131.793945,35.5917969 C132.359703,35.3053371 132.997067,35.1621094 133.706055,35.1621094 C134.350589,35.1621094 134.918129,35.2731109 135.408691,35.4951172 C135.899254,35.7171235 136.327147,36.0358052 136.692383,36.4511719 L136.692383,30.5 L139.302734,30.5 L139.302734,47 L136.939453,47 L136.810547,45.796875 C136.438149,46.2480491 135.995934,46.5971667 135.483887,46.8442383 C134.97184,47.0913098 134.372074,47.2148438 133.68457,47.2148438 C132.982744,47.2148438 132.350752,47.066245 131.788574,46.769043 C131.226397,46.471841 130.748374,46.0618516 130.354492,45.5390625 C129.96061,45.0162734 129.656251,44.3950231 129.441406,43.675293 C129.226561,42.9555628 129.119141,42.1731813 129.119141,41.328125 L129.119141,41.1025391 Z M131.729492,41.328125 C131.729492,41.8437526 131.777832,42.3289365 131.874512,42.7836914 C131.971192,43.2384463 132.125162,43.6376936 132.336426,43.9814453 C132.54769,44.325197 132.818032,44.5955394 133.147461,44.7924805 C133.47689,44.9894216 133.877927,45.0878906 134.350586,45.0878906 C134.937828,45.0878906 135.419432,44.9571953 135.79541,44.6958008 C136.171389,44.4344062 136.470376,44.0888693 136.692383,43.6591797 L136.692383,38.6962891 C136.470376,38.2665994 136.169598,37.9264335 135.790039,37.6757812 C135.41048,37.425129 134.937828,37.2998047 134.37207,37.2998047 C133.899412,37.2998047 133.496584,37.4000641 133.163574,37.6005859 C132.830565,37.8011078 132.558432,38.0732405 132.347168,38.4169922 C132.135904,38.7607439 131.980144,39.1635719 131.879883,39.6254883 C131.779622,40.0874047 131.729492,40.57975 131.729492,41.1025391 L131.729492,41.328125 Z M154.328125,47 C154.263021,46.8177074 154.212565,46.5947279 154.176758,46.3310547 C154.14095,46.0673815 154.116537,45.7988295 154.103516,45.5253906 C153.927733,45.7532563 153.719402,45.9680979 153.478516,46.1699219 C153.237629,46.3717458 152.967449,46.5475253 152.667969,46.6972656 C152.368488,46.847006 152.039715,46.9674475 151.681641,47.0585938 C151.323566,47.14974 150.9362,47.1953125 150.519531,47.1953125 C150.005206,47.1953125 149.538088,47.1204435 149.118164,46.9707031 C148.69824,46.8209628 148.340171,46.611004 148.043945,46.3408203 C147.74772,46.0706367 147.51823,45.753257 147.355469,45.3886719 C147.192708,45.0240867 147.111328,44.6269553 147.111328,44.1972656 C147.111328,43.6829401 147.222004,43.2190776 147.443359,42.8056641 C147.664715,42.3922505 147.983722,42.0406916 148.400391,41.7509766 C148.817059,41.4612616 149.323239,41.2399096 149.918945,41.0869141 C150.514651,40.9339185 151.18359,40.8574219 151.925781,40.8574219 L154.09375,40.8574219 L154.09375,39.65625 C154.09375,38.9010379 153.861005,38.3069683 153.395508,37.8740234 C152.930011,37.4410786 152.251307,37.2246094 151.359375,37.2246094 C150.949217,37.2246094 150.571616,37.2799474 150.226562,37.390625 C149.881509,37.5013026 149.58366,37.6542959 149.333008,37.8496094 C149.082356,38.0449229 148.887045,38.2711576 148.74707,38.5283203 C148.607096,38.7854831 148.537109,39.0605454 148.537109,39.3535156 L147.365234,39.34375 C147.365234,38.9466126 147.46289,38.5625019 147.658203,38.1914062 C147.853517,37.8203106 148.128579,37.4899103 148.483398,37.2001953 C148.838218,36.9104803 149.264646,36.6777353 149.762695,36.5019531 C150.260745,36.326171 150.812497,36.2382812 151.417969,36.2382812 C151.977867,36.2382812 152.493813,36.3098951 152.96582,36.453125 C153.437828,36.5963549 153.843097,36.8111965 154.181641,37.0976562 C154.520184,37.384116 154.783853,37.7421854 154.972656,38.171875 C155.161459,38.6015646 155.255859,39.1028617 155.255859,39.6757812 L155.255859,44.7929688 C155.255859,44.9752613 155.26237,45.1640615 155.275391,45.359375 C155.288412,45.5546885 155.30957,45.7434887 155.338867,45.9257812 C155.368164,46.1080738 155.402344,46.2822257 155.441406,46.4482422 C155.480469,46.6142586 155.526041,46.759114 155.578125,46.8828125 L155.578125,47 L154.328125,47 Z M150.65625,46.1601562 C151.079429,46.1601562 151.471678,46.1064458 151.833008,45.9990234 C152.194338,45.891601 152.521483,45.7434905 152.814453,45.5546875 C153.107423,45.3658845 153.361327,45.1461601 153.576172,44.8955078 C153.791017,44.6448555 153.963541,44.3730483 154.09375,44.0800781 L154.09375,41.7558594 L152.091797,41.7558594 C151.492836,41.7558594 150.957359,41.8095698 150.485352,41.9169922 C150.013344,42.0244146 149.614585,42.1790354 149.289062,42.3808594 C148.96354,42.5826833 148.714519,42.8284491 148.541992,43.1181641 C148.369465,43.4078791 148.283203,43.7350242 148.283203,44.0996094 C148.283203,44.3860691 148.338541,44.6546211 148.449219,44.9052734 C148.559896,45.1559257 148.717772,45.3740225 148.922852,45.5595703 C149.127931,45.7451181 149.376952,45.891601 149.669922,45.9990234 C149.962892,46.1064458 150.291665,46.1601562 150.65625,46.1601562 Z M166.867188,41.8242188 C166.867188,42.6184936 166.77767,43.3443978 166.598633,44.0019531 C166.419595,44.6595085 166.157554,45.2242815 165.8125,45.6962891 C165.467446,46.1682966 165.045901,46.5361315 164.547852,46.7998047 C164.049802,47.0634779 163.481774,47.1953125 162.84375,47.1953125 C162.088538,47.1953125 161.435875,47.0602227 160.885742,46.7900391 C160.335609,46.5198554 159.881512,46.1471378 159.523438,45.671875 L159.523438,51.0625 L158.361328,51.0625 L158.361328,36.4335938 L159.445312,36.4335938 L159.503906,37.9277344 C159.861981,37.400388 160.31445,36.9869807 160.861328,36.6875 C161.408206,36.3880193 162.059241,36.2382812 162.814453,36.2382812 C163.458988,36.2382812 164.033526,36.3652331 164.538086,36.6191406 C165.042646,36.8730481 165.467446,37.2343727 165.8125,37.703125 C166.157554,38.1718773 166.419595,38.7366503 166.598633,39.3974609 C166.77767,40.0582715 166.867188,40.798824 166.867188,41.6191406 L166.867188,41.8242188 Z M165.695312,41.6191406 C165.695312,41.0071584 165.631837,40.4342475 165.504883,39.9003906 C165.377929,39.3665338 165.185874,38.9042988 164.928711,38.5136719 C164.671548,38.1230449 164.344403,37.8154308 163.947266,37.5908203 C163.550128,37.3662098 163.084638,37.2539062 162.550781,37.2539062 C162.127602,37.2539062 161.753257,37.3092442 161.427734,37.4199219 C161.102212,37.5305995 160.817384,37.67871 160.573242,37.8642578 C160.3291,38.0498056 160.120769,38.2646472 159.948242,38.5087891 C159.775715,38.7529309 159.634115,39.0084622 159.523438,39.2753906 L159.523438,44.34375 C159.647136,44.6106784 159.801757,44.8580718 159.987305,45.0859375 C160.172852,45.3138032 160.390949,45.5107414 160.641602,45.6767578 C160.892254,45.8427743 161.177082,45.9729813 161.496094,46.0673828 C161.815106,46.1617843 162.173175,46.2089844 162.570312,46.2089844 C163.104169,46.2089844 163.566404,46.0966808 163.957031,45.8720703 C164.347658,45.6474598 164.671548,45.3382181 164.928711,44.9443359 C165.185874,44.5504538 165.377929,44.0865912 165.504883,43.5527344 C165.631837,43.0188775 165.695312,42.4427114 165.695312,41.8242188 L165.695312,41.6191406 Z M171.964844,41.6777344 L170.626953,42.9667969 L170.626953,47 L169.455078,47 L169.455078,32 L170.626953,32 L170.626953,41.5996094 L171.730469,40.4082031 L175.773438,36.4335938 L177.248047,36.4335938 L172.765625,40.8867188 L177.638672,47 L176.242188,47 L171.964844,41.6777344 Z" id="Android-apk" fill="#FFFFFF"></path>
                    <path d="M67.1552734,22 L67.1552734,12.046875 L69.9648438,12.046875 C70.621097,12.046875 71.2180963,12.1562489 71.7558594,12.375 C72.2936225,12.5937511 72.7550436,12.9059225 73.1401367,13.3115234 C73.5252298,13.7171244 73.8237294,14.209307 74.0356445,14.7880859 C74.2475597,15.3668649 74.3535156,16.0162724 74.3535156,16.7363281 L74.3535156,17.3242188 C74.3535156,18.0442744 74.2475597,18.693682 74.0356445,19.2724609 C73.8237294,19.8512399 73.5229512,20.3422831 73.1333008,20.7456055 C72.7436504,21.1489278 72.2708361,21.4588205 71.7148438,21.675293 C71.1588514,21.8917654 70.5367873,22 69.8486328,22 L67.1552734,22 Z M68.4677734,13.1269531 L68.4677734,20.9267578 L69.8486328,20.9267578 C70.3772813,20.9267578 70.8421204,20.8413094 71.2431641,20.6704102 C71.6442077,20.4995109 71.9791653,20.2568375 72.2480469,19.9423828 C72.5169284,19.6279281 72.7185866,19.2496767 72.8530273,18.8076172 C72.9874681,18.3655577 73.0546875,17.8710965 73.0546875,17.3242188 L73.0546875,16.7158203 C73.0546875,16.146156 72.9863288,15.6391624 72.8496094,15.1948242 C72.7128899,14.7504861 72.5123711,14.3745133 72.2480469,14.0668945 C71.9837226,13.7592758 71.6601582,13.5257169 71.2773438,13.3662109 C70.8945293,13.2067049 70.4570337,13.1269531 69.9648438,13.1269531 L68.4677734,13.1269531 Z M75.8027344,18.2333984 C75.8027344,17.6956353 75.8813469,17.1977562 76.0385742,16.7397461 C76.1958016,16.281736 76.4191066,15.8841163 76.7084961,15.546875 C76.9978856,15.2096337 77.3499328,14.9453135 77.7646484,14.7539062 C78.1793641,14.562499 78.6442032,14.4667969 79.1591797,14.4667969 C79.6832708,14.4667969 80.1538065,14.562499 80.5708008,14.7539062 C80.9877951,14.9453135 81.3421209,15.2096337 81.6337891,15.546875 C81.9254572,15.8841163 82.1487622,16.281736 82.3037109,16.7397461 C82.4586596,17.1977562 82.5361328,17.6956353 82.5361328,18.2333984 L82.5361328,18.3837891 C82.5361328,18.9215522 82.4586596,19.4194313 82.3037109,19.8774414 C82.1487622,20.3354515 81.9254572,20.7319319 81.6337891,21.0668945 C81.3421209,21.4018571 80.9889344,21.6638988 80.5742188,21.8530273 C80.1595031,22.0421559 79.6923854,22.1367188 79.1728516,22.1367188 C78.6533177,22.1367188 78.1862,22.0421559 77.7714844,21.8530273 C77.3567688,21.6638988 77.0035822,21.4018571 76.7119141,21.0668945 C76.4202459,20.7319319 76.1958016,20.3354515 76.0385742,19.8774414 C75.8813469,19.4194313 75.8027344,18.9215522 75.8027344,18.3837891 L75.8027344,18.2333984 Z M77.0742188,18.3837891 C77.0742188,18.7529315 77.1175126,19.1015609 77.2041016,19.4296875 C77.2906905,19.7578141 77.4217114,20.04606 77.597168,20.2944336 C77.7726246,20.5428072 77.9913724,20.7399081 78.253418,20.8857422 C78.5154635,21.0315763 78.8219383,21.1044922 79.1728516,21.1044922 C79.5192075,21.1044922 79.8245429,21.0315763 80.0888672,20.8857422 C80.3531914,20.7399081 80.5719392,20.5428072 80.7451172,20.2944336 C80.9182951,20.04606 81.049316,19.7578141 81.1381836,19.4296875 C81.2270512,19.1015609 81.2714844,18.7529315 81.2714844,18.3837891 L81.2714844,18.2333984 C81.2714844,17.8688133 81.2270512,17.5213233 81.1381836,17.190918 C81.049316,16.8605127 80.9171558,16.5711275 80.7416992,16.3227539 C80.5662426,16.0743803 80.3463555,15.8761401 80.0820312,15.7280273 C79.817707,15.5799146 79.5100929,15.5058594 79.1591797,15.5058594 C78.8128238,15.5058594 78.5097669,15.5799146 78.25,15.7280273 C77.9902331,15.8761401 77.7726246,16.0743803 77.597168,16.3227539 C77.4217114,16.5711275 77.2906905,16.8605127 77.2041016,17.190918 C77.1175126,17.5213233 77.0742188,17.8688133 77.0742188,18.2333984 L77.0742188,18.3837891 Z M90.6708984,20.2568359 L92.0927734,14.6035156 L93.3574219,14.6035156 L91.2041016,22 L90.1787109,22 L88.3808594,16.3945312 L86.6308594,22 L85.6054688,22 L83.4589844,14.6035156 L84.7167969,14.6035156 L86.1728516,20.140625 L87.8955078,14.6035156 L88.9140625,14.6035156 L90.6708984,20.2568359 Z M95.8388672,14.6035156 L95.8798828,15.5332031 C96.1442071,15.2005192 96.4632143,14.9396168 96.8369141,14.7504883 C97.2106138,14.5613597 97.6298805,14.4667969 98.0947266,14.4667969 C98.4547544,14.4667969 98.7805975,14.5157873 99.0722656,14.6137695 C99.3639338,14.7117518 99.6123037,14.8689768 99.8173828,15.0854492 C100.022462,15.3019217 100.180826,15.5799137 100.29248,15.9194336 C100.404135,16.2589535 100.459961,16.670245 100.459961,17.1533203 L100.459961,22 L99.1953125,22 L99.1953125,17.1396484 C99.1953125,16.8525376 99.1634118,16.6075856 99.0996094,16.4047852 C99.035807,16.2019847 98.9412441,16.0367845 98.815918,15.9091797 C98.6905918,15.7815749 98.5356455,15.6881513 98.3510742,15.6289062 C98.166503,15.5696612 97.9534517,15.5400391 97.7119141,15.5400391 C97.3017558,15.5400391 96.9417333,15.649413 96.6318359,15.8681641 C96.3219386,16.0869152 96.0804045,16.3740217 95.9072266,16.7294922 L95.9072266,22 L94.6425781,22 L94.6425781,14.6035156 L95.8388672,14.6035156 Z M103.741211,22 L102.476562,22 L102.476562,11.5 L103.741211,11.5 L103.741211,22 Z M105.429688,18.2333984 C105.429688,17.6956353 105.5083,17.1977562 105.665527,16.7397461 C105.822755,16.281736 106.04606,15.8841163 106.335449,15.546875 C106.624839,15.2096337 106.976886,14.9453135 107.391602,14.7539062 C107.806317,14.562499 108.271156,14.4667969 108.786133,14.4667969 C109.310224,14.4667969 109.78076,14.562499 110.197754,14.7539062 C110.614748,14.9453135 110.969074,15.2096337 111.260742,15.546875 C111.55241,15.8841163 111.775715,16.281736 111.930664,16.7397461 C112.085613,17.1977562 112.163086,17.6956353 112.163086,18.2333984 L112.163086,18.3837891 C112.163086,18.9215522 112.085613,19.4194313 111.930664,19.8774414 C111.775715,20.3354515 111.55241,20.7319319 111.260742,21.0668945 C110.969074,21.4018571 110.615887,21.6638988 110.201172,21.8530273 C109.786456,22.0421559 109.319339,22.1367188 108.799805,22.1367188 C108.280271,22.1367188 107.813153,22.0421559 107.398438,21.8530273 C106.983722,21.6638988 106.630535,21.4018571 106.338867,21.0668945 C106.047199,20.7319319 105.822755,20.3354515 105.665527,19.8774414 C105.5083,19.4194313 105.429688,18.9215522 105.429688,18.3837891 L105.429688,18.2333984 Z M106.701172,18.3837891 C106.701172,18.7529315 106.744466,19.1015609 106.831055,19.4296875 C106.917644,19.7578141 107.048664,20.04606 107.224121,20.2944336 C107.399578,20.5428072 107.618326,20.7399081 107.880371,20.8857422 C108.142417,21.0315763 108.448891,21.1044922 108.799805,21.1044922 C109.146161,21.1044922 109.451496,21.0315763 109.71582,20.8857422 C109.980145,20.7399081 110.198892,20.5428072 110.37207,20.2944336 C110.545248,20.04606 110.676269,19.7578141 110.765137,19.4296875 C110.854004,19.1015609 110.898438,18.7529315 110.898438,18.3837891 L110.898438,18.2333984 C110.898438,17.8688133 110.854004,17.5213233 110.765137,17.190918 C110.676269,16.8605127 110.544109,16.5711275 110.368652,16.3227539 C110.193196,16.0743803 109.973309,15.8761401 109.708984,15.7280273 C109.44466,15.5799146 109.137046,15.5058594 108.786133,15.5058594 C108.439777,15.5058594 108.13672,15.5799146 107.876953,15.7280273 C107.617186,15.8761401 107.399578,16.0743803 107.224121,16.3227539 C107.048664,16.5711275 106.917644,16.8605127 106.831055,17.190918 C106.744466,17.5213233 106.701172,17.8688133 106.701172,18.2333984 L106.701172,18.3837891 Z M118.31543,22 C118.269857,21.9088537 118.233399,21.7937832 118.206055,21.6547852 C118.178711,21.5157871 118.155925,21.3710945 118.137695,21.2207031 C118.019205,21.3437506 117.885906,21.4610997 117.737793,21.5727539 C117.58968,21.6844081 117.427898,21.7823889 117.252441,21.8666992 C117.076985,21.9510095 116.88672,22.0170896 116.681641,22.0649414 C116.476561,22.1127932 116.260092,22.1367188 116.032227,22.1367188 C115.653969,22.1367188 115.311037,22.0797532 115.003418,21.9658203 C114.695799,21.8518875 114.433758,21.6969411 114.217285,21.5009766 C114.000813,21.305012 113.833334,21.0737318 113.714844,20.8071289 C113.596354,20.540526 113.537109,20.2545588 113.537109,19.9492188 C113.537109,19.5527324 113.614583,19.2029638 113.769531,18.8999023 C113.92448,18.5968409 114.146646,18.3427745 114.436035,18.1376953 C114.725425,17.9326162 115.075193,17.7776698 115.485352,17.6728516 C115.89551,17.5680333 116.353513,17.515625 116.859375,17.515625 L118.117188,17.515625 L118.117188,16.9345703 C118.117188,16.4925108 117.985027,16.1404635 117.720703,15.878418 C117.456379,15.6163724 117.066734,15.4853516 116.551758,15.4853516 C116.314777,15.4853516 116.098308,15.5172523 115.902344,15.5810547 C115.706379,15.6448571 115.5389,15.7303055 115.399902,15.8374023 C115.260904,15.9444992 115.15267,16.0686842 115.075195,16.2099609 C114.997721,16.3512377 114.958984,16.4993482 114.958984,16.6542969 L113.6875,16.6542969 C113.6875,16.3899726 113.756998,16.127931 113.895996,15.8681641 C114.034994,15.6083971 114.232095,15.3748383 114.487305,15.1674805 C114.742514,14.9601227 115.051268,14.7915046 115.413574,14.6616211 C115.775881,14.5317376 116.180336,14.4667969 116.626953,14.4667969 C117.027997,14.4667969 117.398273,14.5180659 117.737793,14.6206055 C118.077313,14.723145 118.367837,14.8780914 118.609375,15.0854492 C118.850913,15.292807 119.040038,15.5514307 119.176758,15.8613281 C119.313477,16.1712255 119.381836,16.5335266 119.381836,16.9482422 L119.381836,20.3867188 C119.381836,20.637371 119.403483,20.900552 119.446777,21.1762695 C119.490072,21.4519871 119.555013,21.6901032 119.641602,21.890625 L119.641602,22 L118.31543,22 Z M116.216797,21.0361328 C116.444663,21.0361328 116.658853,21.0042321 116.859375,20.9404297 C117.059897,20.8766273 117.242187,20.7934575 117.40625,20.690918 C117.570313,20.5883784 117.712727,20.4710293 117.833496,20.3388672 C117.954265,20.2067051 118.048828,20.0699877 118.117188,19.9287109 L118.117188,18.4111328 L117.064453,18.4111328 C116.33984,18.4111328 115.781577,18.5239247 115.389648,18.7495117 C114.997719,18.9750988 114.801758,19.3157529 114.801758,19.7714844 C114.801758,19.9492196 114.83138,20.1155591 114.890625,20.2705078 C114.94987,20.4254565 115.039876,20.558756 115.160645,20.6704102 C115.281413,20.7820644 115.429524,20.8709307 115.60498,20.9370117 C115.780437,21.0030928 115.984374,21.0361328 116.216797,21.0361328 Z M121.056641,18.2402344 C121.056641,17.6751274 121.126139,17.1612979 121.265137,16.6987305 C121.404135,16.2361631 121.601236,15.8396826 121.856445,15.5092773 C122.111655,15.178872 122.41813,14.922527 122.775879,14.7402344 C123.133628,14.5579418 123.533526,14.4667969 123.975586,14.4667969 C124.42676,14.4667969 124.820962,14.5431307 125.158203,14.6958008 C125.495444,14.8484708 125.787108,15.0683579 126.033203,15.3554688 L126.033203,11.5 L127.297852,11.5 L127.297852,22 L126.135742,22 L126.074219,21.2070312 C125.828124,21.507814 125.531903,21.7379549 125.185547,21.8974609 C124.839191,22.0569669 124.431317,22.1367188 123.961914,22.1367188 C123.528969,22.1367188 123.133628,22.0432952 122.775879,21.8564453 C122.41813,21.6695954 122.111655,21.4086931 121.856445,21.0737305 C121.601236,20.7387679 121.404135,20.3422874 121.265137,19.8842773 C121.126139,19.4262672 121.056641,18.9261095 121.056641,18.3837891 L121.056641,18.2402344 Z M122.321289,18.3837891 C122.321289,18.7529315 122.358886,19.1004215 122.434082,19.4262695 C122.509278,19.7521175 122.626627,20.0358061 122.786133,20.2773438 C122.945639,20.5188814 123.148436,20.7102858 123.394531,20.8515625 C123.640626,20.9928392 123.934569,21.0634766 124.276367,21.0634766 C124.499676,21.0634766 124.700194,21.0372724 124.87793,20.9848633 C125.055665,20.9324542 125.216308,20.8583989 125.359863,20.7626953 C125.503419,20.6669917 125.631022,20.5530606 125.742676,20.4208984 C125.85433,20.2887363 125.951171,20.1429044 126.033203,19.9833984 L126.033203,16.5859375 C125.951171,16.4355461 125.855469,16.2965501 125.746094,16.1689453 C125.636718,16.0413405 125.510255,15.9308273 125.366699,15.8374023 C125.223144,15.7439774 125.062501,15.6710615 124.884766,15.6186523 C124.70703,15.5662432 124.50879,15.5400391 124.290039,15.5400391 C123.943683,15.5400391 123.646323,15.6118157 123.397949,15.7553711 C123.149576,15.8989265 122.945639,16.0937488 122.786133,16.3398438 C122.626627,16.5859387 122.509278,16.8719059 122.434082,17.1977539 C122.358886,17.5236019 122.321289,17.8710919 122.321289,18.2402344 L122.321289,18.3837891 Z M134.441406,12.8125 L134.441406,14.6035156 L135.822266,14.6035156 L135.822266,15.5810547 L134.441406,15.5810547 L134.441406,20.1679688 C134.441406,20.359376 134.464192,20.513183 134.509766,20.6293945 C134.555339,20.745606 134.615722,20.8356117 134.690918,20.8994141 C134.766114,20.9632165 134.852701,21.005371 134.950684,21.0258789 C135.048666,21.0463868 135.150065,21.0566406 135.254883,21.0566406 C135.359701,21.0566406 135.470214,21.0463868 135.586426,21.0258789 C135.702637,21.005371 135.792643,20.9882813 135.856445,20.9746094 L135.856445,22 C135.756184,22.0273439 135.626303,22.056966 135.466797,22.0888672 C135.307291,22.1207684 135.113608,22.1367188 134.885742,22.1367188 C134.653319,22.1367188 134.433432,22.1036787 134.226074,22.0375977 C134.018716,21.9715166 133.837566,21.8610034 133.682617,21.7060547 C133.527668,21.551106 133.404623,21.3471692 133.313477,21.0942383 C133.22233,20.8413073 133.176758,20.5302753 133.176758,20.1611328 L133.176758,15.5810547 L131.830078,15.5810547 L131.830078,14.6035156 L133.176758,14.6035156 L133.176758,12.8125 L134.441406,12.8125 Z M138.563477,15.4990234 C138.827801,15.1754541 139.144529,14.922527 139.513672,14.7402344 C139.882814,14.5579418 140.295245,14.4667969 140.750977,14.4667969 C141.111004,14.4667969 141.436847,14.5157873 141.728516,14.6137695 C142.020184,14.7117518 142.268554,14.8689768 142.473633,15.0854492 C142.678712,15.3019217 142.837076,15.5799137 142.94873,15.9194336 C143.060385,16.2589535 143.116211,16.670245 143.116211,17.1533203 L143.116211,22 L141.851562,22 L141.851562,17.1396484 C141.851562,16.8525376 141.819662,16.6075856 141.755859,16.4047852 C141.692057,16.2019847 141.597494,16.0367845 141.472168,15.9091797 C141.346842,15.7815749 141.191895,15.6881513 141.007324,15.6289062 C140.822753,15.5696612 140.609702,15.5400391 140.368164,15.5400391 C139.958006,15.5400391 139.597983,15.649413 139.288086,15.8681641 C138.978189,16.0869152 138.736655,16.3740217 138.563477,16.7294922 L138.563477,22 L137.298828,22 L137.298828,11.5 L138.563477,11.5 L138.563477,15.4990234 Z M148.079102,22.1367188 C147.564125,22.1367188 147.098147,22.0478525 146.681152,21.8701172 C146.264158,21.6923819 145.907554,21.4451513 145.611328,21.128418 C145.315103,20.8116846 145.08724,20.4345725 144.927734,19.9970703 C144.768228,19.5595681 144.688477,19.0810573 144.688477,18.5615234 L144.688477,18.2744141 C144.688477,17.6728486 144.778482,17.1350935 144.958496,16.6611328 C145.13851,16.1871721 145.378905,15.7884131 145.679688,15.4648438 C145.98047,15.1412744 146.324542,14.8940438 146.711914,14.7231445 C147.099286,14.5522452 147.502602,14.4667969 147.921875,14.4667969 C148.450523,14.4667969 148.906248,14.5590811 149.289062,14.7436523 C149.671877,14.9282236 149.987466,15.18229 150.23584,15.5058594 C150.484213,15.8294287 150.667643,16.2122374 150.786133,16.6542969 C150.904623,17.0963564 150.963867,17.5771458 150.963867,18.0966797 L150.963867,18.6640625 L145.953125,18.6640625 C145.96224,19.0058611 146.018066,19.3248683 146.120605,19.6210938 C146.223145,19.9173192 146.368977,20.1748036 146.558105,20.3935547 C146.747234,20.6123058 146.975096,20.7854811 147.241699,20.9130859 C147.508302,21.0406907 147.81022,21.1044922 148.147461,21.1044922 C148.594078,21.1044922 148.972329,21.0133473 149.282227,20.8310547 C149.592124,20.6487621 149.86328,20.4072281 150.095703,20.1064453 L150.868164,20.7080078 C150.749674,20.8903004 150.606121,21.0668937 150.4375,21.237793 C150.268879,21.4086923 150.071778,21.56136 149.846191,21.6958008 C149.620604,21.8302416 149.361981,21.9373368 149.070312,22.0170898 C148.778644,22.0968428 148.448244,22.1367188 148.079102,22.1367188 Z M147.921875,15.5058594 C147.666665,15.5058594 147.431967,15.5525711 147.217773,15.6459961 C147.00358,15.739421 146.812175,15.8749991 146.643555,16.0527344 C146.474934,16.2304696 146.334799,16.4514961 146.223145,16.7158203 C146.11149,16.9801446 146.035156,17.2832014 145.994141,17.625 L149.699219,17.625 L149.699219,17.5292969 C149.685547,17.2832019 149.645671,17.0393892 149.57959,16.7978516 C149.513509,16.5563139 149.410971,16.3398447 149.271973,16.1484375 C149.132975,15.9570303 148.954103,15.8020839 148.735352,15.6835938 C148.5166,15.5651036 148.245444,15.5058594 147.921875,15.5058594 Z" id="Download-the" fill="#FFFFFF"></path>
                </g>
                <g id="btn_ios_en" sketch:type="MSShapeGroup">
                    <g id="Group">
                        <path d="M192.884444,60 L7.00592593,60 C3.1437037,60 0,56.808 0,52.9005 L0,7.089 C0,3.18 3.1437037,0 7.00592593,0 L192.884444,0 C196.745185,0 200,3.18 200,7.089 L200,52.9005 C200,56.808 196.745185,60 192.884444,60 L192.884444,60 L192.884444,60 Z" id="Shape" fill="#000000"></path>
                        <g transform="translate(19.259259, 9.000000)" id="Shape" fill="#FFFFFF">
                            <path d="M25.3748148,20.676 C25.3318519,15.8415 29.2844444,13.4895 29.4651852,13.38 C27.2266667,10.0755 23.757037,9.624 22.5377778,9.588 C19.6237037,9.2775 16.797037,11.3535 15.3125926,11.3535 C13.7985185,11.3535 11.5125926,9.618 9.04888889,9.669 C5.87851852,9.7185 2.91259259,11.577 1.28592593,14.463 C-2.07111111,20.3475 0.432592593,28.995 3.64888889,33.7515 C5.25777778,36.081 7.13777778,38.682 9.59851852,38.5905 C12.0059259,38.49 12.9051852,37.0365 15.8103704,37.0365 C18.6888889,37.0365 19.5333333,38.5905 22.042963,38.532 C24.6266667,38.49 26.2533333,36.192 27.8059259,33.8415 C29.6651852,31.1715 30.4118519,28.542 30.4414815,28.407 C30.3807407,28.386 25.4237037,26.4705 25.3748148,20.676 L25.3748148,20.676 Z"></path>
                            <path d="M20.6340741,6.459 C21.9288889,4.8195 22.8148148,2.589 22.5688889,0.3255 C20.6948148,0.4095 18.3511111,1.638 17.0014815,3.2415 C15.8074074,4.6545 14.7407407,6.9705 15.0162963,9.1485 C17.1214815,9.3075 19.282963,8.073 20.6340741,6.459 L20.6340741,6.459 Z"></path>
                        </g>
                        <g transform="translate(62.222222, 27.000000)" id="Shape" fill="#FFFFFF">
                            <path d="M17.2518519,20.256 L13.8874074,20.256 L12.0444444,14.3925 L5.63851852,14.3925 L3.88296296,20.256 L0.607407407,20.256 L6.95407407,0.294 L10.8740741,0.294 L17.2518519,20.256 L17.2518519,20.256 Z M11.4888889,11.9325 L9.82222222,6.72 C9.64592593,6.1875 9.31555556,4.9335 8.82814815,2.9595 L8.76888889,2.9595 C8.57481481,3.8085 8.26222222,5.0625 7.83259259,6.72 L6.19555556,11.9325 L11.4888889,11.9325 L11.4888889,11.9325 Z"></path>
                            <path d="M33.5733333,12.882 C33.5733333,15.33 32.92,17.265 31.6133333,18.6855 C30.442963,19.95 28.9896296,20.5815 27.2548148,20.5815 C25.3822222,20.5815 24.037037,19.9005 23.2177778,18.5385 L23.1585185,18.5385 L23.1585185,26.121 L20,26.121 L20,10.6005 C20,9.0615 19.96,7.482 19.882963,5.862 L22.6607407,5.862 L22.837037,8.1435 L22.8962963,8.1435 C23.9496296,6.4245 25.5481481,5.5665 27.6933333,5.5665 C29.3703704,5.5665 30.7703704,6.237 31.8903704,7.5795 C33.0133333,8.9235 33.5733333,10.6905 33.5733333,12.882 L33.5733333,12.882 Z M30.3555556,12.999 C30.3555556,11.598 30.0444444,10.443 29.4192593,9.534 C28.7362963,8.586 27.8192593,8.112 26.6696296,8.112 C25.8903704,8.112 25.1822222,8.376 24.5496296,8.8965 C23.9155556,9.4215 23.5007407,10.107 23.3066667,10.956 C23.2088889,11.352 23.16,11.676 23.16,11.931 L23.16,14.331 C23.16,15.378 23.477037,16.2615 24.1111111,16.983 C24.7451852,17.7045 25.5688889,18.0645 26.5822222,18.0645 C27.7718519,18.0645 28.6977778,17.5995 29.36,16.6725 C30.0237037,15.744 30.3555556,14.52 30.3555556,12.999 L30.3555556,12.999 Z"></path>
                            <path d="M49.9244444,12.882 C49.9244444,15.33 49.2711111,17.265 47.962963,18.6855 C46.7940741,19.95 45.3407407,20.5815 43.6059259,20.5815 C41.7333333,20.5815 40.3881481,19.9005 39.5703704,18.5385 L39.5111111,18.5385 L39.5111111,26.121 L36.3525926,26.121 L36.3525926,10.6005 C36.3525926,9.0615 36.3125926,7.482 36.2355556,5.862 L39.0133333,5.862 L39.1896296,8.1435 L39.2488889,8.1435 C40.3007407,6.4245 41.8992593,5.5665 44.0459259,5.5665 C45.7214815,5.5665 47.1214815,6.237 48.2444444,7.5795 C49.362963,8.9235 49.9244444,10.6905 49.9244444,12.882 L49.9244444,12.882 Z M46.7066667,12.999 C46.7066667,11.598 46.3940741,10.443 45.7688889,9.534 C45.0859259,8.586 44.1718519,8.112 43.0207407,8.112 C42.24,8.112 41.5333333,8.376 40.8992593,8.8965 C40.2651852,9.4215 39.8518519,10.107 39.6577778,10.956 C39.5614815,11.352 39.5111111,11.676 39.5111111,11.931 L39.5111111,14.331 C39.5111111,15.378 39.8281481,16.2615 40.4592593,16.983 C41.0933333,17.703 41.917037,18.0645 42.9333333,18.0645 C44.122963,18.0645 45.0488889,17.5995 45.7111111,16.6725 C46.3748148,15.744 46.7066667,14.52 46.7066667,12.999 L46.7066667,12.999 Z"></path>
                            <path d="M68.2059259,14.658 C68.2059259,16.356 67.6237037,17.7375 66.4548148,18.804 C65.1703704,19.9695 63.3822222,20.5515 61.0844444,20.5515 C58.962963,20.5515 57.2622222,20.1375 55.9748148,19.308 L56.7066667,16.6425 C58.0933333,17.4915 59.6148148,17.9175 61.2725926,17.9175 C62.4622222,17.9175 63.3881481,17.6445 64.0533333,17.1015 C64.7155556,16.5585 65.0459259,15.8295 65.0459259,14.9205 C65.0459259,14.1105 64.7733333,13.428 64.2266667,12.8745 C63.682963,12.321 62.7748148,11.8065 61.5066667,11.331 C58.0548148,10.0275 56.3303704,8.118 56.3303704,5.607 C56.3303704,3.966 56.9348148,2.6205 58.1451852,1.5735 C59.3511111,0.525 60.96,0.0015 62.9718519,0.0015 C64.7659259,0.0015 66.2562963,0.318 67.4459259,0.9495 L66.6562963,3.5565 C65.5451852,2.9445 64.2888889,2.6385 62.882963,2.6385 C61.7718519,2.6385 60.9037037,2.916 60.2814815,3.468 C59.7555556,3.9615 59.4918519,4.563 59.4918519,5.2755 C59.4918519,6.0645 59.7925926,6.717 60.397037,7.23 C60.922963,7.704 61.8785185,8.217 63.2651852,8.7705 C64.9614815,9.462 66.2074074,10.2705 67.0088889,11.1975 C67.8074074,12.1215 68.2059259,13.278 68.2059259,14.658 L68.2059259,14.658 Z"></path>
                            <path d="M78.6488889,8.262 L75.1674074,8.262 L75.1674074,15.2505 C75.1674074,17.028 75.7807407,17.916 77.0103704,17.916 C77.5748148,17.916 78.042963,17.8665 78.4133333,17.7675 L78.5007407,20.196 C77.8785185,20.4315 77.0592593,20.55 76.0444444,20.55 C74.797037,20.55 73.8222222,20.1645 73.1185185,19.395 C72.4177778,18.624 72.0651852,17.331 72.0651852,15.5145 L72.0651852,8.259 L69.9911111,8.259 L69.9911111,5.859 L72.0651852,5.859 L72.0651852,3.2235 L75.1674074,2.2755 L75.1674074,5.859 L78.6488889,5.859 L78.6488889,8.262 L78.6488889,8.262 Z"></path>
                            <path d="M94.357037,12.9405 C94.357037,15.153 93.7318519,16.9695 92.4844444,18.39 C91.1762963,19.8525 89.44,20.5815 87.2755556,20.5815 C85.1896296,20.5815 83.5288889,19.881 82.2903704,18.48 C81.0518519,17.079 80.4325926,15.3105 80.4325926,13.179 C80.4325926,10.9485 81.0696296,9.1215 82.3481481,7.701 C83.6237037,6.279 85.3451852,5.568 87.5096296,5.568 C89.5955556,5.568 91.2740741,6.2685 92.5407407,7.671 C93.7525926,9.0315 94.357037,10.788 94.357037,12.9405 L94.357037,12.9405 Z M91.08,13.044 C91.08,11.7165 90.8,10.578 90.2325926,9.6285 C89.5703704,8.4795 88.6237037,7.9065 87.397037,7.9065 C86.1274074,7.9065 85.162963,8.481 84.5007407,9.6285 C83.9333333,10.5795 83.6533333,11.736 83.6533333,13.104 C83.6533333,14.4315 83.9333333,15.57 84.5007407,16.518 C85.1837037,17.667 86.1377778,18.24 87.3688889,18.24 C88.5748148,18.24 89.5214815,17.655 90.2044444,16.488 C90.7866667,15.5205 91.08,14.37 91.08,13.044 L91.08,13.044 Z"></path>
                            <path d="M104.623704,8.6745 C104.311111,8.616 103.977778,8.586 103.628148,8.586 C102.517037,8.586 101.657778,9.0105 101.053333,9.861 C100.527407,10.611 100.263704,11.559 100.263704,12.7035 L100.263704,20.256 L97.1066667,20.256 L97.1362963,10.395 C97.1362963,8.736 97.0962963,7.2255 97.0177778,5.8635 L99.7688889,5.8635 L99.8844444,8.6175 L99.9718519,8.6175 C100.305185,7.671 100.831111,6.909 101.551111,6.3375 C102.254815,5.823 103.014815,5.5665 103.834074,5.5665 C104.125926,5.5665 104.38963,5.5875 104.623704,5.625 L104.623704,8.6745 L104.623704,8.6745 Z"></path>
                            <path d="M118.74963,12.378 C118.74963,12.951 118.712593,13.434 118.634074,13.8285 L109.158519,13.8285 C109.195556,15.2505 109.653333,16.338 110.533333,17.088 C111.331852,17.7585 112.364444,18.0945 113.632593,18.0945 C115.035556,18.0945 116.315556,17.868 117.466667,17.4135 L117.961481,19.6335 C116.616296,20.2275 115.028148,20.523 113.195556,20.523 C110.991111,20.523 109.260741,19.866 108.001481,18.5535 C106.745185,17.241 106.115556,15.4785 106.115556,13.2675 C106.115556,11.097 106.700741,9.2895 107.872593,7.848 C109.099259,6.309 110.757037,5.5395 112.842963,5.5395 C114.891852,5.5395 116.442963,6.309 117.496296,7.848 C118.33037,9.0705 118.74963,10.5825 118.74963,12.378 L118.74963,12.378 Z M115.737778,11.5485 C115.758519,10.6005 115.552593,9.7815 115.124444,9.09 C114.577778,8.2005 113.737778,7.7565 112.607407,7.7565 C111.574815,7.7565 110.734815,8.19 110.093333,9.06 C109.567407,9.7515 109.254815,10.581 109.158519,11.547 L115.737778,11.547 L115.737778,11.5485 Z"></path>
                        </g>
                        <g transform="translate(65.185185, 10.500000)" id="Shape" fill="#FFFFFF">
                            <path d="M7.48148148,4.5135 C7.48148148,6.279 6.95851852,7.608 5.91407407,8.5005 C4.94666667,9.324 3.57185185,9.7365 1.79111111,9.7365 C0.908148148,9.7365 0.152592593,9.6975 -0.48,9.6195 L-0.48,-0.027 C0.345185185,-0.162 1.23407407,-0.231 2.19407407,-0.231 C3.89037037,-0.231 5.16888889,0.1425 6.03111111,0.8895 C6.99703704,1.734 7.48148148,2.9415 7.48148148,4.5135 L7.48148148,4.5135 Z M5.84444444,4.557 C5.84444444,3.4125 5.54518519,2.535 4.94666667,1.923 C4.34814815,1.3125 3.47407407,1.0065 2.32296296,1.0065 C1.83407407,1.0065 1.41777778,1.0395 1.07259259,1.1085 L1.07259259,8.442 C1.2637037,8.472 1.61333333,8.4855 2.12148148,8.4855 C3.30962963,8.4855 4.22666667,8.151 4.87259259,7.482 C5.51851852,6.813 5.84444444,5.838 5.84444444,4.557 L5.84444444,4.557 Z"></path>
                            <path d="M16.1614815,6.0555 C16.1614815,7.143 15.8548148,8.034 15.2414815,8.733 C14.5985185,9.4515 13.7466667,9.81 12.682963,9.81 C11.6577778,9.81 10.8414815,9.4665 10.2325926,8.7765 C9.62518519,8.088 9.32148148,7.2195 9.32148148,6.1725 C9.32148148,5.0775 9.63407407,4.179 10.2622222,3.4815 C10.8903704,2.784 11.7348148,2.4345 12.7985185,2.4345 C13.8237037,2.4345 14.6474074,2.778 15.2711111,3.4665 C15.8637037,4.1355 16.1614815,4.9995 16.1614815,6.0555 L16.1614815,6.0555 Z M14.5511111,6.1065 C14.5511111,5.454 14.4118519,4.8945 14.1348148,4.428 C13.8088889,3.864 13.3451852,3.582 12.7422222,3.582 C12.1185185,3.582 11.6444444,3.864 11.3185185,4.428 C11.04,4.8945 10.9022222,5.463 10.9022222,6.135 C10.9022222,6.7875 11.0414815,7.347 11.3185185,7.8135 C11.6548148,8.3775 12.122963,8.6595 12.7274074,8.6595 C13.32,8.6595 13.7851852,8.373 14.12,7.7985 C14.4074074,7.323 14.5511111,6.759 14.5511111,6.1065 L14.5511111,6.1065 Z"></path>
                            <path d="M27.8,2.5785 L25.6148148,9.6495 L24.1925926,9.6495 L23.2874074,6.579 C23.0577778,5.8125 22.8711111,5.0505 22.7259259,4.2945 L22.6977778,4.2945 C22.562963,5.0715 22.3762963,5.832 22.1362963,6.579 L21.1748148,9.6495 L19.7362963,9.6495 L17.6814815,2.5785 L19.277037,2.5785 L20.0666667,5.94 C20.2577778,6.735 20.4148148,7.4925 20.5407407,8.2095 L20.5688889,8.2095 C20.6844444,7.6185 20.8755556,6.8655 21.1451852,5.955 L22.1362963,2.58 L23.4014815,2.58 L24.3511111,5.883 C24.5807407,6.6885 24.7674074,7.464 24.9111111,8.211 L24.9540741,8.211 C25.0592593,7.4835 25.2177778,6.708 25.4281481,5.883 L26.2755556,2.58 L27.8,2.58 L27.8,2.5785 Z"></path>
                            <path d="M35.8488889,9.6495 L34.2962963,9.6495 L34.2962963,5.5995 C34.2962963,4.3515 33.8281481,3.7275 32.8888889,3.7275 C32.4281481,3.7275 32.0562963,3.8985 31.7674074,4.242 C31.4814815,4.5855 31.3362963,4.9905 31.3362963,5.454 L31.3362963,9.648 L29.7837037,9.648 L29.7837037,4.599 C29.7837037,3.978 29.7644444,3.3045 29.7274074,2.5755 L31.0918519,2.5755 L31.1644444,3.681 L31.2074074,3.681 C31.3881481,3.3375 31.6577778,3.054 32.0118519,2.8275 C32.4325926,2.5635 32.9037037,2.43 33.4192593,2.43 C34.0711111,2.43 34.6133333,2.643 35.0444444,3.0705 C35.5807407,3.594 35.8488889,4.3755 35.8488889,5.4135 L35.8488889,9.6495 L35.8488889,9.6495 Z"></path>
                            <path d="M40.1303704,9.6495 L38.5792593,9.6495 L38.5792593,-0.666 L40.1303704,-0.666 L40.1303704,9.6495 L40.1303704,9.6495 Z"></path>
                            <path d="M49.2711111,6.0555 C49.2711111,7.143 48.9644444,8.034 48.3511111,8.733 C47.7081481,9.4515 46.8548148,9.81 45.7925926,9.81 C44.7659259,9.81 43.9496296,9.4665 43.3422222,8.7765 C42.7348148,8.088 42.4311111,7.2195 42.4311111,6.1725 C42.4311111,5.0775 42.7437037,4.179 43.3718519,3.4815 C44,2.784 44.8444444,2.4345 45.9066667,2.4345 C46.9333333,2.4345 47.7555556,2.778 48.3807407,3.4665 C48.9733333,4.1355 49.2711111,4.9995 49.2711111,6.0555 L49.2711111,6.0555 Z M47.6592593,6.1065 C47.6592593,5.454 47.52,4.8945 47.242963,4.428 C46.9185185,3.864 46.4533333,3.582 45.8518519,3.582 C45.2266667,3.582 44.7525926,3.864 44.4281481,4.428 C44.1496296,4.8945 44.0118519,5.463 44.0118519,6.135 C44.0118519,6.7875 44.1511111,7.347 44.4281481,7.8135 C44.7644444,8.3775 45.2325926,8.6595 45.837037,8.6595 C46.4296296,8.6595 46.8933333,8.373 47.2281481,7.7985 C47.517037,7.323 47.6592593,6.759 47.6592593,6.1065 L47.6592593,6.1065 Z"></path>
                            <path d="M56.7851852,9.6495 L55.3911111,9.6495 L55.2755556,8.835 L55.2325926,8.835 C54.7555556,9.4845 54.0755556,9.81 53.1925926,9.81 C52.5333333,9.81 52,9.5955 51.5985185,9.1695 C51.2340741,8.7825 51.0518519,8.301 51.0518519,7.7295 C51.0518519,6.8655 51.4074074,6.207 52.122963,5.751 C52.837037,5.295 53.8414815,5.0715 55.1348148,5.082 L55.1348148,4.95 C55.1348148,4.0185 54.6518519,3.5535 53.6844444,3.5535 C52.9955556,3.5535 52.3881481,3.729 51.8637037,4.077 L51.5481481,3.045 C52.197037,2.6385 52.9985185,2.4345 53.9437037,2.4345 C55.7688889,2.4345 56.6844444,3.4095 56.6844444,5.3595 L56.6844444,7.9635 C56.6844444,8.67 56.7185185,9.2325 56.7851852,9.6495 L56.7851852,9.6495 Z M55.1733333,7.2195 L55.1733333,6.129 C53.4607407,6.099 52.6044444,6.5745 52.6044444,7.554 C52.6044444,7.923 52.7022222,8.199 52.9022222,8.3835 C53.1022222,8.568 53.357037,8.6595 53.6607407,8.6595 C54.0014815,8.6595 54.32,8.55 54.6103704,8.3325 C54.9022222,8.1135 55.0814815,7.836 55.1481481,7.4955 C55.1644444,7.419 55.1733333,7.326 55.1733333,7.2195 L55.1733333,7.2195 Z"></path>
                            <path d="M65.6074074,9.6495 L64.2296296,9.6495 L64.157037,8.514 L64.1140741,8.514 C63.6740741,9.378 62.9244444,9.81 61.8711111,9.81 C61.0296296,9.81 60.3288889,9.4755 59.7733333,8.8065 C59.2177778,8.1375 58.9407407,7.269 58.9407407,6.2025 C58.9407407,5.058 59.2414815,4.131 59.8459259,3.423 C60.4311111,2.763 61.1481481,2.433 62.0014815,2.433 C62.9392593,2.433 63.5955556,2.7525 63.9688889,3.393 L63.9985185,3.393 L63.9985185,-0.666 L65.5525926,-0.666 L65.5525926,7.7445 C65.5525926,8.433 65.5703704,9.0675 65.6074074,9.6495 L65.6074074,9.6495 Z M63.9985185,6.6675 L63.9985185,5.4885 C63.9985185,5.2845 63.9837037,5.1195 63.9555556,4.9935 C63.8681481,4.6155 63.68,4.2975 63.3940741,4.041 C63.1051852,3.7845 62.757037,3.6555 62.3555556,3.6555 C61.7762963,3.6555 61.322963,3.888 60.9896296,4.3545 C60.6592593,4.821 60.4918519,5.4165 60.4918519,6.144 C60.4918519,6.843 60.6503704,7.41 60.9688889,7.8465 C61.3051852,8.3115 61.7585185,8.544 62.3259259,8.544 C62.8355556,8.544 63.242963,8.3505 63.5525926,7.962 C63.8518519,7.6035 63.9985185,7.1715 63.9985185,6.6675 L63.9985185,6.6675 Z"></path>
                            <path d="M78.8859259,6.0555 C78.8859259,7.143 78.5792593,8.034 77.9659259,8.733 C77.322963,9.4515 76.4725926,9.81 75.4074074,9.81 C74.3837037,9.81 73.5674074,9.4665 72.957037,8.7765 C72.3496296,8.088 72.0459259,7.2195 72.0459259,6.1725 C72.0459259,5.0775 72.3585185,4.179 72.9866667,3.4815 C73.6148148,2.784 74.4592593,2.4345 75.5244444,2.4345 C76.5481481,2.4345 77.3733333,2.778 77.9955556,3.4665 C78.5881481,4.1355 78.8859259,4.9995 78.8859259,6.0555 L78.8859259,6.0555 Z M77.277037,6.1065 C77.277037,5.454 77.1377778,4.8945 76.8607407,4.428 C76.5333333,3.864 76.0711111,3.582 75.4666667,3.582 C74.8444444,3.582 74.3703704,3.864 74.042963,4.428 C73.7644444,4.8945 73.6266667,5.463 73.6266667,6.135 C73.6266667,6.7875 73.7659259,7.347 74.042963,7.8135 C74.3792593,8.3775 74.8474074,8.6595 75.4518519,8.6595 C76.0444444,8.6595 76.5111111,8.373 76.8459259,7.7985 C77.1318519,7.323 77.277037,6.759 77.277037,6.1065 L77.277037,6.1065 Z"></path>
                            <path d="M87.2340741,9.6495 L85.682963,9.6495 L85.682963,5.5995 C85.682963,4.3515 85.2148148,3.7275 84.2740741,3.7275 C83.8133333,3.7275 83.4414815,3.8985 83.1540741,4.242 C82.8666667,4.5855 82.722963,4.9905 82.722963,5.454 L82.722963,9.648 L81.1688889,9.648 L81.1688889,4.599 C81.1688889,3.978 81.1511111,3.3045 81.1140741,2.5755 L82.477037,2.5755 L82.5496296,3.681 L82.5925926,3.681 C82.7748148,3.3375 83.0444444,3.054 83.397037,2.8275 C83.8192593,2.5635 84.2888889,2.43 84.8059259,2.43 C85.4562963,2.43 85.9985185,2.643 86.4296296,3.0705 C86.9674074,3.594 87.2340741,4.3755 87.2340741,5.4135 L87.2340741,9.6495 L87.2340741,9.6495 Z"></path>
                            <path d="M97.682963,3.756 L95.9733333,3.756 L95.9733333,7.191 C95.9733333,8.064 96.277037,8.5005 96.8785185,8.5005 C97.157037,8.5005 97.3881481,8.4765 97.5703704,8.427 L97.6103704,9.6195 C97.3037037,9.7365 96.9007407,9.795 96.4044444,9.795 C95.7911111,9.795 95.3140741,9.606 94.9688889,9.228 C94.6222222,8.85 94.4503704,8.214 94.4503704,7.3215 L94.4503704,3.756 L93.4296296,3.756 L93.4296296,2.5785 L94.4503704,2.5785 L94.4503704,1.2825 L95.9718519,0.8175 L95.9718519,2.577 L97.6814815,2.577 L97.6814815,3.756 L97.682963,3.756 Z"></path>
                            <path d="M105.902222,9.6495 L104.348148,9.6495 L104.348148,5.6295 C104.348148,4.362 103.88,3.7275 102.942222,3.7275 C102.222222,3.7275 101.73037,4.095 101.460741,4.83 C101.414815,4.9845 101.388148,5.1735 101.388148,5.3955 L101.388148,9.648 L99.837037,9.648 L99.837037,-0.666 L101.388148,-0.666 L101.388148,3.5955 L101.417778,3.5955 C101.906667,2.82 102.607407,2.433 103.515556,2.433 C104.158519,2.433 104.69037,2.646 105.112593,3.0735 C105.638519,3.606 105.902222,4.398 105.902222,5.445 L105.902222,9.6495 L105.902222,9.6495 Z"></path>
                            <path d="M114.380741,5.7795 C114.380741,6.0615 114.36,6.2985 114.322963,6.492 L109.666667,6.492 C109.687407,7.191 109.90963,7.7235 110.340741,8.0925 C110.734815,8.4225 111.242963,8.5875 111.865185,8.5875 C112.554074,8.5875 113.182222,8.4765 113.748148,8.253 L113.991111,9.345 C113.328889,9.636 112.54963,9.7815 111.647407,9.7815 C110.565926,9.7815 109.714074,9.459 109.097778,8.814 C108.478519,8.169 108.171852,7.3035 108.171852,6.2175 C108.171852,5.151 108.457778,4.263 109.034074,3.555 C109.635556,2.799 110.448889,2.421 111.475556,2.421 C112.48,2.421 113.242963,2.799 113.758519,3.555 C114.174815,4.155 114.380741,4.8975 114.380741,5.7795 L114.380741,5.7795 Z M112.899259,5.373 C112.911111,4.9065 112.808889,4.5045 112.598519,4.1655 C112.328889,3.729 111.918519,3.51 111.362963,3.51 C110.856296,3.51 110.442963,3.723 110.127407,4.1505 C109.86963,4.491 109.717037,4.8975 109.666667,5.373 L112.899259,5.373 L112.899259,5.373 Z"></path>
                        </g>
                    </g>
                </g>
            </g>
            <g id="iphone" sketch:type="MSLayerGroup" transform="translate(11.000000, 966.000000)">
                <rect id="Volume-Down" fill="#EEEEEE" sketch:type="MSShapeGroup" x="0.494722955" y="251.626098" width="8.90501319" height="27.1894605" rx="1.97889182"></rect>
                <rect id="Volume-Up" fill="#EEEEEE" sketch:type="MSShapeGroup" x="0.494722955" y="186.371393" width="8.90501319" height="27.1894605" rx="1.97889182"></rect>
                <rect id="Silent" fill="#EEEEEE" sketch:type="MSShapeGroup" x="0" y="112.218319" width="10.3891821" height="34.6047679" rx="1.97889182"></rect>
                <rect id="On/Off" fill="#EEEEEE" sketch:type="MSShapeGroup" x="252.80343" y="0" width="61.3456464" height="7.4153074" rx="1.48416887"></rect>
                <rect id="Frame" stroke="#E4E4E4" stroke-width="0.98944591" fill="#F8F8F8" sketch:type="MSShapeGroup" x="4.4525066" y="3.95483061" width="370.547493" height="784.045169" rx="56.3984169"></rect>
                <rect id="BG-screen" fill="#161616" sketch:type="MSShapeGroup" x="26.2203166" y="106.735257" width="325.527704" height="574.484316" rx="4.94722955"></rect>
                <ellipse id="Home-Button" stroke="#E4E4E4" stroke-width="3" sketch:type="MSShapeGroup" cx="189.973615" cy="731.643664" rx="33.6411609" ry="33.6160602"></ellipse>
                <rect id="Speaker" fill="#E6E3E3" sketch:type="MSShapeGroup" x="155.837731" y="63.7716437" width="68.2717678" height="15.8193225" rx="7.91556728"></rect>
                <ellipse id="Front-Camer" fill="#E7E7E7" sketch:type="MSShapeGroup" cx="189.478892" cy="42.0200753" rx="7.42084433" ry="7.4153074"></ellipse>
            </g>
            <g id="icon_twitter-+-twitter" sketch:type="MSLayerGroup" transform="translate(0.000000, 1760.000000)" fill="#000000">
                <path d="M40,15.8409852 C38.8971439,16.323575 37.7102491,16.6490983 36.4648925,16.7947744 C37.7364351,16.0454114 38.7114061,14.8584203 39.1711832,13.4424239 C37.9818525,14.1372334 36.6652457,14.6414048 35.2627733,14.9135735 C34.1404299,13.7361743 32.5406492,13 30.770355,13 C27.3716582,13 24.6160404,15.7126942 24.6160404,19.0590498 C24.6160404,19.5332467 24.6702393,19.9954539 24.7755922,20.4396763 C19.6601912,20.1866913 15.1245357,17.7749413 12.0887887,14.1090573 C11.5589794,15.003497 11.2557092,16.0442124 11.2557092,17.1556677 C11.2557092,19.2574811 12.3421229,21.1123045 13.9936666,22.1985812 C12.9852019,22.1668082 12.0358078,21.8940401 11.2057731,21.4402258 C11.2051641,21.4654044 11.2051641,21.4911825 11.2051641,21.5169606 C11.2051641,24.4520657 13.3268376,26.9003847 16.142744,27.4579108 C15.6263321,27.5957936 15.0825163,27.6701304 14.5210401,27.6701304 C14.1239876,27.6701304 13.7385056,27.6323625 13.3627672,27.5610231 C14.1465197,29.9679772 16.4192193,31.7202878 19.1121125,31.7688465 C17.0056635,33.394065 14.3523537,34.3628416 11.4682419,34.3628416 C10.9719262,34.3628416 10.4817003,34.334066 10,34.2777139 C12.72456,35.997652 15.9594422,37 19.43487,37 C30.7563486,37 36.9465928,27.7678473 36.9465928,19.7610531 C36.9465928,19.4984763 36.941112,19.236499 36.9295414,18.9763201 C38.1316607,18.1238447 39.1754461,17.0561523 40,15.8409852 L40,15.8409852 Z" id="icon_twitter" sketch:type="MSShapeGroup"></path>
            </g>
            <g id="icon_weibo-+-weibo" sketch:type="MSLayerGroup" transform="translate(50.000000, 1760.000000)" fill="#000000">
                <path d="M33.5905982,24.9466886 C33.5905982,24.9466886 32.1675608,24.4517976 32.0708537,24.2943185 C31.9741466,24.1368394 32.0367146,23.7825569 32.1960511,23.4675987 C32.3553875,23.1526405 32.4634539,22.2190534 32.4293761,21.8591878 C32.3951756,21.4992616 32.3667468,20.6782462 31.0978267,20.0652004 C29.8289067,19.4521545 27.1033013,20.1158122 26.756261,20.2620037 C26.4091592,20.408256 25.0093929,20.8589072 25.0093929,20.8589072 C25.0093929,20.8589072 24.5065774,21.1287154 24.6802818,20.3192303 C24.8539861,19.5097452 25.648151,16.2962611 22.6698792,16.3453557 C19.6915459,16.3944503 16.0182109,19.2153594 14.7276162,20.4664535 C13.4369601,21.717487 9.11835842,25.985808 10.1607689,30.6710997 C10.1607689,30.6710997 10.6323926,32.0448394 11.4266189,32.8543852 C12.2207838,33.6638096 13.3129294,34.8903868 15.8197004,35.7980005 C18.3264714,36.7056142 20.6594766,37 23.265595,37 C25.8717133,37 29.6442729,36.1903935 32.3248711,34.2771589 C35.0053464,32.3638636 36.1222368,30.3768353 36.2215227,29.0030956 C36.3207473,27.6293559 35.7498991,25.8209859 33.5905982,24.9466886 Z M35.3891662,18.6923102 L35.3891662,18.6909145 C35.3891662,18.6909145 35.3831489,18.6833288 35.3725878,18.6700386 C35.3682898,18.6644556 35.3643601,18.6586297 35.3600006,18.6530467 L35.3593252,18.6534715 C35.2521184,18.5197204 34.8745002,18.0594202 34.5987468,17.8574586 C33.5207849,16.8888559 31.661798,17.0193299 31.3227398,17.0948834 C30.9837431,17.170437 30.4329117,17.4957725 30.5769592,18.2794055 C30.7210067,19.0630385 31.4324026,18.977836 32.0900724,18.9265566 C32.6642363,18.8817707 33.2334881,19.2709474 33.3688166,19.370411 C33.3705972,19.3719889 33.5549241,19.5325629 33.6748409,19.7130419 L33.6735514,19.7138915 C33.6735514,19.7138915 33.6895772,19.7371341 33.7151201,19.7788858 C33.7151815,19.7790678 33.7153043,19.7793106 33.7154886,19.7794926 C33.7154886,19.7794926 33.71555,19.7794926 33.71555,19.7795533 C33.8288968,19.9651298 34.1273073,20.5150627 34.0440471,21.0399323 C33.9418139,21.6839885 33.8012662,22.3785351 34.5806948,22.5805574 C35.360062,22.7826404 35.7306804,22.264871 35.8329137,21.9365013 C35.9339189,21.6118333 36.2465131,19.8310147 35.3891662,18.6923102 Z M38.2965195,15.9745667 C38.2965195,15.9745667 37.8220714,15.3290541 37.5386428,15.0843091 C37.5096,15.0537236 37.4423041,15.0023836 37.4423041,15.0023836 C33.9838738,12.092024 30.4596826,13.1986864 30.1643422,13.2420766 C29.8420466,13.2893507 29.3674143,13.5748764 29.3986061,14.5010599 C29.4300436,15.4273041 30.5444779,15.4750636 30.5444779,15.4750636 C33.03903,14.7502349 34.9265071,15.8550161 35.8901397,16.6498153 C35.8901397,16.6498153 38.7033648,19.1766419 37.3832974,22.75339 C37.3832974,22.75339 37.3605175,23.8556224 38.2936951,23.9456191 C39.2268726,24.0356158 39.5456069,23.5856929 39.6138238,23.2707347 C39.6764532,22.9820533 41.0200372,19.5734043 38.2965195,15.9745667 Z M22.6747299,35.222519 C17.7157123,35.9061422 13.3284025,33.8582463 12.8753835,30.6482819 C12.4223644,27.4383176 16.0752527,24.2819993 21.034209,23.5984368 C25.9931038,22.914753 30.3805363,24.9627096 30.8336168,28.1726133 C31.2865131,31.3825776 27.6336247,34.5388959 22.6747299,35.222519 Z M26.1018455,28.9034498 C25.6374672,26.7139744 23.1648354,25.3733083 20.5791022,25.9091014 C17.9934305,26.4448338 16.2737019,28.6540927 16.7381416,30.8435075 C17.2025813,33.0330436 19.6752132,34.3737097 22.2609463,33.838038 C24.8466794,33.3022449 26.5662852,31.0930466 26.1018455,28.9034498 Z M19.8541981,31.0390971 C18.9491423,31.0390971 18.2154578,30.313965 18.2154578,29.4195201 C18.2154578,28.5250145 18.9491423,27.7998824 19.8541981,27.7998824 C20.7592538,27.7998824 21.4929383,28.5250145 21.4929383,29.4195201 C21.4929383,30.313965 20.7592538,31.0390971 19.8541981,31.0390971 L19.8541981,31.0390971 Z M23.7121055,31.1740619 C23.2784278,31.1740619 22.9268438,30.8265762 22.9268438,30.3980146 C22.9268438,29.9693922 23.2784278,29.6219065 23.7121055,29.6219065 C24.1457831,29.6219065 24.4973058,29.9693922 24.4973058,30.3980146 C24.4973058,30.8266369 24.1457217,31.1740619 23.7121055,31.1740619 L23.7121055,31.1740619 Z" id="icon_weibo" sketch:type="MSShapeGroup"></path>
            </g>
        </g>
    </g>
</svg>