<svg width="200" height="60" viewBox="0 0 200 60" xmlns="http://www.w3.org/2000/svg"><title>btn_ios_en</title><desc>Created with Sketch.</desc><g fill="none" fill-rule="evenodd"><g><g><g><path d="M192.884 60H7.006C3.144 60 0 56.808 0 52.9V7.09C0 3.18 3.144 0 7.006 0h185.878C196.744 0 200 3.18 200 7.09V52.9c0 3.908-3.255 7.1-7.116 7.1z" id="Shape" fill="#000"/><g id="Shape" fill="#fff"><path d="M44.634 29.676c-.043-4.834 3.91-7.186 4.09-7.296-2.238-3.304-5.708-3.756-6.927-3.792-2.914-.31-5.74 1.766-7.225 1.766-1.514 0-3.8-1.736-6.264-1.685-3.17.05-6.136 1.907-7.763 4.793-3.357 5.885-.853 14.532 2.363 19.288 1.61 2.33 3.49 4.932 5.95 4.84 2.407-.1 3.306-1.554 6.21-1.554 2.88 0 3.724 1.554 6.234 1.496 2.584-.042 4.21-2.34 5.763-4.69 1.86-2.67 2.606-5.3 2.635-5.435-.06-.02-5.017-1.936-5.066-7.73zM39.893 15.46c1.295-1.64 2.18-3.87 1.935-6.135-1.874.085-4.218 1.313-5.568 2.917-1.194 1.412-2.26 3.728-1.985 5.906 2.105.16 4.267-1.075 5.618-2.69z"/></g><g id="Shape" fill="#fff"><path d="M79.474 47.256H76.11l-1.844-5.864H67.86l-1.755 5.864H62.83l6.346-19.962h3.92l6.378 19.962zm-5.763-8.324l-1.666-5.212c-.176-.532-.506-1.786-.994-3.76h-.06c-.193.848-.506 2.102-.935 3.76l-1.637 5.212h5.293zM95.795 39.882c0 2.448-.653 4.383-1.96 5.804-1.17 1.264-2.623 1.895-4.358 1.895-1.873 0-3.218-.68-4.037-2.042h-.06v7.583h-3.158V37.6c0-1.54-.04-3.118-.117-4.738h2.778l.176 2.28h.058c1.054-1.718 2.652-2.576 4.797-2.576 1.677 0 3.077.67 4.197 2.013 1.123 1.343 1.683 3.11 1.683 5.302zM92.578 40c0-1.402-.312-2.557-.937-3.466-.682-.948-1.6-1.422-2.748-1.422-.78 0-1.488.264-2.12.784-.634.525-1.05 1.21-1.243 2.06-.1.396-.148.72-.148.975v2.4c0 1.048.317 1.93.95 2.653.635.72 1.46 1.08 2.472 1.08 1.19 0 2.116-.464 2.778-1.39.664-.93.996-2.153.996-3.674zM112.146 39.882c0 2.448-.653 4.383-1.96 5.804-1.17 1.264-2.623 1.895-4.358 1.895-1.873 0-3.218-.68-4.036-2.042h-.06v7.583h-3.157V37.6c0-1.54-.04-3.118-.117-4.738h2.777l.177 2.28h.06c1.05-1.718 2.65-2.576 4.796-2.576 1.675 0 3.075.67 4.198 2.013 1.12 1.343 1.68 3.11 1.68 5.302zM108.93 40c0-1.402-.314-2.557-.94-3.466-.682-.948-1.596-1.422-2.747-1.422-.78 0-1.488.264-2.122.784-.633.525-1.046 1.21-1.24 2.06-.097.396-.147.72-.147.975v2.4c0 1.048.317 1.93.948 2.653.635.72 1.46 1.08 2.475 1.08 1.19 0 2.116-.464 2.778-1.39.664-.93.996-2.153.996-3.674zM130.428 41.658c0 1.698-.582 3.08-1.75 4.146-1.286 1.166-3.074 1.748-5.372 1.748-2.12 0-3.822-.414-5.11-1.244l.733-2.665c1.385.85 2.907 1.275 4.565 1.275 1.19 0 2.115-.273 2.78-.816.663-.543.993-1.272.993-2.18 0-.81-.273-1.494-.82-2.047-.543-.554-1.45-1.068-2.72-1.544-3.45-1.302-5.176-3.212-5.176-5.723 0-1.64.605-2.986 1.815-4.033 1.206-1.05 2.815-1.572 4.827-1.572 1.794 0 3.284.316 4.474.948l-.79 2.607c-1.11-.612-2.367-.918-3.773-.918-1.11 0-1.98.276-2.602.828-.525.494-.79 1.095-.79 1.808 0 .79.302 1.44.906 1.954.525.474 1.48.987 2.867 1.54 1.696.692 2.942 1.5 3.744 2.428.8.924 1.198 2.08 1.198 3.46zM140.87 35.262h-3.48v6.989c0 1.778.613 2.666 1.842 2.666.565 0 1.033-.05 1.403-.148l.088 2.428c-.622.235-1.442.354-2.457.354-1.247 0-2.222-.386-2.925-1.155-.7-.77-1.053-2.064-1.053-3.88v-7.256h-2.074v-2.4h2.074v-2.636l3.102-.948v3.583h3.48v2.402zM156.58 39.94c0 2.213-.626 4.03-1.874 5.45-1.308 1.462-3.044 2.19-5.208 2.19-2.086.002-3.747-.7-4.986-2.1-1.238-1.4-1.857-3.17-1.857-5.3 0-2.23.637-4.058 1.915-5.48 1.276-1.42 2.997-2.132 5.162-2.132 2.086 0 3.764.7 5.03 2.103 1.213 1.36 1.817 3.118 1.817 5.27zm-3.278.104c0-1.328-.28-2.466-.847-3.415-.663-1.15-1.61-1.724-2.836-1.724-1.27 0-2.235.575-2.897 1.722-.568.95-.848 2.108-.848 3.476 0 1.327.28 2.466.848 3.414.683 1.15 1.637 1.722 2.868 1.722 1.207 0 2.153-.585 2.836-1.752.583-.967.876-2.118.876-3.444zM166.846 35.675c-.313-.06-.646-.09-.996-.09-1.11 0-1.97.425-2.575 1.276-.526.75-.79 1.7-.79 2.843v7.553h-3.156l.028-9.86c0-1.66-.04-3.17-.118-4.533h2.75l.116 2.754h.088c.333-.946.86-1.708 1.58-2.28.703-.514 1.463-.77 2.282-.77.292 0 .556.02.79.058v3.05zM180.972 39.378c0 .573-.037 1.056-.116 1.45h-9.475c.038 1.422.495 2.51 1.375 3.26.8.67 1.83 1.006 3.1 1.006 1.403 0 2.683-.226 3.834-.68l.493 2.22c-1.345.593-2.933.89-4.765.89-2.205 0-3.935-.658-5.195-1.97-1.256-1.313-1.885-3.076-1.885-5.287 0-2.17.585-3.978 1.757-5.42 1.226-1.538 2.884-2.308 4.97-2.308 2.05 0 3.6.77 4.653 2.308.834 1.222 1.254 2.734 1.254 4.53zm-3.012-.83c.02-.947-.185-1.766-.614-2.458-.546-.89-1.386-1.333-2.517-1.333-1.033 0-1.873.433-2.515 1.303-.526.69-.838 1.52-.934 2.487h6.58v.002z"/></g><g fill="#fff"><path d="M72.666 15.014c0 1.765-.522 3.094-1.567 3.987-.968.824-2.343 1.237-4.124 1.237-.883 0-1.638-.04-2.27-.117v-9.647c.824-.135 1.713-.204 2.673-.204 1.695 0 2.974.373 3.836 1.12.966.844 1.45 2.052 1.45 3.624zm-1.637.043c0-1.144-.3-2.022-.898-2.634-.6-.61-1.473-.916-2.624-.916-.49 0-.905.033-1.25.102v7.332c.19.03.54.044 1.048.044 1.19 0 2.106-.335 2.752-1.004.646-.67.97-1.644.97-2.925zM81.346 16.556c0 1.087-.306 1.978-.92 2.677-.642.72-1.494 1.077-2.558 1.077-1.025 0-1.842-.343-2.45-1.033-.608-.69-.912-1.557-.912-2.604 0-1.095.313-1.994.94-2.69.63-.7 1.474-1.048 2.538-1.048 1.025 0 1.848.343 2.472 1.032.593.67.89 1.533.89 2.59zm-1.61.05c0-.652-.14-1.212-.416-1.678-.326-.564-.79-.846-1.393-.846-.623 0-1.098.282-1.423.846-.28.466-.417 1.035-.417 1.707 0 .652.14 1.212.417 1.68.336.562.804.844 1.408.844.593 0 1.058-.287 1.393-.86.287-.477.43-1.04.43-1.694zM92.985 13.079l-2.185 7.07h-1.422l-.906-3.07c-.23-.767-.416-1.53-.56-2.285h-.03c-.134.777-.32 1.537-.56 2.284l-.962 3.07h-1.44l-2.054-7.07 1.596-.002.79 3.362c.19.795.348 1.552.474 2.27h.028c.115-.59.307-1.344.576-2.255l.99-3.375h1.266l.95 3.303c.23.806.416 1.58.56 2.328h.043c.104-.726.263-1.502.473-2.327l.848-3.303h1.525zM101.034 20.15H99.48V16.1c0-1.25-.467-1.873-1.406-1.873-.46 0-.833.17-1.122.515-.286.343-.43.748-.43 1.212v4.194h-1.553v-5.05c0-.62-.02-1.294-.058-2.023h1.365l.072 1.106h.042c.18-.342.45-.626.805-.852.42-.264.892-.398 1.407-.398.652 0 1.194.213 1.625.64.536.524.804 1.305.804 2.343v4.236zM105.315 20.15h-1.55V9.833h1.55V20.15zM114.456 16.556c0 1.087-.307 1.978-.92 2.677-.643.72-1.496 1.077-2.558 1.077-1.027 0-1.843-.343-2.45-1.033-.608-.69-.912-1.557-.912-2.604 0-1.095.313-1.994.94-2.69.63-.7 1.473-1.048 2.536-1.048 1.026 0 1.85.343 2.474 1.032.592.67.89 1.533.89 2.59zm-1.612.05c0-.652-.14-1.212-.416-1.678-.324-.564-.79-.846-1.39-.846-.626 0-1.1.282-1.425.846-.278.466-.416 1.035-.416 1.707 0 .652.14 1.212.416 1.68.336.562.805.844 1.41.844.592 0 1.055-.287 1.39-.86.29-.477.43-1.04.43-1.694zM121.97 20.15h-1.394l-.115-.815h-.042c-.477.65-1.157.975-2.04.975-.66 0-1.193-.214-1.594-.64-.365-.388-.547-.87-.547-1.44 0-.864.355-1.523 1.07-1.98.715-.455 1.72-.678 3.013-.668v-.132c0-.93-.483-1.396-1.45-1.396-.69 0-1.297.175-1.82.523l-.317-1.032c.65-.406 1.45-.61 2.396-.61 1.824 0 2.74.975 2.74 2.925v2.604c0 .706.034 1.27.1 1.686zm-1.612-2.43v-1.09c-1.712-.03-2.57.444-2.57 1.424 0 .37.1.645.3.83.2.184.454.275.758.275.34 0 .66-.11.95-.328.29-.22.47-.496.537-.837.016-.076.025-.17.025-.276zM130.792 20.15h-1.377l-.073-1.136h-.043c-.44.864-1.19 1.296-2.244 1.296-.84 0-1.542-.334-2.098-1.003-.555-.67-.832-1.538-.832-2.604 0-1.145.3-2.072.905-2.78.586-.66 1.303-.99 2.156-.99.938 0 1.595.32 1.968.96h.03v-4.06h1.554v8.412c0 .688.017 1.323.054 1.905zm-1.608-2.982v-1.18c0-.203-.015-.368-.043-.494-.087-.378-.275-.696-.56-.953-.29-.255-.638-.384-1.04-.384-.58 0-1.032.232-1.365.698-.33.467-.498 1.063-.498 1.79 0 .7.158 1.266.477 1.702.336.465.79.698 1.357.698.51 0 .918-.194 1.228-.582.3-.358.446-.79.446-1.294zM144.07 16.556c0 1.087-.306 1.978-.92 2.677-.642.72-1.492 1.077-2.558 1.077-1.023 0-1.84-.343-2.45-1.033-.607-.69-.91-1.557-.91-2.604 0-1.095.312-1.994.94-2.69.628-.7 1.472-1.048 2.537-1.048 1.023 0 1.848.343 2.47 1.032.593.67.89 1.533.89 2.59zm-1.608.05c0-.652-.14-1.212-.416-1.678-.328-.564-.79-.846-1.394-.846-.623 0-1.097.282-1.424.846-.28.466-.416 1.035-.416 1.707 0 .652.14 1.212.416 1.68.336.562.804.844 1.41.844.59 0 1.058-.287 1.393-.86.287-.477.432-1.04.432-1.694zM152.42 20.15h-1.552V16.1c0-1.25-.468-1.873-1.41-1.873-.46 0-.832.17-1.12.515-.286.343-.43.748-.43 1.212v4.194h-1.554v-5.05c0-.62-.018-1.294-.055-2.023h1.362l.073 1.106h.043c.182-.342.45-.626.804-.852.422-.264.892-.398 1.41-.398.65 0 1.192.213 1.623.64.537.524.804 1.305.804 2.343v4.236zM162.868 14.256h-1.71v3.435c0 .874.304 1.31.906 1.31.278 0 .51-.024.69-.073l.04 1.193c-.305.117-.708.175-1.205.175-.614 0-1.09-.19-1.436-.567-.347-.378-.52-1.014-.52-1.906v-3.566h-1.02V13.08l1.02-.002v-1.295l1.523-.465v1.76h1.71v1.178zM171.087 20.15h-1.554v-4.02c0-1.268-.468-1.902-1.406-1.902-.72 0-1.212.367-1.48 1.102-.047.154-.074.343-.074.565v4.253h-1.55V9.834h1.55v4.26h.03c.49-.774 1.19-1.16 2.098-1.16.644 0 1.175.212 1.598.64.526.532.79 1.324.79 2.37v4.205zM179.566 16.28c0 .28-.02.518-.058.712h-4.656c.02.7.243 1.23.674 1.6.394.33.902.495 1.524.495.69 0 1.317-.11 1.883-.334l.243 1.092c-.662.29-1.44.436-2.344.436-1.08 0-1.933-.32-2.55-.966-.618-.645-.925-1.51-.925-2.596 0-1.067.286-1.955.862-2.663.6-.756 1.414-1.134 2.44-1.134 1.005 0 1.768.38 2.284 1.135.416.6.622 1.343.622 2.225zm-1.482-.407c.012-.466-.09-.87-.3-1.208-.27-.436-.68-.655-1.236-.655-.507 0-.92.213-1.236.64-.257.34-.41.747-.46 1.223h3.232z"/></g></g></g></g></g></svg>