<svg width="1024" height="1024" viewBox="0 0 1024 1024" xmlns="http://www.w3.org/2000/svg"><title>logo</title><desc>Created with Sketch.</desc><defs><linearGradient x1="52.201%" y1="0%" x2="52.201%" y2="100%" id="a"><stop stop-color="#0088D5" offset="0%"/><stop stop-color="#00E3CA" offset="100%"/></linearGradient></defs><g fill="none" fill-rule="evenodd"><path d="M279.203 168l67.203 38.784v77.567l-67.203 38.785L212 284.35v-77.566L279.203 168zm465.594 0L812 206.784v77.567l-67.203 38.785-67.203-38.784v-77.566L744.797 168zM279.203 701.665l67.203 38.784v77.566L279.203 856.8 212 818.016V740.45l67.203-38.785zm465.594 0L812 740.45v77.566L744.797 856.8l-67.203-38.784V740.45l67.203-38.785zm-387.995-400.25l67.203 38.785v77.568l-67.203 38.783L289.6 417.77V340.2l67.202-38.784zm310.396 0L734.4 340.2v77.568L667.2 456.55l-67.203-38.782V340.2l67.203-38.784zM279.203 434.833l67.203 38.784v77.568l-67.203 38.784L212 551.184v-77.568l67.203-38.784zm155.198 0l67.204 38.784v77.568L434.4 589.968 367.2 551.184v-77.568l67.203-38.784zm155.2 0l67.202 38.784v77.568L589.6 589.968l-67.204-38.784v-77.568l67.203-38.784zm155.197 0L812 473.616v77.568l-67.203 38.784-67.203-38.784v-77.568l67.203-38.784zM356.802 568.25l67.203 38.782V684.6l-67.203 38.784L289.6 684.6v-77.568L356.8 568.25zm310.396 0L734.4 607.03V684.6L667.2 723.384 599.995 684.6v-77.568l67.203-38.783z" fill="url(#a)"/></g></svg>