<?xml version="1.0" encoding="UTF-8" standalone="no"?>
<svg width="144px" height="136px" viewBox="0 0 144 136" version="1.1" xmlns="http://www.w3.org/2000/svg" xmlns:xlink="http://www.w3.org/1999/xlink" xmlns:sketch="http://www.bohemiancoding.com/sketch/ns">
    <!-- Generator: Sketch 3.3.3 (12072) - http://www.bohemiancoding.com/sketch -->
    <title>icon</title>
    <desc>Created with Sketch.</desc>
    <defs></defs>
    <g id="Page-1" stroke="none" stroke-width="1" fill="none" fill-rule="evenodd" sketch:type="MSPage">
        <g id="icon" sketch:type="MSLayerGroup">
            <path d="M132,16 L140,16 L140,40 L132,40 L132,16 Z M124,20 L132,20 L132,44 L124,44 L124,20 Z M116,24 L124,24 L124,48 L116,48 L116,24 Z M108,28 L116,28 L116,52 L108,52 L108,28 Z M100,32 L108,32 L108,56 L100,56 L100,32 Z M92,36 L100,36 L100,60 L92,60 L92,36 Z M84,40 L92,40 L92,124 L84,124 L84,40 Z M76,44 L84,44 L84,128 L76,128 L76,44 Z M72,48 L76,48 L76,132 L72,132 L72,48 Z" id="Rectangle-70" fill="#1F98E5" sketch:type="MSShapeGroup"></path>
            <path d="M4,16 L12,16 L12,20 L4,20 L4,16 Z M4,20 L12,20 L12,24 L4,24 L4,20 Z M12,20 L20,20 L20,44 L12,44 L12,20 Z M20,24 L28,24 L28,48 L20,48 L20,24 Z M28,28 L36,28 L36,52 L28,52 L28,28 Z M36,32 L44,32 L44,56 L36,56 L36,32 Z M44,36 L52,36 L52,60 L44,60 L44,36 Z M52,40 L60,40 L60,124 L52,124 L52,40 Z M60,44 L68,44 L68,128 L60,128 L60,44 Z M68,48 L72,48 L72,132 L68,132 L68,48 Z M4,24 L12,24 L12,40 L4,40 L4,24 Z" id="Rectangle-59" fill="#40B4FF" sketch:type="MSShapeGroup"></path>
            <path d="M94,60 L92,60 L92,124 L96,124 L96,64 L100,64 L100,60 L94,60 Z M68,24 L76,24 L76,28 L68,28 L68,24 Z M60,20 L68,20 L68,24 L60,24 L60,20 Z M52,16 L60,16 L60,20 L52,20 L52,16 Z M44,12 L52,12 L52,16 L44,16 L44,12 Z M36,8 L44,8 L44,12 L36,12 L36,8 Z M28,4 L36,4 L36,8 L28,8 L28,4 Z M20,0 L28,0 L28,4 L20,4 L20,0 Z M12,4 L20,4 L20,8 L12,8 L12,4 Z M4,8 L12,8 L12,12 L4,12 L4,8 Z M4,40 L12,40 L12,44 L4,44 L4,40 Z M0,12 L4,12 L4,40 L0,40 L0,12 Z M12,44 L20,44 L20,48 L12,48 L12,44 Z M20,48 L28,48 L28,52 L20,52 L20,48 Z M28,52 L36,52 L36,56 L28,56 L28,52 Z M36,56 L44,56 L44,60 L36,60 L36,56 Z M44,60 L52,60 L52,64 L44,64 L44,60 Z M52,124 L60,124 L60,128 L52,128 L52,124 Z M60,128 L68,128 L68,132 L60,132 L60,128 Z M68,132 L76,132 L76,136 L68,136 L68,132 Z M76,128 L84,128 L84,132 L76,132 L76,128 Z M84,124 L92,124 L92,128 L84,128 L84,124 Z M100,56 L108,56 L108,60 L100,60 L100,56 Z M108,52 L116,52 L116,56 L108,56 L108,52 Z M116,48 L124,48 L124,52 L116,52 L116,48 Z M124,44 L132,44 L132,48 L124,48 L124,44 Z M132,40 L140,40 L140,44 L132,44 L132,40 Z M132,8 L140,8 L140,12 L132,12 L132,8 Z M124,4 L132,4 L132,8 L124,8 L124,4 Z M116,0 L124,0 L124,4 L116,4 L116,0 Z M108,4 L116,4 L116,8 L108,8 L108,4 Z M100,8 L108,8 L108,12 L100,12 L100,8 Z M92,12 L100,12 L100,16 L92,16 L92,12 Z M84,16 L92,16 L92,20 L84,20 L84,16 Z M76,20 L84,20 L84,24 L76,24 L76,20 Z M140,12 L144,12 L144,40 L140,40 L140,12 Z M48,64 L52,64 L52,124 L48,124 L48,64 Z" id="Rectangle-39" fill="#000000" sketch:type="MSShapeGroup"></path>
            <path d="M20,4 L28,4 L28,8 L20,8 L20,4 Z M12,8 L20,8 L20,12 L12,12 L12,8 Z M12,16 L52,16 L52,20 L12,20 L12,16 Z M20,20 L60,20 L60,24 L20,24 L20,20 Z M28,24 L68,24 L68,28 L28,28 L28,24 Z M76,24 L116,24 L116,28 L76,28 L76,24 Z M84,20 L124,20 L124,24 L84,24 L84,20 Z M92,16 L132,16 L132,20 L92,20 L92,16 Z M100,12 L140,12 L140,16 L100,16 L100,12 Z M108,8 L132,8 L132,12 L108,12 L108,8 Z M116,4 L124,4 L124,8 L116,8 L116,4 Z M36,28 L108,28 L108,32 L36,32 L36,28 Z M44,32 L100,32 L100,36 L44,36 L44,32 Z M52,36 L92,36 L92,40 L52,40 L52,36 Z M60,40 L84,40 L84,44 L60,44 L60,40 Z M68,44 L76,44 L76,48 L68,48 L68,44 Z M4,12 L44,12 L44,16 L4,16 L4,12 Z M20,8 L28,8 L28,12 L20,12 L20,8 Z M28,8 L36,8 L36,12 L28,12 L28,8 Z" id="Rectangle-40" fill="#78CAFF" sketch:type="MSShapeGroup"></path>
        </g>
    </g>
</svg>