<?xml version="1.0" encoding="UTF-8" standalone="no"?>
<svg width="316px" height="24px" viewBox="0 0 316 24" version="1.1" xmlns="http://www.w3.org/2000/svg" xmlns:xlink="http://www.w3.org/1999/xlink" xmlns:sketch="http://www.bohemiancoding.com/sketch/ns">
    <!-- Generator: Sketch 3.3.3 (12072) - http://www.bohemiancoding.com/sketch -->
    <title>Group</title>
    <desc>Created with Sketch.</desc>
    <defs></defs>
    <g id="Page-1" stroke="none" stroke-width="1" fill="none" fill-rule="evenodd" sketch:type="MSPage">
        <g id="Group" sketch:type="MSLayerGroup" fill="#000000">
            <rect id="Rectangle-198" sketch:type="MSShapeGroup" x="16" y="4" width="4" height="4"></rect>
            <rect id="Rectangle-198-Copy-90" sketch:type="MSShapeGroup" x="16" y="0" width="4" height="4"></rect>
            <rect id="Rectangle-198-Copy-95" sketch:type="MSShapeGroup" x="8" y="0" width="4" height="4"></rect>
            <rect id="Rectangle-198-Copy-98" sketch:type="MSShapeGroup" x="8" y="4" width="4" height="4"></rect>
            <rect id="Rectangle-198-Copy-96" sketch:type="MSShapeGroup" x="0" y="0" width="4" height="4"></rect>
            <rect id="Rectangle-198-Copy-97" sketch:type="MSShapeGroup" x="0" y="4" width="4" height="4"></rect>
            <rect id="Rectangle-198-Copy-91" sketch:type="MSShapeGroup" x="24" y="0" width="4" height="4"></rect>
            <rect id="Rectangle-198-Copy-92" sketch:type="MSShapeGroup" x="20" y="0" width="4" height="4"></rect>
            <rect id="Rectangle-198-Copy-93" sketch:type="MSShapeGroup" x="20" y="8" width="4" height="4"></rect>
            <rect id="Rectangle-198-Copy-94" sketch:type="MSShapeGroup" x="20" y="16" width="4" height="4"></rect>
            <rect id="Rectangle-198-Copy-89" sketch:type="MSShapeGroup" x="16" y="8" width="4" height="4"></rect>
            <rect id="Rectangle-198-Copy" sketch:type="MSShapeGroup" x="16" y="12" width="4" height="4"></rect>
            <rect id="Rectangle-198-Copy-3" sketch:type="MSShapeGroup" x="16" y="16" width="4" height="4"></rect>
            <rect id="Rectangle-198-Copy-4" sketch:type="MSShapeGroup" x="24" y="16" width="4" height="4"></rect>
            <rect id="Rectangle-198-Copy-2" sketch:type="MSShapeGroup" x="20" y="8" width="4" height="4"></rect>
            <rect id="Rectangle-198-Copy-6" sketch:type="MSShapeGroup" x="36" y="8" width="4" height="4"></rect>
            <rect id="Rectangle-198-Copy-7" sketch:type="MSShapeGroup" x="40" y="8" width="4" height="4"></rect>
            <rect id="Rectangle-198-Copy-8" sketch:type="MSShapeGroup" x="40" y="12" width="4" height="4"></rect>
            <rect id="Rectangle-198-Copy-10" sketch:type="MSShapeGroup" x="44" y="8" width="4" height="4"></rect>
            <rect id="Rectangle-198-Copy-11" sketch:type="MSShapeGroup" x="48" y="12" width="4" height="4"></rect>
            <rect id="Rectangle-198-Copy-13" sketch:type="MSShapeGroup" x="48" y="16" width="4" height="4"></rect>
            <rect id="Rectangle-198-Copy-14" sketch:type="MSShapeGroup" x="56" y="12" width="4" height="4"></rect>
            <rect id="Rectangle-198-Copy-17" sketch:type="MSShapeGroup" x="60" y="16" width="4" height="4"></rect>
            <rect id="Rectangle-198-Copy-18" sketch:type="MSShapeGroup" x="64" y="16" width="4" height="4"></rect>
            <rect id="Rectangle-198-Copy-15" sketch:type="MSShapeGroup" x="60" y="8" width="4" height="4"></rect>
            <rect id="Rectangle-198-Copy-16" sketch:type="MSShapeGroup" x="64" y="12" width="4" height="4"></rect>
            <rect id="Rectangle-198-Copy-19" sketch:type="MSShapeGroup" x="72" y="16" width="4" height="4"></rect>
            <rect id="Rectangle-198-Copy-21" sketch:type="MSShapeGroup" x="80" y="16" width="4" height="4"></rect>
            <rect id="Rectangle-198-Copy-24" sketch:type="MSShapeGroup" x="104" y="12" width="4" height="4"></rect>
            <rect id="Rectangle-198-Copy-29" sketch:type="MSShapeGroup" x="104" y="16" width="4" height="4"></rect>
            <rect id="Rectangle-198-Copy-30" sketch:type="MSShapeGroup" x="112" y="20" width="4" height="4"></rect>
            <rect id="Rectangle-198-Copy-31" sketch:type="MSShapeGroup" x="116" y="16" width="4" height="4"></rect>
            <rect id="Rectangle-198-Copy-34" sketch:type="MSShapeGroup" x="132" y="16" width="4" height="4"></rect>
            <rect id="Rectangle-198-Copy-39" sketch:type="MSShapeGroup" x="128" y="20" width="4" height="4"></rect>
            <rect id="Rectangle-198-Copy-35" sketch:type="MSShapeGroup" x="132" y="12" width="4" height="4"></rect>
            <rect id="Rectangle-198-Copy-38" sketch:type="MSShapeGroup" x="136" y="12" width="4" height="4"></rect>
            <rect id="Rectangle-198-Copy-40" sketch:type="MSShapeGroup" x="144" y="12" width="4" height="4"></rect>
            <rect id="Rectangle-198-Copy-41" sketch:type="MSShapeGroup" x="148" y="8" width="4" height="4"></rect>
            <rect id="Rectangle-198-Copy-42" sketch:type="MSShapeGroup" x="152" y="12" width="4" height="4"></rect>
            <rect id="Rectangle-198-Copy-44" sketch:type="MSShapeGroup" x="160" y="12" width="4" height="4"></rect>
            <rect id="Rectangle-198-Copy-46" sketch:type="MSShapeGroup" x="164" y="8" width="4" height="4"></rect>
            <rect id="Rectangle-198-Copy-47" sketch:type="MSShapeGroup" x="180" y="8" width="4" height="4"></rect>
            <rect id="Rectangle-198-Copy-48" sketch:type="MSShapeGroup" x="180" y="16" width="4" height="4"></rect>
            <rect id="Rectangle-198-Copy-49" sketch:type="MSShapeGroup" x="188" y="16" width="4" height="4"></rect>
            <rect id="Rectangle-198-Copy-50" sketch:type="MSShapeGroup" x="188" y="12" width="4" height="4"></rect>
            <rect id="Rectangle-198-Copy-53" sketch:type="MSShapeGroup" x="188" y="8" width="4" height="4"></rect>
            <rect id="Rectangle-198-Copy-51" sketch:type="MSShapeGroup" x="192" y="8" width="4" height="4"></rect>
            <rect id="Rectangle-198-Copy-54" sketch:type="MSShapeGroup" x="196" y="12" width="4" height="4"></rect>
            <rect id="Rectangle-198-Copy-52" sketch:type="MSShapeGroup" x="196" y="16" width="4" height="4"></rect>
            <rect id="Rectangle-198-Copy-55" sketch:type="MSShapeGroup" x="212" y="12" width="4" height="4"></rect>
            <rect id="Rectangle-198-Copy-60" sketch:type="MSShapeGroup" x="220" y="16" width="4" height="4"></rect>
            <rect id="Rectangle-198-Copy-77" sketch:type="MSShapeGroup" x="268" y="16" width="4" height="4"></rect>
            <rect id="Rectangle-198-Copy-62" sketch:type="MSShapeGroup" x="228" y="12" width="4" height="4"></rect>
            <rect id="Rectangle-198-Copy-72" sketch:type="MSShapeGroup" x="256" y="12" width="4" height="4"></rect>
            <rect id="Rectangle-198-Copy-65" sketch:type="MSShapeGroup" x="228" y="16" width="4" height="4"></rect>
            <rect id="Rectangle-198-Copy-73" sketch:type="MSShapeGroup" x="256" y="16" width="4" height="4"></rect>
            <rect id="Rectangle-198-Copy-63" sketch:type="MSShapeGroup" x="232" y="12" width="4" height="4"></rect>
            <rect id="Rectangle-198-Copy-74" sketch:type="MSShapeGroup" x="260" y="12" width="4" height="4"></rect>
            <rect id="Rectangle-198-Copy-67" sketch:type="MSShapeGroup" x="248" y="16" width="4" height="4"></rect>
            <rect id="Rectangle-198-Copy-71" sketch:type="MSShapeGroup" x="248" y="12" width="4" height="4"></rect>
            <rect id="Rectangle-198-Copy-79" sketch:type="MSShapeGroup" x="284" y="12" width="4" height="4"></rect>
            <rect id="Rectangle-198-Copy-83" sketch:type="MSShapeGroup" x="300" y="12" width="4" height="4"></rect>
            <rect id="Rectangle-198-Copy-88" sketch:type="MSShapeGroup" x="292" y="8" width="4" height="4"></rect>
            <rect id="Rectangle-198-Copy-70" sketch:type="MSShapeGroup" x="244" y="16" width="4" height="4"></rect>
            <rect id="Rectangle-198-Copy-80" sketch:type="MSShapeGroup" x="280" y="16" width="4" height="4"></rect>
            <rect id="Rectangle-198-Copy-84" sketch:type="MSShapeGroup" x="292" y="16" width="4" height="4"></rect>
            <rect id="Rectangle-198-Copy-87" sketch:type="MSShapeGroup" x="300" y="16" width="4" height="4"></rect>
            <rect id="Rectangle-198-Copy-68" sketch:type="MSShapeGroup" x="240" y="12" width="4" height="4"></rect>
            <rect id="Rectangle-198-Copy-81" sketch:type="MSShapeGroup" x="276" y="12" width="4" height="4"></rect>
            <rect id="Rectangle-198-Copy-85" sketch:type="MSShapeGroup" x="292" y="12" width="4" height="4"></rect>
            <rect id="Rectangle-198-Copy-69" sketch:type="MSShapeGroup" x="244" y="8" width="4" height="4"></rect>
            <rect id="Rectangle-198-Copy-82" sketch:type="MSShapeGroup" x="280" y="8" width="4" height="4"></rect>
            <rect id="Rectangle-198-Copy-86" sketch:type="MSShapeGroup" x="296" y="8" width="4" height="4"></rect>
            <rect id="Rectangle-198-Copy-99" sketch:type="MSShapeGroup" x="304" y="0" width="4" height="4"></rect>
            <rect id="Rectangle-198-Copy-100" sketch:type="MSShapeGroup" x="304" y="4" width="4" height="4"></rect>
            <rect id="Rectangle-198-Copy-101" sketch:type="MSShapeGroup" x="312" y="4" width="4" height="4"></rect>
            <rect id="Rectangle-198-Copy-102" sketch:type="MSShapeGroup" x="312" y="0" width="4" height="4"></rect>
            <rect id="Rectangle-198-Copy-66" sketch:type="MSShapeGroup" x="232" y="20" width="4" height="4"></rect>
            <rect id="Rectangle-198-Copy-75" sketch:type="MSShapeGroup" x="260" y="20" width="4" height="4"></rect>
            <rect id="Rectangle-198-Copy-64" sketch:type="MSShapeGroup" x="228" y="8" width="4" height="4"></rect>
            <rect id="Rectangle-198-Copy-76" sketch:type="MSShapeGroup" x="256" y="8" width="4" height="4"></rect>
            <rect id="Rectangle-198-Copy-61" sketch:type="MSShapeGroup" x="220" y="8" width="4" height="4"></rect>
            <rect id="Rectangle-198-Copy-78" sketch:type="MSShapeGroup" x="268" y="8" width="4" height="4"></rect>
            <rect id="Rectangle-198-Copy-57" sketch:type="MSShapeGroup" x="204" y="12" width="4" height="4"></rect>
            <rect id="Rectangle-198-Copy-58" sketch:type="MSShapeGroup" x="204" y="8" width="4" height="4"></rect>
            <rect id="Rectangle-198-Copy-59" sketch:type="MSShapeGroup" x="212" y="8" width="4" height="4"></rect>
            <rect id="Rectangle-198-Copy-56" sketch:type="MSShapeGroup" x="208" y="16" width="4" height="4"></rect>
            <rect id="Rectangle-198-Copy-45" sketch:type="MSShapeGroup" x="160" y="16" width="4" height="4"></rect>
            <rect id="Rectangle-198-Copy-43" sketch:type="MSShapeGroup" x="148" y="16" width="4" height="4"></rect>
            <rect id="Rectangle-198-Copy-36" sketch:type="MSShapeGroup" x="132" y="8" width="4" height="4"></rect>
            <rect id="Rectangle-198-Copy-37" sketch:type="MSShapeGroup" x="136" y="4" width="4" height="4"></rect>
            <rect id="Rectangle-198-Copy-32" sketch:type="MSShapeGroup" x="112" y="12" width="4" height="4"></rect>
            <rect id="Rectangle-198-Copy-33" sketch:type="MSShapeGroup" x="116" y="8" width="4" height="4"></rect>
            <rect id="Rectangle-198-Copy-28" sketch:type="MSShapeGroup" x="104" y="8" width="4" height="4"></rect>
            <rect id="Rectangle-198-Copy-26" sketch:type="MSShapeGroup" x="100" y="16" width="4" height="4"></rect>
            <rect id="Rectangle-198-Copy-25" sketch:type="MSShapeGroup" x="96" y="12" width="4" height="4"></rect>
            <rect id="Rectangle-198-Copy-27" sketch:type="MSShapeGroup" x="96" y="8" width="4" height="4"></rect>
            <rect id="Rectangle-198-Copy-22" sketch:type="MSShapeGroup" x="80" y="12" width="4" height="4"></rect>
            <rect id="Rectangle-198-Copy-23" sketch:type="MSShapeGroup" x="80" y="8" width="4" height="4"></rect>
            <rect id="Rectangle-198-Copy-20" sketch:type="MSShapeGroup" x="72" y="8" width="4" height="4"></rect>
            <rect id="Rectangle-198-Copy-12" sketch:type="MSShapeGroup" x="48" y="8" width="4" height="4"></rect>
            <rect id="Rectangle-198-Copy-9" sketch:type="MSShapeGroup" x="40" y="16" width="4" height="4"></rect>
            <rect id="Rectangle-198-Copy-5" sketch:type="MSShapeGroup" x="32" y="12" width="4" height="8"></rect>
        </g>
    </g>
</svg>