<?xml version="1.0" encoding="UTF-8" standalone="no"?>
<svg width="56px" height="44px" viewBox="0 0 56 44" version="1.1" xmlns="http://www.w3.org/2000/svg" xmlns:xlink="http://www.w3.org/1999/xlink" xmlns:sketch="http://www.bohemiancoding.com/sketch/ns">
    <!-- Generator: Sketch 3.3.3 (12072) - http://www.bohemiancoding.com/sketch -->
    <title>Group</title>
    <desc>Created with Sketch.</desc>
    <defs></defs>
    <g id="Page-1" stroke="none" stroke-width="1" fill="none" fill-rule="evenodd" sketch:type="MSPage">
        <g id="Group" sketch:type="MSLayerGroup">
            <rect id="Rectangle-145-Copy-50" fill="#F0F7FF" sketch:type="MSShapeGroup" x="4" y="4" width="48" height="36"></rect>
            <rect id="Rectangle-145-Copy-51" fill="#FFFFFF" sketch:type="MSShapeGroup" x="4" y="4" width="48" height="4"></rect>
            <rect id="Rectangle-145" fill="#000000" sketch:type="MSShapeGroup" x="4" y="0" width="4" height="4"></rect>
            <rect id="Rectangle-145-Copy-10" fill="#000000" sketch:type="MSShapeGroup" x="0" y="4" width="4" height="4"></rect>
            <rect id="Rectangle-145-Copy-22" fill="#000000" sketch:type="MSShapeGroup" x="4" y="4" width="4" height="4"></rect>
            <rect id="Rectangle-145-Copy-23" fill="#000000" sketch:type="MSShapeGroup" x="8" y="8" width="4" height="4"></rect>
            <rect id="Rectangle-145-Copy-24" fill="#000000" sketch:type="MSShapeGroup" x="12" y="12" width="4" height="4"></rect>
            <rect id="Rectangle-145-Copy-25" fill="#000000" sketch:type="MSShapeGroup" x="16" y="16" width="4" height="4"></rect>
            <rect id="Rectangle-145-Copy-26" fill="#000000" sketch:type="MSShapeGroup" x="20" y="20" width="4" height="4"></rect>
            <rect id="Rectangle-145-Copy-36" fill="#000000" sketch:type="MSShapeGroup" x="16" y="24" width="4" height="4"></rect>
            <rect id="Rectangle-145-Copy-39" fill="#000000" sketch:type="MSShapeGroup" x="36" y="24" width="4" height="4"></rect>
            <rect id="Rectangle-145-Copy-40" fill="#000000" sketch:type="MSShapeGroup" x="40" y="28" width="4" height="4"></rect>
            <rect id="Rectangle-145-Copy-41" fill="#000000" sketch:type="MSShapeGroup" x="44" y="32" width="4" height="4"></rect>
            <rect id="Rectangle-145-Copy-37" fill="#000000" sketch:type="MSShapeGroup" x="12" y="28" width="4" height="4"></rect>
            <rect id="Rectangle-145-Copy-38" fill="#000000" sketch:type="MSShapeGroup" x="8" y="32" width="4" height="4"></rect>
            <rect id="Rectangle-145-Copy-43" fill="#EB4B4B" sketch:type="MSShapeGroup" x="4" y="36" width="4" height="4"></rect>
            <rect id="Rectangle-145-Copy-44" fill="#EB4B4B" sketch:type="MSShapeGroup" x="16" y="36" width="4" height="4"></rect>
            <rect id="Rectangle-145-Copy-47" fill="#4C9FFF" sketch:type="MSShapeGroup" x="12" y="36" width="4" height="4"></rect>
            <rect id="Rectangle-145-Copy-48" fill="#4C9FFF" sketch:type="MSShapeGroup" x="24" y="36" width="4" height="4"></rect>
            <rect id="Rectangle-145-Copy-49" fill="#4C9FFF" sketch:type="MSShapeGroup" x="36" y="36" width="4" height="4"></rect>
            <rect id="Rectangle-145-Copy-52" fill="#4C9FFF" sketch:type="MSShapeGroup" x="48" y="36" width="4" height="4"></rect>
            <rect id="Rectangle-145-Copy-45" fill="#EB4B4B" sketch:type="MSShapeGroup" x="28" y="36" width="4" height="4"></rect>
            <rect id="Rectangle-145-Copy-46" fill="#EB4B4B" sketch:type="MSShapeGroup" x="40" y="36" width="4" height="4"></rect>
            <rect id="Rectangle-145-Copy-27" fill="#000000" sketch:type="MSShapeGroup" x="24" y="24" width="4" height="4"></rect>
            <rect id="Rectangle-145-Copy-35" fill="#000000" sketch:type="MSShapeGroup" x="28" y="24" width="4" height="4"></rect>
            <rect id="Rectangle-145-Copy-28" fill="#000000" sketch:type="MSShapeGroup" x="32" y="20" width="4" height="4"></rect>
            <rect id="Rectangle-145-Copy-29" fill="#000000" sketch:type="MSShapeGroup" x="36" y="16" width="4" height="4"></rect>
            <rect id="Rectangle-145-Copy-30" fill="#000000" sketch:type="MSShapeGroup" x="40" y="12" width="4" height="4"></rect>
            <rect id="Rectangle-145-Copy-31" fill="#000000" sketch:type="MSShapeGroup" x="44" y="8" width="4" height="4"></rect>
            <rect id="Rectangle-145-Copy-32" fill="#000000" sketch:type="MSShapeGroup" x="48" y="4" width="4" height="4"></rect>
            <rect id="Rectangle-145-Copy-11" fill="#000000" sketch:type="MSShapeGroup" x="0" y="8" width="4" height="4"></rect>
            <rect id="Rectangle-145-Copy-12" fill="#000000" sketch:type="MSShapeGroup" x="0" y="12" width="4" height="4"></rect>
            <rect id="Rectangle-145-Copy-13" fill="#000000" sketch:type="MSShapeGroup" x="0" y="16" width="4" height="4"></rect>
            <rect id="Rectangle-145-Copy-14" fill="#000000" sketch:type="MSShapeGroup" x="0" y="20" width="4" height="4"></rect>
            <rect id="Rectangle-145-Copy-15" fill="#000000" sketch:type="MSShapeGroup" x="0" y="24" width="4" height="4"></rect>
            <rect id="Rectangle-145-Copy-16" fill="#000000" sketch:type="MSShapeGroup" x="0" y="28" width="4" height="4"></rect>
            <rect id="Rectangle-145-Copy-19" fill="#000000" sketch:type="MSShapeGroup" x="0" y="32" width="4" height="4"></rect>
            <rect id="Rectangle-145-Copy-33" fill="#000000" sketch:type="MSShapeGroup" x="0" y="36" width="4" height="4"></rect>
            <rect id="Rectangle-145-Copy-42" fill="#000000" sketch:type="MSShapeGroup" x="52" y="36" width="4" height="4"></rect>
            <rect id="Rectangle-145-Copy-21" fill="#000000" sketch:type="MSShapeGroup" x="4" y="40" width="48" height="4"></rect>
            <rect id="Rectangle-145-Copy-20" fill="#000000" sketch:type="MSShapeGroup" x="52" y="32" width="4" height="4"></rect>
            <rect id="Rectangle-145-Copy" fill="#000000" sketch:type="MSShapeGroup" x="8" y="0" width="4" height="4"></rect>
            <rect id="Rectangle-145-Copy-2" fill="#000000" sketch:type="MSShapeGroup" x="12" y="0" width="4" height="4"></rect>
            <rect id="Rectangle-145-Copy-3" fill="#000000" sketch:type="MSShapeGroup" x="16" y="0" width="4" height="4"></rect>
            <rect id="Rectangle-145-Copy-4" fill="#000000" sketch:type="MSShapeGroup" x="20" y="0" width="4" height="4"></rect>
            <rect id="Rectangle-145-Copy-5" fill="#000000" sketch:type="MSShapeGroup" x="24" y="0" width="4" height="4"></rect>
            <rect id="Rectangle-145-Copy-6" fill="#000000" sketch:type="MSShapeGroup" x="28" y="0" width="4" height="4"></rect>
            <rect id="Rectangle-145-Copy-7" fill="#000000" sketch:type="MSShapeGroup" x="32" y="0" width="4" height="4"></rect>
            <rect id="Rectangle-145-Copy-8" fill="#000000" sketch:type="MSShapeGroup" x="36" y="0" width="4" height="4"></rect>
            <rect id="Rectangle-145-Copy-9" fill="#000000" sketch:type="MSShapeGroup" x="40" y="0" width="4" height="4"></rect>
            <rect id="Rectangle-145-Copy-17" fill="#000000" sketch:type="MSShapeGroup" x="44" y="0" width="4" height="4"></rect>
            <rect id="Rectangle-145-Copy-34" fill="#000000" sketch:type="MSShapeGroup" x="48" y="0" width="4" height="4"></rect>
            <rect id="Rectangle-145-Copy-18" fill="#000000" sketch:type="MSShapeGroup" x="52" y="4" width="4" height="28"></rect>
        </g>
    </g>
</svg>