<?xml version="1.0" encoding="UTF-8" standalone="no"?>
<svg width="212px" height="24px" viewBox="0 0 212 24" version="1.1" xmlns="http://www.w3.org/2000/svg" xmlns:xlink="http://www.w3.org/1999/xlink" xmlns:sketch="http://www.bohemiancoding.com/sketch/ns">
    <!-- Generator: Sketch 3.3.3 (12072) - http://www.bohemiancoding.com/sketch -->
    <title>Meet to genius</title>
    <desc>Created with Sketch.</desc>
    <defs></defs>
    <g id="Page-1" stroke="none" stroke-width="1" fill="none" fill-rule="evenodd" sketch:type="MSPage">
        <g id="Meet-to-genius" sketch:type="MSLayerGroup" fill="#000000">
            <rect id="Rectangle-90" sketch:type="MSShapeGroup" x="0" y="0" width="4" height="16"></rect>
            <rect id="Rectangle-90-Copy" sketch:type="MSShapeGroup" x="4" y="0" width="4" height="4"></rect>
            <rect id="Rectangle-90-Copy-2" sketch:type="MSShapeGroup" x="8" y="4" width="4" height="4"></rect>
            <rect id="Rectangle-90-Copy-3" sketch:type="MSShapeGroup" x="12" y="0" width="4" height="4"></rect>
            <rect id="Rectangle-90-Copy-5" sketch:type="MSShapeGroup" x="28" y="4" width="4" height="4"></rect>
            <rect id="Rectangle-90-Copy-6" sketch:type="MSShapeGroup" x="32" y="8" width="4" height="4"></rect>
            <rect id="Rectangle-90-Copy-9" sketch:type="MSShapeGroup" x="44" y="4" width="4" height="4"></rect>
            <rect id="Rectangle-90-Copy-10" sketch:type="MSShapeGroup" x="40" y="8" width="4" height="4"></rect>
            <rect id="Rectangle-90-Copy-11" sketch:type="MSShapeGroup" x="48" y="8" width="4" height="4"></rect>
            <rect id="Rectangle-90-Copy-14" sketch:type="MSShapeGroup" x="60" y="4" width="4" height="4"></rect>
            <rect id="Rectangle-90-Copy-15" sketch:type="MSShapeGroup" x="60" y="12" width="4" height="4"></rect>
            <rect id="Rectangle-90-Copy-16" sketch:type="MSShapeGroup" x="64" y="16" width="4" height="4"></rect>
            <rect id="Rectangle-90-Copy-17" sketch:type="MSShapeGroup" x="80" y="8" width="4" height="4"></rect>
            <rect id="Rectangle-90-Copy-18" sketch:type="MSShapeGroup" x="84" y="8" width="4" height="4"></rect>
            <rect id="Rectangle-90-Copy-21" sketch:type="MSShapeGroup" x="88" y="8" width="4" height="4"></rect>
            <rect id="Rectangle-90-Copy-23" sketch:type="MSShapeGroup" x="96" y="8" width="4" height="4"></rect>
            <rect id="Rectangle-90-Copy-24" sketch:type="MSShapeGroup" x="100" y="4" width="4" height="4"></rect>
            <rect id="Rectangle-90-Copy-25" sketch:type="MSShapeGroup" x="100" y="12" width="4" height="4"></rect>
            <rect id="Rectangle-90-Copy-26" sketch:type="MSShapeGroup" x="104" y="8" width="4" height="4"></rect>
            <rect id="Rectangle-90-Copy-27" sketch:type="MSShapeGroup" x="120" y="8" width="4" height="4"></rect>
            <rect id="Rectangle-90-Copy-28" sketch:type="MSShapeGroup" x="124" y="4" width="4" height="4"></rect>
            <rect id="Rectangle-90-Copy-29" sketch:type="MSShapeGroup" x="128" y="0" width="4" height="4"></rect>
            <rect id="Rectangle-90-Copy-30" sketch:type="MSShapeGroup" x="128" y="8" width="4" height="4"></rect>
            <rect id="Rectangle-90-Copy-31" sketch:type="MSShapeGroup" x="124" y="12" width="4" height="4"></rect>
            <rect id="Rectangle-90-Copy-32" sketch:type="MSShapeGroup" x="120" y="16" width="4" height="4"></rect>
            <rect id="Rectangle-90-Copy-33" sketch:type="MSShapeGroup" x="120" y="20" width="4" height="4"></rect>
            <rect id="Rectangle-90-Copy-34" sketch:type="MSShapeGroup" x="124" y="20" width="4" height="4"></rect>
            <rect id="Rectangle-90-Copy-35" sketch:type="MSShapeGroup" x="128" y="16" width="4" height="4"></rect>
            <rect id="Rectangle-90-Copy-36" sketch:type="MSShapeGroup" x="136" y="12" width="4" height="8"></rect>
            <rect id="Rectangle-90-Copy-37" sketch:type="MSShapeGroup" x="140" y="8" width="4" height="4"></rect>
            <rect id="Rectangle-90-Copy-38" sketch:type="MSShapeGroup" x="144" y="12" width="4" height="4"></rect>
            <rect id="Rectangle-90-Copy-41" sketch:type="MSShapeGroup" x="156" y="12" width="4" height="4"></rect>
            <rect id="Rectangle-90-Copy-42" sketch:type="MSShapeGroup" x="160" y="16" width="4" height="4"></rect>
            <rect id="Rectangle-90-Copy-43" sketch:type="MSShapeGroup" x="168" y="8" width="4" height="4"></rect>
            <rect id="Rectangle-90-Copy-44" sketch:type="MSShapeGroup" x="168" y="16" width="4" height="4"></rect>
            <rect id="Rectangle-90-Copy-45" sketch:type="MSShapeGroup" x="176" y="12" width="4" height="4"></rect>
            <rect id="Rectangle-90-Copy-46" sketch:type="MSShapeGroup" x="180" y="16" width="4" height="4"></rect>
            <rect id="Rectangle-90-Copy-47" sketch:type="MSShapeGroup" x="184" y="16" width="4" height="4"></rect>
            <rect id="Rectangle-90-Copy-48" sketch:type="MSShapeGroup" x="184" y="12" width="4" height="4"></rect>
            <rect id="Rectangle-90-Copy-49" sketch:type="MSShapeGroup" x="192" y="12" width="4" height="4"></rect>
            <rect id="Rectangle-90-Copy-50" sketch:type="MSShapeGroup" x="196" y="8" width="4" height="4"></rect>
            <rect id="Rectangle-90-Copy-51" sketch:type="MSShapeGroup" x="196" y="16" width="4" height="4"></rect>
            <rect id="Rectangle-90-Copy-53" sketch:type="MSShapeGroup" x="208" y="4" width="4" height="12"></rect>
            <rect id="Rectangle-90-Copy-54" sketch:type="MSShapeGroup" x="208" y="20" width="4" height="4"></rect>
            <rect id="Rectangle-90-Copy-52" sketch:type="MSShapeGroup" x="192" y="20" width="4" height="4"></rect>
            <rect id="Rectangle-90-Copy-40" sketch:type="MSShapeGroup" x="152" y="12" width="4" height="8"></rect>
            <rect id="Rectangle-90-Copy-39" sketch:type="MSShapeGroup" x="140" y="16" width="4" height="4"></rect>
            <rect id="Rectangle-90-Copy-19" sketch:type="MSShapeGroup" x="84" y="4" width="4" height="4"></rect>
            <rect id="Rectangle-90-Copy-20" sketch:type="MSShapeGroup" x="84" y="12" width="4" height="4"></rect>
            <rect id="Rectangle-90-Copy-22" sketch:type="MSShapeGroup" x="88" y="16" width="4" height="4"></rect>
            <rect id="Rectangle-90-Copy-13" sketch:type="MSShapeGroup" x="56" y="8" width="12" height="4"></rect>
            <rect id="Rectangle-90-Copy-12" sketch:type="MSShapeGroup" x="40" y="12" width="8" height="4"></rect>
            <rect id="Rectangle-90-Copy-7" sketch:type="MSShapeGroup" x="24" y="8" width="4" height="4"></rect>
            <rect id="Rectangle-90-Copy-8" sketch:type="MSShapeGroup" x="24" y="12" width="8" height="4"></rect>
            <rect id="Rectangle-90-Copy-4" sketch:type="MSShapeGroup" x="16" y="0" width="4" height="16"></rect>
        </g>
    </g>
</svg>