<?xml version="1.0" encoding="UTF-8" standalone="no"?>
<svg width="200px" height="60px" viewBox="0 0 200 60" version="1.1" xmlns="http://www.w3.org/2000/svg" xmlns:xlink="http://www.w3.org/1999/xlink" xmlns:sketch="http://www.bohemiancoding.com/sketch/ns">
    <!-- Generator: Sketch 3.3.2 (12043) - http://www.bohemiancoding.com/sketch -->
    <title>btn_android_en</title>
    <desc>Created with Sketch.</desc>
    <defs></defs>
    <g id="Page-2" stroke="none" stroke-width="1" fill="none" fill-rule="evenodd" sketch:type="MSPage">
        <g id="-" sketch:type="MSArtboardGroup" transform="translate(-740.000000, -660.000000)">
            <g id="download-buttons" sketch:type="MSLayerGroup" transform="translate(500.000000, 660.000000)">
                <g id="btn_android_en" transform="translate(240.000000, 0.000000)" sketch:type="MSShapeGroup">
                    <path d="M0,7.99854961 L0,52.0014504 C0,56.4189274 3.57762838,60 7.99464702,60 L192.005353,60 C196.420675,60 200,56.4264107 200,52.0014504 L200,7.99854961 C200,3.58107264 196.422372,0 192.005353,0 L7.99464702,0 C3.57932539,0 0,3.57358932 0,7.99854961 Z" id="Btn_bg" fill="#000000"></path>
                    <path d="M41.9884722,13.3553072 L42.4337048,12.7001072 L42.8707978,12.0537072 L43.8548676,10.6033072 C43.9753327,10.4249072 43.9264955,10.1849072 43.7466118,10.0657072 C43.5634722,9.94650721 43.3192862,9.99450721 43.1980071,10.1737072 L42.1439374,11.7289072 L41.7003327,12.3825072 L41.2502164,13.0449072 C39.8241699,12.5017072 38.2345188,12.1969072 36.5553327,12.1969072 C34.8777746,12.1969072 33.2881234,12.5017072 31.8620769,13.0449072 L31.4144025,12.3825072 L30.9707978,11.7289072 L29.9151002,10.1729072 C29.794635,9.99450721 29.549635,9.94650721 29.3673095,10.0649072 C29.1866118,10.1833072 29.1377746,10.4241072 29.2582397,10.6025072 L30.2414955,12.0529072 L30.6802164,12.6993072 L31.125449,13.3545072 C27.7760304,14.8873072 25.5107978,17.7913072 25.5107978,21.1153072 L47.6031234,21.1153072 C47.6031234,17.7921072 45.3378909,14.8881072 41.9884722,13.3553072 L41.9884722,13.3553072 Z M31.8230071,18.0137072 C31.1677746,18.0137072 30.6387048,17.4929072 30.6387048,16.8505072 C30.6387048,16.2081072 31.1677746,15.6881072 31.8230071,15.6881072 C32.4766118,15.6881072 33.0056815,16.2081072 33.0056815,16.8505072 C33.0056815,17.4929072 32.4766118,18.0137072 31.8230071,18.0137072 L31.8230071,18.0137072 Z M41.2901002,18.0137072 C40.6364955,18.0137072 40.1074257,17.4929072 40.1074257,16.8505072 C40.1074257,16.2081072 40.6364955,15.6881072 41.2901002,15.6881072 C41.9453327,15.6881072 42.4744025,16.2081072 42.4744025,16.8505072 C42.4744025,17.4929072 41.9453327,18.0137072 41.2901002,18.0137072 Z M25.6809141,22.6673072 L25.5107978,22.6673072 L25.5107978,24.6017072 L25.5107978,26.1801072 L25.5107978,39.7289072 C25.5107978,41.0833072 26.6307978,42.1849072 28.0088211,42.1849072 L29.812542,42.1849072 C29.7523095,42.3897072 29.7181234,42.6065072 29.7181234,42.8305072 L29.7181234,42.9601072 L29.7181234,43.7353072 L29.7181234,47.7433072 C29.7181234,49.0273072 30.7787048,50.0697072 32.0859141,50.0697072 C33.3931234,50.0697072 34.4528909,49.0273072 34.4528909,47.7433072 L34.4528909,43.7353072 L34.4528909,42.9601072 L34.4528909,42.8305072 C34.4528909,42.6073072 34.4178909,42.3897072 34.3592862,42.1849072 L38.754635,42.1849072 C38.6944025,42.3897072 38.6610304,42.6065072 38.6610304,42.8305072 L38.6610304,42.9601072 L38.6610304,43.7353072 L38.6610304,47.7433072 C38.6610304,49.0273072 39.7216118,50.0697072 41.0280071,50.0697072 C42.3344025,50.0697072 43.3949839,49.0273072 43.3949839,47.7433072 L43.3949839,43.7353072 L43.3949839,42.9601072 L43.3949839,42.8305072 C43.3949839,42.6073072 43.3616118,42.3897072 43.3013792,42.1849072 L45.1042862,42.1849072 C46.4823095,42.1849072 47.6031234,41.0833072 47.6031234,39.7289072 L47.6031234,26.1801072 L47.6031234,24.6017072 L47.6031234,22.6673072 L47.4330071,22.6673072 L25.6809141,22.6673072 L25.6809141,22.6673072 Z M21.5647513,22.6673072 C20.257542,22.6673072 19.1977746,23.7081072 19.1977746,24.9945072 L19.1977746,34.9457072 C19.1977746,36.2297072 20.257542,37.2721072 21.5647513,37.2721072 C22.8711467,37.2721072 23.9317281,36.2297072 23.9317281,34.9457072 L23.9317281,24.9937072 C23.9317281,23.7081072 22.8719606,22.6673072 21.5647513,22.6673072 Z M51.5491699,22.6673072 C50.2411467,22.6673072 49.1821932,23.7081072 49.1821932,24.9945072 L49.1821932,34.9457072 C49.1821932,36.2297072 50.2411467,37.2721072 51.5491699,37.2721072 C52.8555653,37.2721072 53.9145188,36.2297072 53.9145188,34.9457072 L53.9145188,24.9937072 C53.9145188,23.7081072 52.8555653,22.6673072 51.5491699,22.6673072 Z" id="Android" fill="#FFFFFF"></path>
                    <path d="M74.3447266,43.3583984 L68.2861328,43.3583984 L67.0185547,47 L64.1933594,47 L70.1015625,31.359375 L72.5400391,31.359375 L78.4589844,47 L75.6230469,47 L74.3447266,43.3583984 Z M69.0488281,41.1669922 L73.5820312,41.1669922 L71.3154297,34.6787109 L69.0488281,41.1669922 Z M81.8857422,35.3769531 L81.9609375,36.7197266 C82.3691427,36.2255835 82.8596977,35.8424493 83.4326172,35.5703125 C84.0055367,35.2981757 84.6429001,35.1621094 85.3447266,35.1621094 C85.9033231,35.1621094 86.4099912,35.2390943 86.8647461,35.3930664 C87.319501,35.5470385 87.7080062,35.7958967 88.0302734,36.1396484 C88.3525407,36.4834002 88.6013989,36.9309868 88.7768555,37.4824219 C88.9523121,38.0338569 89.0400391,38.7034466 89.0400391,39.4912109 L89.0400391,47 L86.4296875,47 L86.4296875,39.4697266 C86.4296875,39.0686829 86.3849288,38.7303074 86.2954102,38.4545898 C86.2058915,38.1788723 86.0751962,37.955079 85.9033203,37.7832031 C85.7314445,37.6113273 85.5183932,37.4877933 85.2641602,37.4125977 C85.0099271,37.337402 84.7181006,37.2998047 84.3886719,37.2998047 C83.8515598,37.2998047 83.3842793,37.4287096 82.9868164,37.6865234 C82.5893535,37.9443372 82.2724621,38.2916645 82.0361328,38.7285156 L82.0361328,47 L79.4257812,47 L79.4257812,35.3769531 L81.8857422,35.3769531 Z M91.2099609,41.1025391 C91.2099609,40.2216753 91.3155914,39.4160193 91.5268555,38.6855469 C91.7381195,37.9550745 92.0424785,37.3284531 92.4399414,36.8056641 C92.8374043,36.282875 93.3190076,35.8782566 93.8847656,35.5917969 C94.4505237,35.3053371 95.0878871,35.1621094 95.796875,35.1621094 C96.4414095,35.1621094 97.0089494,35.2731109 97.4995117,35.4951172 C97.9900741,35.7171235 98.4179669,36.0358052 98.7832031,36.4511719 L98.7832031,30.5 L101.393555,30.5 L101.393555,47 L99.0302734,47 L98.9013672,45.796875 C98.5289695,46.2480491 98.0867539,46.5971667 97.574707,46.8442383 C97.0626602,47.0913098 96.4628941,47.2148438 95.7753906,47.2148438 C95.0735642,47.2148438 94.4415718,47.066245 93.8793945,46.769043 C93.3172172,46.471841 92.8391947,46.0618516 92.4453125,45.5390625 C92.0514303,45.0162734 91.7470714,44.3950231 91.5322266,43.675293 C91.3173817,42.9555628 91.2099609,42.1731813 91.2099609,41.328125 L91.2099609,41.1025391 Z M93.8203125,41.328125 C93.8203125,41.8437526 93.8686519,42.3289365 93.965332,42.7836914 C94.0620122,43.2384463 94.215982,43.6376936 94.4272461,43.9814453 C94.6385102,44.325197 94.9088525,44.5955394 95.2382812,44.7924805 C95.56771,44.9894216 95.9687476,45.0878906 96.4414062,45.0878906 C97.0286488,45.0878906 97.510252,44.9571953 97.8862305,44.6958008 C98.2622089,44.4344062 98.5611968,44.0888693 98.7832031,43.6591797 L98.7832031,38.6962891 C98.5611968,38.2665994 98.2604186,37.9264335 97.8808594,37.6757812 C97.5013002,37.425129 97.0286487,37.2998047 96.4628906,37.2998047 C95.990232,37.2998047 95.587404,37.4000641 95.2543945,37.6005859 C94.9213851,37.8011078 94.6492524,38.0732405 94.4379883,38.4169922 C94.2267242,38.7607439 94.070964,39.1635719 93.9707031,39.6254883 C93.8704422,40.0874047 93.8203125,40.57975 93.8203125,41.1025391 L93.8203125,41.328125 Z M110.202148,37.7617188 C110.030273,37.7330728 109.856609,37.7115886 109.681152,37.6972656 C109.505696,37.6829426 109.324871,37.6757812 109.138672,37.6757812 C108.50846,37.6757812 107.996421,37.7975248 107.602539,38.0410156 C107.208657,38.2845064 106.91504,38.6210916 106.72168,39.0507812 L106.72168,47 L104.111328,47 L104.111328,35.3769531 L106.603516,35.3769531 L106.667969,36.6767578 C106.96159,36.2040992 107.32503,35.8334974 107.758301,35.5649414 C108.191571,35.2963854 108.70182,35.1621094 109.289062,35.1621094 C109.439454,35.1621094 109.609537,35.1782225 109.799316,35.2104492 C109.989096,35.2426759 110.126953,35.2766925 110.212891,35.3125 L110.202148,37.7617188 Z M110.975586,41.0810547 C110.975586,40.2359984 111.09912,39.4536169 111.346191,38.7338867 C111.593263,38.0141566 111.947752,37.3893256 112.409668,36.859375 C112.871584,36.3294244 113.435544,35.914064 114.101562,35.6132812 C114.767581,35.3124985 115.523108,35.1621094 116.368164,35.1621094 C117.220382,35.1621094 117.98307,35.3124985 118.65625,35.6132812 C119.32943,35.914064 119.89697,36.3294244 120.358887,36.859375 C120.820803,37.3893256 121.173501,38.0141566 121.416992,38.7338867 C121.660483,39.4536169 121.782227,40.2359984 121.782227,41.0810547 L121.782227,41.3066406 C121.782227,42.1516969 121.660483,42.9358688 121.416992,43.6591797 C121.173501,44.3824906 120.820803,45.0073216 120.358887,45.5336914 C119.89697,46.0600612 119.331221,46.471841 118.661621,46.769043 C117.992021,47.066245 117.234705,47.2148438 116.389648,47.2148438 C115.537431,47.2148438 114.776533,47.066245 114.106934,46.769043 C113.437334,46.471841 112.871584,46.0600612 112.409668,45.5336914 C111.947752,45.0073216 111.593263,44.3824906 111.346191,43.6591797 C111.09912,42.9358688 110.975586,42.1516969 110.975586,41.3066406 L110.975586,41.0810547 Z M113.585938,41.3066406 C113.585938,41.8294297 113.639648,42.3235654 113.74707,42.7890625 C113.854493,43.2545596 114.022785,43.6609683 114.251953,44.0083008 C114.481121,44.3556332 114.772947,44.6295563 115.127441,44.8300781 C115.481935,45.0306 115.902667,45.1308594 116.389648,45.1308594 C116.869469,45.1308594 117.286619,45.0306 117.641113,44.8300781 C117.995607,44.6295563 118.285643,44.3556332 118.51123,44.0083008 C118.736818,43.6609683 118.90511,43.2545596 119.016113,42.7890625 C119.127116,42.3235654 119.182617,41.8294297 119.182617,41.3066406 L119.182617,41.0810547 C119.182617,40.5654271 119.127116,40.0766625 119.016113,39.6147461 C118.90511,39.1528297 118.735027,38.7482114 118.505859,38.4008789 C118.276692,38.0535464 117.984865,37.7760427 117.630371,37.5683594 C117.275877,37.360676 116.855146,37.2568359 116.368164,37.2568359 C115.881182,37.2568359 115.464032,37.360676 115.116699,37.5683594 C114.769367,37.7760427 114.481121,38.0535464 114.251953,38.4008789 C114.022785,38.7482114 113.854493,39.1528297 113.74707,39.6147461 C113.639648,40.0766625 113.585938,40.5654271 113.585938,41.0810547 L113.585938,41.3066406 Z M126.766602,47 L124.15625,47 L124.15625,35.3769531 L126.766602,35.3769531 L126.766602,47 Z M123.995117,32.3583984 C123.995117,31.9573548 124.122232,31.6243503 124.376465,31.359375 C124.630698,31.0943997 124.994138,30.9619141 125.466797,30.9619141 C125.939455,30.9619141 126.304686,31.0943997 126.5625,31.359375 C126.820314,31.6243503 126.949219,31.9573548 126.949219,32.3583984 C126.949219,32.7522806 126.820314,33.0799141 126.5625,33.3413086 C126.304686,33.6027031 125.939455,33.7333984 125.466797,33.7333984 C124.994138,33.7333984 124.630698,33.6027031 124.376465,33.3413086 C124.122232,33.0799141 123.995117,32.7522806 123.995117,32.3583984 Z M129.119141,41.1025391 C129.119141,40.2216753 129.224771,39.4160193 129.436035,38.6855469 C129.647299,37.9550745 129.951658,37.3284531 130.349121,36.8056641 C130.746584,36.282875 131.228187,35.8782566 131.793945,35.5917969 C132.359703,35.3053371 132.997067,35.1621094 133.706055,35.1621094 C134.350589,35.1621094 134.918129,35.2731109 135.408691,35.4951172 C135.899254,35.7171235 136.327147,36.0358052 136.692383,36.4511719 L136.692383,30.5 L139.302734,30.5 L139.302734,47 L136.939453,47 L136.810547,45.796875 C136.438149,46.2480491 135.995934,46.5971667 135.483887,46.8442383 C134.97184,47.0913098 134.372074,47.2148438 133.68457,47.2148438 C132.982744,47.2148438 132.350752,47.066245 131.788574,46.769043 C131.226397,46.471841 130.748374,46.0618516 130.354492,45.5390625 C129.96061,45.0162734 129.656251,44.3950231 129.441406,43.675293 C129.226561,42.9555628 129.119141,42.1731813 129.119141,41.328125 L129.119141,41.1025391 Z M131.729492,41.328125 C131.729492,41.8437526 131.777832,42.3289365 131.874512,42.7836914 C131.971192,43.2384463 132.125162,43.6376936 132.336426,43.9814453 C132.54769,44.325197 132.818032,44.5955394 133.147461,44.7924805 C133.47689,44.9894216 133.877927,45.0878906 134.350586,45.0878906 C134.937828,45.0878906 135.419432,44.9571953 135.79541,44.6958008 C136.171389,44.4344062 136.470376,44.0888693 136.692383,43.6591797 L136.692383,38.6962891 C136.470376,38.2665994 136.169598,37.9264335 135.790039,37.6757812 C135.41048,37.425129 134.937828,37.2998047 134.37207,37.2998047 C133.899412,37.2998047 133.496584,37.4000641 133.163574,37.6005859 C132.830565,37.8011078 132.558432,38.0732405 132.347168,38.4169922 C132.135904,38.7607439 131.980144,39.1635719 131.879883,39.6254883 C131.779622,40.0874047 131.729492,40.57975 131.729492,41.1025391 L131.729492,41.328125 Z M154.328125,47 C154.263021,46.8177074 154.212565,46.5947279 154.176758,46.3310547 C154.14095,46.0673815 154.116537,45.7988295 154.103516,45.5253906 C153.927733,45.7532563 153.719402,45.9680979 153.478516,46.1699219 C153.237629,46.3717458 152.967449,46.5475253 152.667969,46.6972656 C152.368488,46.847006 152.039715,46.9674475 151.681641,47.0585938 C151.323566,47.14974 150.9362,47.1953125 150.519531,47.1953125 C150.005206,47.1953125 149.538088,47.1204435 149.118164,46.9707031 C148.69824,46.8209628 148.340171,46.611004 148.043945,46.3408203 C147.74772,46.0706367 147.51823,45.753257 147.355469,45.3886719 C147.192708,45.0240867 147.111328,44.6269553 147.111328,44.1972656 C147.111328,43.6829401 147.222004,43.2190776 147.443359,42.8056641 C147.664715,42.3922505 147.983722,42.0406916 148.400391,41.7509766 C148.817059,41.4612616 149.323239,41.2399096 149.918945,41.0869141 C150.514651,40.9339185 151.18359,40.8574219 151.925781,40.8574219 L154.09375,40.8574219 L154.09375,39.65625 C154.09375,38.9010379 153.861005,38.3069683 153.395508,37.8740234 C152.930011,37.4410786 152.251307,37.2246094 151.359375,37.2246094 C150.949217,37.2246094 150.571616,37.2799474 150.226562,37.390625 C149.881509,37.5013026 149.58366,37.6542959 149.333008,37.8496094 C149.082356,38.0449229 148.887045,38.2711576 148.74707,38.5283203 C148.607096,38.7854831 148.537109,39.0605454 148.537109,39.3535156 L147.365234,39.34375 C147.365234,38.9466126 147.46289,38.5625019 147.658203,38.1914062 C147.853517,37.8203106 148.128579,37.4899103 148.483398,37.2001953 C148.838218,36.9104803 149.264646,36.6777353 149.762695,36.5019531 C150.260745,36.326171 150.812497,36.2382812 151.417969,36.2382812 C151.977867,36.2382812 152.493813,36.3098951 152.96582,36.453125 C153.437828,36.5963549 153.843097,36.8111965 154.181641,37.0976562 C154.520184,37.384116 154.783853,37.7421854 154.972656,38.171875 C155.161459,38.6015646 155.255859,39.1028617 155.255859,39.6757812 L155.255859,44.7929688 C155.255859,44.9752613 155.26237,45.1640615 155.275391,45.359375 C155.288412,45.5546885 155.30957,45.7434887 155.338867,45.9257812 C155.368164,46.1080738 155.402344,46.2822257 155.441406,46.4482422 C155.480469,46.6142586 155.526041,46.759114 155.578125,46.8828125 L155.578125,47 L154.328125,47 Z M150.65625,46.1601562 C151.079429,46.1601562 151.471678,46.1064458 151.833008,45.9990234 C152.194338,45.891601 152.521483,45.7434905 152.814453,45.5546875 C153.107423,45.3658845 153.361327,45.1461601 153.576172,44.8955078 C153.791017,44.6448555 153.963541,44.3730483 154.09375,44.0800781 L154.09375,41.7558594 L152.091797,41.7558594 C151.492836,41.7558594 150.957359,41.8095698 150.485352,41.9169922 C150.013344,42.0244146 149.614585,42.1790354 149.289062,42.3808594 C148.96354,42.5826833 148.714519,42.8284491 148.541992,43.1181641 C148.369465,43.4078791 148.283203,43.7350242 148.283203,44.0996094 C148.283203,44.3860691 148.338541,44.6546211 148.449219,44.9052734 C148.559896,45.1559257 148.717772,45.3740225 148.922852,45.5595703 C149.127931,45.7451181 149.376952,45.891601 149.669922,45.9990234 C149.962892,46.1064458 150.291665,46.1601562 150.65625,46.1601562 Z M166.867188,41.8242188 C166.867188,42.6184936 166.77767,43.3443978 166.598633,44.0019531 C166.419595,44.6595085 166.157554,45.2242815 165.8125,45.6962891 C165.467446,46.1682966 165.045901,46.5361315 164.547852,46.7998047 C164.049802,47.0634779 163.481774,47.1953125 162.84375,47.1953125 C162.088538,47.1953125 161.435875,47.0602227 160.885742,46.7900391 C160.335609,46.5198554 159.881512,46.1471378 159.523438,45.671875 L159.523438,51.0625 L158.361328,51.0625 L158.361328,36.4335938 L159.445312,36.4335938 L159.503906,37.9277344 C159.861981,37.400388 160.31445,36.9869807 160.861328,36.6875 C161.408206,36.3880193 162.059241,36.2382812 162.814453,36.2382812 C163.458988,36.2382812 164.033526,36.3652331 164.538086,36.6191406 C165.042646,36.8730481 165.467446,37.2343727 165.8125,37.703125 C166.157554,38.1718773 166.419595,38.7366503 166.598633,39.3974609 C166.77767,40.0582715 166.867188,40.798824 166.867188,41.6191406 L166.867188,41.8242188 Z M165.695312,41.6191406 C165.695312,41.0071584 165.631837,40.4342475 165.504883,39.9003906 C165.377929,39.3665338 165.185874,38.9042988 164.928711,38.5136719 C164.671548,38.1230449 164.344403,37.8154308 163.947266,37.5908203 C163.550128,37.3662098 163.084638,37.2539062 162.550781,37.2539062 C162.127602,37.2539062 161.753257,37.3092442 161.427734,37.4199219 C161.102212,37.5305995 160.817384,37.67871 160.573242,37.8642578 C160.3291,38.0498056 160.120769,38.2646472 159.948242,38.5087891 C159.775715,38.7529309 159.634115,39.0084622 159.523438,39.2753906 L159.523438,44.34375 C159.647136,44.6106784 159.801757,44.8580718 159.987305,45.0859375 C160.172852,45.3138032 160.390949,45.5107414 160.641602,45.6767578 C160.892254,45.8427743 161.177082,45.9729813 161.496094,46.0673828 C161.815106,46.1617843 162.173175,46.2089844 162.570312,46.2089844 C163.104169,46.2089844 163.566404,46.0966808 163.957031,45.8720703 C164.347658,45.6474598 164.671548,45.3382181 164.928711,44.9443359 C165.185874,44.5504538 165.377929,44.0865912 165.504883,43.5527344 C165.631837,43.0188775 165.695312,42.4427114 165.695312,41.8242188 L165.695312,41.6191406 Z M171.964844,41.6777344 L170.626953,42.9667969 L170.626953,47 L169.455078,47 L169.455078,32 L170.626953,32 L170.626953,41.5996094 L171.730469,40.4082031 L175.773438,36.4335938 L177.248047,36.4335938 L172.765625,40.8867188 L177.638672,47 L176.242188,47 L171.964844,41.6777344 Z" id="Android-apk" fill="#FFFFFF"></path>
                    <path d="M67.1552734,22 L67.1552734,12.046875 L69.9648438,12.046875 C70.621097,12.046875 71.2180963,12.1562489 71.7558594,12.375 C72.2936225,12.5937511 72.7550436,12.9059225 73.1401367,13.3115234 C73.5252298,13.7171244 73.8237294,14.209307 74.0356445,14.7880859 C74.2475597,15.3668649 74.3535156,16.0162724 74.3535156,16.7363281 L74.3535156,17.3242188 C74.3535156,18.0442744 74.2475597,18.693682 74.0356445,19.2724609 C73.8237294,19.8512399 73.5229512,20.3422831 73.1333008,20.7456055 C72.7436504,21.1489278 72.2708361,21.4588205 71.7148438,21.675293 C71.1588514,21.8917654 70.5367873,22 69.8486328,22 L67.1552734,22 Z M68.4677734,13.1269531 L68.4677734,20.9267578 L69.8486328,20.9267578 C70.3772813,20.9267578 70.8421204,20.8413094 71.2431641,20.6704102 C71.6442077,20.4995109 71.9791653,20.2568375 72.2480469,19.9423828 C72.5169284,19.6279281 72.7185866,19.2496767 72.8530273,18.8076172 C72.9874681,18.3655577 73.0546875,17.8710965 73.0546875,17.3242188 L73.0546875,16.7158203 C73.0546875,16.146156 72.9863288,15.6391624 72.8496094,15.1948242 C72.7128899,14.7504861 72.5123711,14.3745133 72.2480469,14.0668945 C71.9837226,13.7592758 71.6601582,13.5257169 71.2773438,13.3662109 C70.8945293,13.2067049 70.4570337,13.1269531 69.9648438,13.1269531 L68.4677734,13.1269531 Z M75.8027344,18.2333984 C75.8027344,17.6956353 75.8813469,17.1977562 76.0385742,16.7397461 C76.1958016,16.281736 76.4191066,15.8841163 76.7084961,15.546875 C76.9978856,15.2096337 77.3499328,14.9453135 77.7646484,14.7539062 C78.1793641,14.562499 78.6442032,14.4667969 79.1591797,14.4667969 C79.6832708,14.4667969 80.1538065,14.562499 80.5708008,14.7539062 C80.9877951,14.9453135 81.3421209,15.2096337 81.6337891,15.546875 C81.9254572,15.8841163 82.1487622,16.281736 82.3037109,16.7397461 C82.4586596,17.1977562 82.5361328,17.6956353 82.5361328,18.2333984 L82.5361328,18.3837891 C82.5361328,18.9215522 82.4586596,19.4194313 82.3037109,19.8774414 C82.1487622,20.3354515 81.9254572,20.7319319 81.6337891,21.0668945 C81.3421209,21.4018571 80.9889344,21.6638988 80.5742188,21.8530273 C80.1595031,22.0421559 79.6923854,22.1367188 79.1728516,22.1367188 C78.6533177,22.1367188 78.1862,22.0421559 77.7714844,21.8530273 C77.3567688,21.6638988 77.0035822,21.4018571 76.7119141,21.0668945 C76.4202459,20.7319319 76.1958016,20.3354515 76.0385742,19.8774414 C75.8813469,19.4194313 75.8027344,18.9215522 75.8027344,18.3837891 L75.8027344,18.2333984 Z M77.0742188,18.3837891 C77.0742188,18.7529315 77.1175126,19.1015609 77.2041016,19.4296875 C77.2906905,19.7578141 77.4217114,20.04606 77.597168,20.2944336 C77.7726246,20.5428072 77.9913724,20.7399081 78.253418,20.8857422 C78.5154635,21.0315763 78.8219383,21.1044922 79.1728516,21.1044922 C79.5192075,21.1044922 79.8245429,21.0315763 80.0888672,20.8857422 C80.3531914,20.7399081 80.5719392,20.5428072 80.7451172,20.2944336 C80.9182951,20.04606 81.049316,19.7578141 81.1381836,19.4296875 C81.2270512,19.1015609 81.2714844,18.7529315 81.2714844,18.3837891 L81.2714844,18.2333984 C81.2714844,17.8688133 81.2270512,17.5213233 81.1381836,17.190918 C81.049316,16.8605127 80.9171558,16.5711275 80.7416992,16.3227539 C80.5662426,16.0743803 80.3463555,15.8761401 80.0820312,15.7280273 C79.817707,15.5799146 79.5100929,15.5058594 79.1591797,15.5058594 C78.8128238,15.5058594 78.5097669,15.5799146 78.25,15.7280273 C77.9902331,15.8761401 77.7726246,16.0743803 77.597168,16.3227539 C77.4217114,16.5711275 77.2906905,16.8605127 77.2041016,17.190918 C77.1175126,17.5213233 77.0742188,17.8688133 77.0742188,18.2333984 L77.0742188,18.3837891 Z M90.6708984,20.2568359 L92.0927734,14.6035156 L93.3574219,14.6035156 L91.2041016,22 L90.1787109,22 L88.3808594,16.3945312 L86.6308594,22 L85.6054688,22 L83.4589844,14.6035156 L84.7167969,14.6035156 L86.1728516,20.140625 L87.8955078,14.6035156 L88.9140625,14.6035156 L90.6708984,20.2568359 Z M95.8388672,14.6035156 L95.8798828,15.5332031 C96.1442071,15.2005192 96.4632143,14.9396168 96.8369141,14.7504883 C97.2106138,14.5613597 97.6298805,14.4667969 98.0947266,14.4667969 C98.4547544,14.4667969 98.7805975,14.5157873 99.0722656,14.6137695 C99.3639338,14.7117518 99.6123037,14.8689768 99.8173828,15.0854492 C100.022462,15.3019217 100.180826,15.5799137 100.29248,15.9194336 C100.404135,16.2589535 100.459961,16.670245 100.459961,17.1533203 L100.459961,22 L99.1953125,22 L99.1953125,17.1396484 C99.1953125,16.8525376 99.1634118,16.6075856 99.0996094,16.4047852 C99.035807,16.2019847 98.9412441,16.0367845 98.815918,15.9091797 C98.6905918,15.7815749 98.5356455,15.6881513 98.3510742,15.6289062 C98.166503,15.5696612 97.9534517,15.5400391 97.7119141,15.5400391 C97.3017558,15.5400391 96.9417333,15.649413 96.6318359,15.8681641 C96.3219386,16.0869152 96.0804045,16.3740217 95.9072266,16.7294922 L95.9072266,22 L94.6425781,22 L94.6425781,14.6035156 L95.8388672,14.6035156 Z M103.741211,22 L102.476562,22 L102.476562,11.5 L103.741211,11.5 L103.741211,22 Z M105.429688,18.2333984 C105.429688,17.6956353 105.5083,17.1977562 105.665527,16.7397461 C105.822755,16.281736 106.04606,15.8841163 106.335449,15.546875 C106.624839,15.2096337 106.976886,14.9453135 107.391602,14.7539062 C107.806317,14.562499 108.271156,14.4667969 108.786133,14.4667969 C109.310224,14.4667969 109.78076,14.562499 110.197754,14.7539062 C110.614748,14.9453135 110.969074,15.2096337 111.260742,15.546875 C111.55241,15.8841163 111.775715,16.281736 111.930664,16.7397461 C112.085613,17.1977562 112.163086,17.6956353 112.163086,18.2333984 L112.163086,18.3837891 C112.163086,18.9215522 112.085613,19.4194313 111.930664,19.8774414 C111.775715,20.3354515 111.55241,20.7319319 111.260742,21.0668945 C110.969074,21.4018571 110.615887,21.6638988 110.201172,21.8530273 C109.786456,22.0421559 109.319339,22.1367188 108.799805,22.1367188 C108.280271,22.1367188 107.813153,22.0421559 107.398438,21.8530273 C106.983722,21.6638988 106.630535,21.4018571 106.338867,21.0668945 C106.047199,20.7319319 105.822755,20.3354515 105.665527,19.8774414 C105.5083,19.4194313 105.429688,18.9215522 105.429688,18.3837891 L105.429688,18.2333984 Z M106.701172,18.3837891 C106.701172,18.7529315 106.744466,19.1015609 106.831055,19.4296875 C106.917644,19.7578141 107.048664,20.04606 107.224121,20.2944336 C107.399578,20.5428072 107.618326,20.7399081 107.880371,20.8857422 C108.142417,21.0315763 108.448891,21.1044922 108.799805,21.1044922 C109.146161,21.1044922 109.451496,21.0315763 109.71582,20.8857422 C109.980145,20.7399081 110.198892,20.5428072 110.37207,20.2944336 C110.545248,20.04606 110.676269,19.7578141 110.765137,19.4296875 C110.854004,19.1015609 110.898438,18.7529315 110.898438,18.3837891 L110.898438,18.2333984 C110.898438,17.8688133 110.854004,17.5213233 110.765137,17.190918 C110.676269,16.8605127 110.544109,16.5711275 110.368652,16.3227539 C110.193196,16.0743803 109.973309,15.8761401 109.708984,15.7280273 C109.44466,15.5799146 109.137046,15.5058594 108.786133,15.5058594 C108.439777,15.5058594 108.13672,15.5799146 107.876953,15.7280273 C107.617186,15.8761401 107.399578,16.0743803 107.224121,16.3227539 C107.048664,16.5711275 106.917644,16.8605127 106.831055,17.190918 C106.744466,17.5213233 106.701172,17.8688133 106.701172,18.2333984 L106.701172,18.3837891 Z M118.31543,22 C118.269857,21.9088537 118.233399,21.7937832 118.206055,21.6547852 C118.178711,21.5157871 118.155925,21.3710945 118.137695,21.2207031 C118.019205,21.3437506 117.885906,21.4610997 117.737793,21.5727539 C117.58968,21.6844081 117.427898,21.7823889 117.252441,21.8666992 C117.076985,21.9510095 116.88672,22.0170896 116.681641,22.0649414 C116.476561,22.1127932 116.260092,22.1367188 116.032227,22.1367188 C115.653969,22.1367188 115.311037,22.0797532 115.003418,21.9658203 C114.695799,21.8518875 114.433758,21.6969411 114.217285,21.5009766 C114.000813,21.305012 113.833334,21.0737318 113.714844,20.8071289 C113.596354,20.540526 113.537109,20.2545588 113.537109,19.9492188 C113.537109,19.5527324 113.614583,19.2029638 113.769531,18.8999023 C113.92448,18.5968409 114.146646,18.3427745 114.436035,18.1376953 C114.725425,17.9326162 115.075193,17.7776698 115.485352,17.6728516 C115.89551,17.5680333 116.353513,17.515625 116.859375,17.515625 L118.117188,17.515625 L118.117188,16.9345703 C118.117188,16.4925108 117.985027,16.1404635 117.720703,15.878418 C117.456379,15.6163724 117.066734,15.4853516 116.551758,15.4853516 C116.314777,15.4853516 116.098308,15.5172523 115.902344,15.5810547 C115.706379,15.6448571 115.5389,15.7303055 115.399902,15.8374023 C115.260904,15.9444992 115.15267,16.0686842 115.075195,16.2099609 C114.997721,16.3512377 114.958984,16.4993482 114.958984,16.6542969 L113.6875,16.6542969 C113.6875,16.3899726 113.756998,16.127931 113.895996,15.8681641 C114.034994,15.6083971 114.232095,15.3748383 114.487305,15.1674805 C114.742514,14.9601227 115.051268,14.7915046 115.413574,14.6616211 C115.775881,14.5317376 116.180336,14.4667969 116.626953,14.4667969 C117.027997,14.4667969 117.398273,14.5180659 117.737793,14.6206055 C118.077313,14.723145 118.367837,14.8780914 118.609375,15.0854492 C118.850913,15.292807 119.040038,15.5514307 119.176758,15.8613281 C119.313477,16.1712255 119.381836,16.5335266 119.381836,16.9482422 L119.381836,20.3867188 C119.381836,20.637371 119.403483,20.900552 119.446777,21.1762695 C119.490072,21.4519871 119.555013,21.6901032 119.641602,21.890625 L119.641602,22 L118.31543,22 Z M116.216797,21.0361328 C116.444663,21.0361328 116.658853,21.0042321 116.859375,20.9404297 C117.059897,20.8766273 117.242187,20.7934575 117.40625,20.690918 C117.570313,20.5883784 117.712727,20.4710293 117.833496,20.3388672 C117.954265,20.2067051 118.048828,20.0699877 118.117188,19.9287109 L118.117188,18.4111328 L117.064453,18.4111328 C116.33984,18.4111328 115.781577,18.5239247 115.389648,18.7495117 C114.997719,18.9750988 114.801758,19.3157529 114.801758,19.7714844 C114.801758,19.9492196 114.83138,20.1155591 114.890625,20.2705078 C114.94987,20.4254565 115.039876,20.558756 115.160645,20.6704102 C115.281413,20.7820644 115.429524,20.8709307 115.60498,20.9370117 C115.780437,21.0030928 115.984374,21.0361328 116.216797,21.0361328 Z M121.056641,18.2402344 C121.056641,17.6751274 121.126139,17.1612979 121.265137,16.6987305 C121.404135,16.2361631 121.601236,15.8396826 121.856445,15.5092773 C122.111655,15.178872 122.41813,14.922527 122.775879,14.7402344 C123.133628,14.5579418 123.533526,14.4667969 123.975586,14.4667969 C124.42676,14.4667969 124.820962,14.5431307 125.158203,14.6958008 C125.495444,14.8484708 125.787108,15.0683579 126.033203,15.3554688 L126.033203,11.5 L127.297852,11.5 L127.297852,22 L126.135742,22 L126.074219,21.2070312 C125.828124,21.507814 125.531903,21.7379549 125.185547,21.8974609 C124.839191,22.0569669 124.431317,22.1367188 123.961914,22.1367188 C123.528969,22.1367188 123.133628,22.0432952 122.775879,21.8564453 C122.41813,21.6695954 122.111655,21.4086931 121.856445,21.0737305 C121.601236,20.7387679 121.404135,20.3422874 121.265137,19.8842773 C121.126139,19.4262672 121.056641,18.9261095 121.056641,18.3837891 L121.056641,18.2402344 Z M122.321289,18.3837891 C122.321289,18.7529315 122.358886,19.1004215 122.434082,19.4262695 C122.509278,19.7521175 122.626627,20.0358061 122.786133,20.2773438 C122.945639,20.5188814 123.148436,20.7102858 123.394531,20.8515625 C123.640626,20.9928392 123.934569,21.0634766 124.276367,21.0634766 C124.499676,21.0634766 124.700194,21.0372724 124.87793,20.9848633 C125.055665,20.9324542 125.216308,20.8583989 125.359863,20.7626953 C125.503419,20.6669917 125.631022,20.5530606 125.742676,20.4208984 C125.85433,20.2887363 125.951171,20.1429044 126.033203,19.9833984 L126.033203,16.5859375 C125.951171,16.4355461 125.855469,16.2965501 125.746094,16.1689453 C125.636718,16.0413405 125.510255,15.9308273 125.366699,15.8374023 C125.223144,15.7439774 125.062501,15.6710615 124.884766,15.6186523 C124.70703,15.5662432 124.50879,15.5400391 124.290039,15.5400391 C123.943683,15.5400391 123.646323,15.6118157 123.397949,15.7553711 C123.149576,15.8989265 122.945639,16.0937488 122.786133,16.3398438 C122.626627,16.5859387 122.509278,16.8719059 122.434082,17.1977539 C122.358886,17.5236019 122.321289,17.8710919 122.321289,18.2402344 L122.321289,18.3837891 Z M134.441406,12.8125 L134.441406,14.6035156 L135.822266,14.6035156 L135.822266,15.5810547 L134.441406,15.5810547 L134.441406,20.1679688 C134.441406,20.359376 134.464192,20.513183 134.509766,20.6293945 C134.555339,20.745606 134.615722,20.8356117 134.690918,20.8994141 C134.766114,20.9632165 134.852701,21.005371 134.950684,21.0258789 C135.048666,21.0463868 135.150065,21.0566406 135.254883,21.0566406 C135.359701,21.0566406 135.470214,21.0463868 135.586426,21.0258789 C135.702637,21.005371 135.792643,20.9882813 135.856445,20.9746094 L135.856445,22 C135.756184,22.0273439 135.626303,22.056966 135.466797,22.0888672 C135.307291,22.1207684 135.113608,22.1367188 134.885742,22.1367188 C134.653319,22.1367188 134.433432,22.1036787 134.226074,22.0375977 C134.018716,21.9715166 133.837566,21.8610034 133.682617,21.7060547 C133.527668,21.551106 133.404623,21.3471692 133.313477,21.0942383 C133.22233,20.8413073 133.176758,20.5302753 133.176758,20.1611328 L133.176758,15.5810547 L131.830078,15.5810547 L131.830078,14.6035156 L133.176758,14.6035156 L133.176758,12.8125 L134.441406,12.8125 Z M138.563477,15.4990234 C138.827801,15.1754541 139.144529,14.922527 139.513672,14.7402344 C139.882814,14.5579418 140.295245,14.4667969 140.750977,14.4667969 C141.111004,14.4667969 141.436847,14.5157873 141.728516,14.6137695 C142.020184,14.7117518 142.268554,14.8689768 142.473633,15.0854492 C142.678712,15.3019217 142.837076,15.5799137 142.94873,15.9194336 C143.060385,16.2589535 143.116211,16.670245 143.116211,17.1533203 L143.116211,22 L141.851562,22 L141.851562,17.1396484 C141.851562,16.8525376 141.819662,16.6075856 141.755859,16.4047852 C141.692057,16.2019847 141.597494,16.0367845 141.472168,15.9091797 C141.346842,15.7815749 141.191895,15.6881513 141.007324,15.6289062 C140.822753,15.5696612 140.609702,15.5400391 140.368164,15.5400391 C139.958006,15.5400391 139.597983,15.649413 139.288086,15.8681641 C138.978189,16.0869152 138.736655,16.3740217 138.563477,16.7294922 L138.563477,22 L137.298828,22 L137.298828,11.5 L138.563477,11.5 L138.563477,15.4990234 Z M148.079102,22.1367188 C147.564125,22.1367188 147.098147,22.0478525 146.681152,21.8701172 C146.264158,21.6923819 145.907554,21.4451513 145.611328,21.128418 C145.315103,20.8116846 145.08724,20.4345725 144.927734,19.9970703 C144.768228,19.5595681 144.688477,19.0810573 144.688477,18.5615234 L144.688477,18.2744141 C144.688477,17.6728486 144.778482,17.1350935 144.958496,16.6611328 C145.13851,16.1871721 145.378905,15.7884131 145.679688,15.4648438 C145.98047,15.1412744 146.324542,14.8940438 146.711914,14.7231445 C147.099286,14.5522452 147.502602,14.4667969 147.921875,14.4667969 C148.450523,14.4667969 148.906248,14.5590811 149.289062,14.7436523 C149.671877,14.9282236 149.987466,15.18229 150.23584,15.5058594 C150.484213,15.8294287 150.667643,16.2122374 150.786133,16.6542969 C150.904623,17.0963564 150.963867,17.5771458 150.963867,18.0966797 L150.963867,18.6640625 L145.953125,18.6640625 C145.96224,19.0058611 146.018066,19.3248683 146.120605,19.6210938 C146.223145,19.9173192 146.368977,20.1748036 146.558105,20.3935547 C146.747234,20.6123058 146.975096,20.7854811 147.241699,20.9130859 C147.508302,21.0406907 147.81022,21.1044922 148.147461,21.1044922 C148.594078,21.1044922 148.972329,21.0133473 149.282227,20.8310547 C149.592124,20.6487621 149.86328,20.4072281 150.095703,20.1064453 L150.868164,20.7080078 C150.749674,20.8903004 150.606121,21.0668937 150.4375,21.237793 C150.268879,21.4086923 150.071778,21.56136 149.846191,21.6958008 C149.620604,21.8302416 149.361981,21.9373368 149.070312,22.0170898 C148.778644,22.0968428 148.448244,22.1367188 148.079102,22.1367188 Z M147.921875,15.5058594 C147.666665,15.5058594 147.431967,15.5525711 147.217773,15.6459961 C147.00358,15.739421 146.812175,15.8749991 146.643555,16.0527344 C146.474934,16.2304696 146.334799,16.4514961 146.223145,16.7158203 C146.11149,16.9801446 146.035156,17.2832014 145.994141,17.625 L149.699219,17.625 L149.699219,17.5292969 C149.685547,17.2832019 149.645671,17.0393892 149.57959,16.7978516 C149.513509,16.5563139 149.410971,16.3398447 149.271973,16.1484375 C149.132975,15.9570303 148.954103,15.8020839 148.735352,15.6835938 C148.5166,15.5651036 148.245444,15.5058594 147.921875,15.5058594 Z" id="Download-the" fill="#FFFFFF"></path>
                </g>
            </g>
        </g>
    </g>
</svg>