<?xml version="1.0" encoding="UTF-8" standalone="no"?>
<svg width="120px" height="120px" viewBox="0 0 120 120" version="1.1" xmlns="http://www.w3.org/2000/svg" xmlns:xlink="http://www.w3.org/1999/xlink" xmlns:sketch="http://www.bohemiancoding.com/sketch/ns">
    <!-- Generator: Sketch 3.3.2 (12043) - http://www.bohemiancoding.com/sketch -->
    <title>App icon</title>
    <desc>Created with Sketch.</desc>
    <defs>
        <path id="path-1" d="M35.0079791,14.5989064 L35.4077492,14.4307715 L58.8437303,0.900001526 L69.0170215,6.74665915 L68.9937299,18.4803166 L45.0079791,32.3284963 L45.0079791,58.3989048 L35.0079791,64.1989048 L25.0079791,58.3989048 L25.0079791,32.3377097 L1.00627006,18.4803166 L0.982978505,6.74665915 L11.1562697,0.900001526 L34.6002481,14.4353888 L35.0079791,14.5989064 Z"></path>
    </defs>
    <g id="Page-2" stroke="none" stroke-width="1" fill="none" fill-rule="evenodd" sketch:type="MSPage">
        <g id="-" sketch:type="MSArtboardGroup" transform="translate(-660.000000, -180.000000)">
            <g id="App-icon" sketch:type="MSLayerGroup" transform="translate(660.000000, 180.000000)">
                <path d="M78.163,0 C90.21,0 96.232,0 102.717,2.05 C109.797,4.627 115.373,10.203 117.95,17.283 C120,23.767 120,29.791 120,41.837 L120,78.163 C120,90.21 120,96.232 117.95,102.717 C115.373,109.797 109.797,115.373 102.717,117.949 C96.232,120 90.21,120 78.163,120 L41.837,120 C29.79,120 23.767,120 17.283,117.949 C10.203,115.373 4.627,109.797 2.05,102.717 C0,96.232 0,90.21 0,78.163 L0,41.837 C0,29.791 0,23.767 2.05,17.283 C4.627,10.203 10.203,4.627 17.283,2.05 C23.767,0 29.79,0 41.837,0 L78.163,0 Z" id="Icon-Shape" fill="#FFFFFF" sketch:type="MSShapeGroup"></path>
                <g id="Logo" transform="translate(26.000000, 33.000000)">
                    <mask id="mask-2" sketch:name="Polygon" fill="white">
                        <use xlink:href="#path-1"></use>
                    </mask>
                    <use id="Polygon" fill="#38A6F9" sketch:type="MSShapeGroup" xlink:href="#path-1"></use>
                    <polygon id="l" opacity="0.2" fill="#FFFFFF" sketch:type="MSShapeGroup" mask="url(#mask-2)" points="35 -73.5999985 78.3012702 -48.5999985 78.3012702 1.40000153 35 26.4000015 -8.30127019 1.40000153 -8.30127019 -48.5999985 "></polygon>
                    <polygon id="s" opacity="0.100000016" fill="#000000" sketch:type="MSShapeGroup" mask="url(#mask-2)" points="78.2999992 1.40000153 121.601269 26.4000015 121.601269 76.4000015 78.2999992 101.400002 34.998729 76.4000015 34.998729 26.4000015 "></polygon>
                </g>
            </g>
        </g>
    </g>
</svg>