<?xml version="1.0" encoding="UTF-8" standalone="no"?>
<svg width="200px" height="60px" viewBox="0 0 200 60" version="1.1" xmlns="http://www.w3.org/2000/svg" xmlns:xlink="http://www.w3.org/1999/xlink" xmlns:sketch="http://www.bohemiancoding.com/sketch/ns">
    <!-- Generator: Sketch 3.4 (15575) - http://www.bohemiancoding.com/sketch -->
    <title>soon</title>
    <desc>Created with Sketch.</desc>
    <defs></defs>
    <g id="Page-1" stroke="none" stroke-width="1" fill="none" fill-rule="evenodd" sketch:type="MSPage">
        <g id="-" sketch:type="MSArtboardGroup" transform="translate(-1022.000000, -629.000000)">
            <g id="download-buttons" sketch:type="MSLayerGroup" transform="translate(506.000000, 550.000000)">
                <g id="soon" transform="translate(516.000000, 79.000000)" sketch:type="MSShapeGroup">
                    <path d="M0,7.99854961 L0,52.0014504 C0,56.4189274 3.57762838,60 7.99464702,60 L192.005353,60 C196.420675,60 200,56.4264107 200,52.0014504 L200,7.99854961 C200,3.58107264 196.422372,0 192.005353,0 L7.99464702,0 C3.57932539,0 0,3.57358932 0,7.99854961 Z" id="Btn_bg" fill="#000000"></path>
                    <path d="M80.8984375,31.9394531 C80.8281246,32.5429718 80.6801769,33.1040013 80.4545898,33.6225586 C80.2290028,34.1411159 79.9169942,34.5893536 79.5185547,34.9672852 C79.1201152,35.3452167 78.6337919,35.6411122 78.0595703,35.8549805 C77.4853487,36.0688487 76.814457,36.1757812 76.046875,36.1757812 C75.2910118,36.1757812 74.6054718,36.0351577 73.9902344,35.7539062 C73.3749969,35.4726548 72.8491233,35.0727565 72.4125977,34.5541992 C71.976072,34.0356419 71.6391613,33.4130896 71.4018555,32.6865234 C71.1645496,31.9599573 71.0458984,31.148442 71.0458984,30.2519531 L71.0458984,28.96875 C71.0458984,28.0722611 71.1660144,27.259281 71.40625,26.5297852 C71.6464856,25.8002893 71.9892556,25.1762721 72.4345703,24.6577148 C72.879885,24.1391576 73.420407,23.7377944 74.0561523,23.4536133 C74.6918977,23.1694322 75.4052695,23.0273438 76.1962891,23.0273438 C76.9169958,23.0273438 77.5556613,23.1328114 78.1123047,23.34375 C78.6689481,23.5546886 79.1420879,23.8491192 79.5317383,24.2270508 C79.9213887,24.6049824 80.2304676,25.0561497 80.4589844,25.5805664 C80.6875011,26.1049831 80.8339841,26.6835906 80.8984375,27.3164062 L79.2021484,27.3164062 C79.137695,26.8710915 79.0380866,26.4697283 78.9033203,26.1123047 C78.768554,25.754881 78.5825207,25.4501966 78.3452148,25.1982422 C78.107909,24.9462878 77.8134783,24.7529304 77.4619141,24.6181641 C77.1103498,24.4833978 76.688479,24.4160156 76.1962891,24.4160156 C75.6279268,24.4160156 75.1284201,24.5258778 74.6977539,24.7456055 C74.2670877,24.9653331 73.9067397,25.2729472 73.6166992,25.668457 C73.3266587,26.0639668 73.1083992,26.5415011 72.9619141,27.1010742 C72.815429,27.6606473 72.7421875,28.2773404 72.7421875,28.9511719 L72.7421875,30.2519531 C72.7421875,30.8789094 72.8081048,31.4677707 72.9399414,32.0185547 C73.071778,32.5693387 73.2724596,33.0512675 73.5419922,33.4643555 C73.8115248,33.8774435 74.1542948,34.2026355 74.5703125,34.4399414 C74.9863302,34.6772473 75.4785128,34.7958984 76.046875,34.7958984 C76.5859402,34.7958984 77.0400372,34.731446 77.4091797,34.6025391 C77.7783222,34.4736322 78.0844714,34.2875989 78.3276367,34.0444336 C78.570802,33.8012683 78.759765,33.5024432 78.8945312,33.1479492 C79.0292975,32.7934553 79.1318356,32.3906273 79.2021484,31.9394531 L80.8984375,31.9394531 Z M82.515625,31.1572266 C82.515625,30.4658169 82.6166982,29.8256865 82.8188477,29.2368164 C83.0209971,28.6479463 83.3081036,28.1367209 83.6801758,27.703125 C84.052248,27.2695291 84.5048801,26.9296887 85.0380859,26.6835938 C85.5712917,26.4374988 86.168942,26.3144531 86.8310547,26.3144531 C87.5048862,26.3144531 88.1098606,26.4374988 88.6459961,26.6835938 C89.1821316,26.9296887 89.6376934,27.2695291 90.0126953,27.703125 C90.3876972,28.1367209 90.6748037,28.6479463 90.8740234,29.2368164 C91.0732432,29.8256865 91.1728516,30.4658169 91.1728516,31.1572266 L91.1728516,31.3505859 C91.1728516,32.0419956 91.0732432,32.682126 90.8740234,33.2709961 C90.6748037,33.8598662 90.3876972,34.3696268 90.0126953,34.800293 C89.6376934,35.2309592 89.1835964,35.5678699 88.6503906,35.8110352 C88.1171848,36.0542004 87.5166049,36.1757812 86.8486328,36.1757812 C86.1806607,36.1757812 85.5800808,36.0542004 85.046875,35.8110352 C84.5136692,35.5678699 84.0595722,35.2309592 83.6845703,34.800293 C83.3095684,34.3696268 83.0209971,33.8598662 82.8188477,33.2709961 C82.6166982,32.682126 82.515625,32.0419956 82.515625,31.3505859 L82.515625,31.1572266 Z M84.1503906,31.3505859 C84.1503906,31.8251977 84.2060541,32.2734354 84.3173828,32.6953125 C84.4287115,33.1171896 84.5971668,33.4877914 84.8227539,33.8071289 C85.048341,34.1264664 85.3295882,34.3798819 85.6665039,34.5673828 C86.0034197,34.7548838 86.3974587,34.8486328 86.8486328,34.8486328 C87.2939475,34.8486328 87.6865217,34.7548838 88.0263672,34.5673828 C88.3662126,34.3798819 88.6474598,34.1264664 88.8701172,33.8071289 C89.0927746,33.4877914 89.2612299,33.1171896 89.3754883,32.6953125 C89.4897467,32.2734354 89.546875,31.8251977 89.546875,31.3505859 L89.546875,31.1572266 C89.546875,30.6884742 89.4897467,30.2417013 89.3754883,29.8168945 C89.2612299,29.3920877 89.0913097,29.0200211 88.8657227,28.7006836 C88.6401356,28.3813461 88.3574236,28.1264658 88.0175781,27.9360352 C87.6777327,27.7456045 87.2822288,27.6503906 86.8310547,27.6503906 C86.38574,27.6503906 85.9960954,27.7456045 85.6621094,27.9360352 C85.3281233,28.1264658 85.048341,28.3813461 84.8227539,28.7006836 C84.5971668,29.0200211 84.4287115,29.3920877 84.3173828,29.8168945 C84.2060541,30.2417013 84.1503906,30.6884742 84.1503906,31.1572266 L84.1503906,31.3505859 Z M94.7412109,26.4902344 L94.7851562,27.5449219 C95.1132829,27.1582012 95.5102516,26.8564464 95.9760742,26.6396484 C96.4418969,26.4228505 96.9853485,26.3144531 97.6064453,26.3144531 C98.2216828,26.3144531 98.7651344,26.4360339 99.2368164,26.6791992 C99.7084985,26.9223645 100.070311,27.3105442 100.322266,27.84375 C100.638673,27.3867165 101.05029,27.0175795 101.557129,26.7363281 C102.063967,26.4550767 102.663082,26.3144531 103.354492,26.3144531 C103.86426,26.3144531 104.315428,26.3803704 104.708008,26.512207 C105.100588,26.6440436 105.433104,26.8505845 105.705566,27.1318359 C105.978029,27.4130873 106.18457,27.7705056 106.325195,28.2041016 C106.465821,28.6376975 106.536133,29.1533173 106.536133,29.7509766 L106.536133,36 L104.910156,36 L104.910156,29.7421875 C104.910156,29.343748 104.861817,29.0126966 104.765137,28.7490234 C104.668457,28.4853502 104.532227,28.2744149 104.356445,28.1162109 C104.180663,27.958007 103.966798,27.8481448 103.714844,27.7866211 C103.462889,27.7250973 103.184572,27.6943359 102.879883,27.6943359 C102.545897,27.6943359 102.250001,27.7470698 101.992188,27.8525391 C101.734374,27.9580083 101.513185,28.1000968 101.328613,28.2788086 C101.144042,28.4575204 100.997559,28.6684558 100.88916,28.9116211 C100.780761,29.1547864 100.711914,29.4140611 100.682617,29.6894531 L100.682617,36 L99.0478516,36 L99.0478516,29.7509766 C99.0478516,29.3818341 98.9995122,29.0668958 98.902832,28.8061523 C98.8061519,28.5454089 98.6699228,28.3330086 98.4941406,28.1689453 C98.3183585,28.004882 98.1059583,27.884766 97.8569336,27.8085938 C97.6079089,27.7324215 97.3281266,27.6943359 97.0175781,27.6943359 C96.4374971,27.6943359 95.9716814,27.8203112 95.6201172,28.0722656 C95.2685529,28.32422 95.0048837,28.6523417 94.8291016,29.0566406 L94.8291016,36 L93.203125,36 L93.203125,26.4902344 L94.7412109,26.4902344 Z M110.754883,36 L109.128906,36 L109.128906,26.4902344 L110.754883,26.4902344 L110.754883,36 Z M108.99707,23.9677734 C108.99707,23.7041002 109.077636,23.4814462 109.23877,23.2998047 C109.399903,23.1181632 109.63867,23.0273438 109.955078,23.0273438 C110.271486,23.0273438 110.511718,23.1181632 110.675781,23.2998047 C110.839845,23.4814462 110.921875,23.7041002 110.921875,23.9677734 C110.921875,24.2314466 110.839845,24.451171 110.675781,24.6269531 C110.511718,24.8027353 110.271486,24.890625 109.955078,24.890625 C109.63867,24.890625 109.399903,24.8027353 109.23877,24.6269531 C109.077636,24.451171 108.99707,24.2314466 108.99707,23.9677734 L108.99707,23.9677734 Z M114.894531,26.4902344 L114.947266,27.6855469 C115.287111,27.2578104 115.697263,26.9223645 116.177734,26.6791992 C116.658206,26.4360339 117.197263,26.3144531 117.794922,26.3144531 C118.257815,26.3144531 118.676756,26.3774408 119.051758,26.503418 C119.42676,26.6293952 119.746092,26.8315416 120.009766,27.1098633 C120.273439,27.388185 120.47705,27.7456033 120.620605,28.1821289 C120.764161,28.6186545 120.835938,29.1474578 120.835938,29.7685547 L120.835938,36 L119.209961,36 L119.209961,29.7509766 C119.209961,29.3818341 119.168946,29.0668958 119.086914,28.8061523 C119.004882,28.5454089 118.883302,28.3330086 118.722168,28.1689453 C118.561034,28.004882 118.361818,27.884766 118.124512,27.8085938 C117.887206,27.7324215 117.613283,27.6943359 117.302734,27.6943359 C116.775388,27.6943359 116.312502,27.8349595 115.914062,28.1162109 C115.515623,28.3974623 115.205079,28.7665993 114.982422,29.2236328 L114.982422,36 L113.356445,36 L113.356445,26.4902344 L114.894531,26.4902344 Z M122.901367,31.1660156 C122.901367,30.4394495 122.987792,29.7788116 123.160645,29.184082 C123.333497,28.5893525 123.582518,28.079592 123.907715,27.6547852 C124.232912,27.2299783 124.626951,26.9003918 125.089844,26.6660156 C125.552737,26.4316395 126.074216,26.3144531 126.654297,26.3144531 C127.257816,26.3144531 127.782224,26.4199208 128.227539,26.6308594 C128.672854,26.8417979 129.053709,27.1464824 129.370117,27.5449219 L129.449219,26.4902344 L130.93457,26.4902344 L130.93457,35.7978516 C130.93457,36.4248078 130.836427,36.9829077 130.640137,37.472168 C130.443847,37.9614282 130.166994,38.37451 129.80957,38.7114258 C129.452147,39.0483415 129.027346,39.3046866 128.535156,39.4804688 C128.042966,39.6562509 127.49805,39.7441406 126.900391,39.7441406 C126.654296,39.7441406 126.371584,39.7163089 126.052246,39.6606445 C125.732909,39.6049802 125.410646,39.5141608 125.085449,39.3881836 C124.760252,39.2622064 124.448244,39.0937511 124.149414,38.8828125 C123.850584,38.6718739 123.595704,38.4111344 123.384766,38.1005859 L124.228516,37.125 C124.427735,37.371095 124.632811,37.5761711 124.84375,37.7402344 C125.054689,37.9042977 125.267089,38.0361323 125.480957,38.1357422 C125.694825,38.2353521 125.91162,38.3071287 126.131348,38.3510742 C126.351075,38.3950198 126.569335,38.4169922 126.786133,38.4169922 C127.166994,38.4169922 127.512694,38.3627935 127.823242,38.2543945 C128.133791,38.1459956 128.398925,37.9833995 128.618652,37.7666016 C128.83838,37.5498036 129.006835,37.2846695 129.124023,36.9711914 C129.241212,36.6577133 129.299805,36.2929708 129.299805,35.8769531 L129.299805,35.0507812 C128.983397,35.4140643 128.606936,35.6923818 128.17041,35.8857422 C127.733885,36.0791025 127.222659,36.1757812 126.636719,36.1757812 C126.068357,36.1757812 125.554202,36.0556653 125.094238,35.8154297 C124.634275,35.5751941 124.241701,35.2397482 123.916504,34.809082 C123.591307,34.3784158 123.340821,33.8686553 123.165039,33.2797852 C122.989257,32.690915 122.901367,32.047855 122.901367,31.3505859 L122.901367,31.1660156 Z M124.536133,31.3505859 C124.536133,31.8251977 124.584472,32.2719706 124.681152,32.690918 C124.777833,33.1098654 124.927245,33.4746078 125.129395,33.7851562 C125.331544,34.0957047 125.590819,34.341796 125.907227,34.5234375 C126.223634,34.705079 126.60156,34.7958984 127.041016,34.7958984 C127.328126,34.7958984 127.587401,34.7607425 127.818848,34.6904297 C128.050294,34.6201168 128.2583,34.5234381 128.442871,34.4003906 C128.627442,34.2773431 128.790038,34.1308602 128.930664,33.9609375 C129.07129,33.7910148 129.194335,33.6035167 129.299805,33.3984375 L129.299805,29.0566406 C129.194335,28.8632803 129.07129,28.6831063 128.930664,28.5161133 C128.790038,28.3491203 128.627442,28.2041022 128.442871,28.0810547 C128.2583,27.9580072 128.051759,27.8627933 127.823242,27.7954102 C127.594725,27.728027 127.339845,27.6943359 127.058594,27.6943359 C126.613279,27.6943359 126.232423,27.7866202 125.916016,27.9711914 C125.599608,28.1557626 125.338868,28.4062484 125.133789,28.7226562 C124.92871,29.0390641 124.777833,29.4067362 124.681152,29.8256836 C124.584472,30.244631 124.536133,30.6914039 124.536133,31.1660156 L124.536133,31.3505859 Z M144.917969,32.765625 C144.917969,32.4667954 144.872559,32.2031261 144.781738,31.9746094 C144.690918,31.7460926 144.529786,31.536622 144.29834,31.3461914 C144.066893,31.1557608 143.754885,30.9770516 143.362305,30.8100586 C142.969725,30.6430656 142.471683,30.4716806 141.868164,30.2958984 C141.235348,30.1142569 140.6626,29.907716 140.149902,29.6762695 C139.637204,29.4448231 139.200685,29.1782242 138.840332,28.8764648 C138.479979,28.5747055 138.203126,28.2304707 138.009766,27.84375 C137.816405,27.4570293 137.719727,27.0146509 137.719727,26.5166016 C137.719727,26.0185522 137.823729,25.557131 138.031738,25.1323242 C138.239747,24.7075174 138.534178,24.3383805 138.915039,24.0249023 C139.2959,23.7114242 139.752927,23.4667978 140.286133,23.2910156 C140.819339,23.1152335 141.414059,23.0273438 142.070312,23.0273438 C142.791019,23.0273438 143.432614,23.1357411 143.995117,23.3525391 C144.55762,23.569337 145.03076,23.8564435 145.414551,24.2138672 C145.798342,24.5712908 146.089843,24.9843727 146.289062,25.453125 C146.488282,25.9218773 146.587891,26.4052709 146.587891,26.9033203 L144.891602,26.9033203 C144.891602,26.5458967 144.834473,26.2148453 144.720215,25.9101562 C144.605956,25.6054672 144.431642,25.341798 144.197266,25.1191406 C143.962889,24.8964833 143.669924,24.7236334 143.318359,24.6005859 C142.966795,24.4775384 142.550784,24.4160156 142.070312,24.4160156 C141.619138,24.4160156 141.226564,24.4687495 140.892578,24.5742188 C140.558592,24.679688 140.283204,24.8247061 140.066406,25.0092773 C139.849608,25.1938486 139.688477,25.4121081 139.583008,25.6640625 C139.477539,25.9160169 139.424805,26.1914048 139.424805,26.4902344 C139.424805,26.759767 139.481933,27.0058583 139.596191,27.2285156 C139.71045,27.451173 139.887694,27.6562491 140.12793,27.84375 C140.368165,28.0312509 140.677244,28.2041008 141.055176,28.3623047 C141.433107,28.5205086 141.88574,28.6728508 142.413086,28.8193359 C143.139652,29.0244151 143.766599,29.2514636 144.293945,29.5004883 C144.821292,29.749513 145.256346,30.032225 145.599121,30.3486328 C145.941896,30.6650406 146.196777,31.0195293 146.36377,31.4121094 C146.530763,31.8046895 146.614258,32.2499975 146.614258,32.7480469 C146.614258,33.2695339 146.50879,33.7412088 146.297852,34.1630859 C146.086913,34.584963 145.786623,34.945311 145.396973,35.2441406 C145.007322,35.5429702 144.538577,35.7729484 143.990723,35.934082 C143.442868,36.0952156 142.832035,36.1757812 142.158203,36.1757812 C141.765623,36.1757812 141.373049,36.1391605 140.980469,36.065918 C140.587889,35.9926754 140.211428,35.8828132 139.851074,35.7363281 C139.490721,35.589843 139.15674,35.4082042 138.849121,35.1914062 C138.541502,34.9746083 138.273439,34.7226577 138.044922,34.4355469 C137.816405,34.1484361 137.637696,33.8261737 137.508789,33.46875 C137.379882,33.1113263 137.31543,32.7187521 137.31543,32.2910156 L139.011719,32.2910156 C139.011719,32.7304709 139.098144,33.106932 139.270996,33.4204102 C139.443849,33.7338883 139.675292,33.993163 139.965332,34.1982422 C140.255373,34.4033213 140.589354,34.5541987 140.967285,34.6508789 C141.345217,34.7475591 141.742185,34.7958984 142.158203,34.7958984 C143.048833,34.7958984 143.731443,34.6142596 144.206055,34.2509766 C144.680666,33.8876935 144.917969,33.3925813 144.917969,32.765625 L144.917969,32.765625 Z M148.09082,31.1572266 C148.09082,30.4658169 148.191894,29.8256865 148.394043,29.2368164 C148.596192,28.6479463 148.883299,28.1367209 149.255371,27.703125 C149.627443,27.2695291 150.080075,26.9296887 150.613281,26.6835938 C151.146487,26.4374988 151.744137,26.3144531 152.40625,26.3144531 C153.080081,26.3144531 153.685056,26.4374988 154.221191,26.6835938 C154.757327,26.9296887 155.212889,27.2695291 155.587891,27.703125 C155.962893,28.1367209 156.249999,28.6479463 156.449219,29.2368164 C156.648438,29.8256865 156.748047,30.4658169 156.748047,31.1572266 L156.748047,31.3505859 C156.748047,32.0419956 156.648438,32.682126 156.449219,33.2709961 C156.249999,33.8598662 155.962893,34.3696268 155.587891,34.800293 C155.212889,35.2309592 154.758792,35.5678699 154.225586,35.8110352 C153.69238,36.0542004 153.0918,36.1757812 152.423828,36.1757812 C151.755856,36.1757812 151.155276,36.0542004 150.62207,35.8110352 C150.088865,35.5678699 149.634768,35.2309592 149.259766,34.800293 C148.884764,34.3696268 148.596192,33.8598662 148.394043,33.2709961 C148.191894,32.682126 148.09082,32.0419956 148.09082,31.3505859 L148.09082,31.1572266 Z M149.725586,31.3505859 C149.725586,31.8251977 149.781249,32.2734354 149.892578,32.6953125 C150.003907,33.1171896 150.172362,33.4877914 150.397949,33.8071289 C150.623536,34.1264664 150.904783,34.3798819 151.241699,34.5673828 C151.578615,34.7548838 151.972654,34.8486328 152.423828,34.8486328 C152.869143,34.8486328 153.261717,34.7548838 153.601562,34.5673828 C153.941408,34.3798819 154.222655,34.1264664 154.445312,33.8071289 C154.66797,33.4877914 154.836425,33.1171896 154.950684,32.6953125 C155.064942,32.2734354 155.12207,31.8251977 155.12207,31.3505859 L155.12207,31.1572266 C155.12207,30.6884742 155.064942,30.2417013 154.950684,29.8168945 C154.836425,29.3920877 154.666505,29.0200211 154.440918,28.7006836 C154.215331,28.3813461 153.932619,28.1264658 153.592773,27.9360352 C153.252928,27.7456045 152.857424,27.6503906 152.40625,27.6503906 C151.960935,27.6503906 151.571291,27.7456045 151.237305,27.9360352 C150.903319,28.1264658 150.623536,28.3813461 150.397949,28.7006836 C150.172362,29.0200211 150.003907,29.3920877 149.892578,29.8168945 C149.781249,30.2417013 149.725586,30.6884742 149.725586,31.1572266 L149.725586,31.3505859 Z M158.356445,31.1572266 C158.356445,30.4658169 158.457519,29.8256865 158.659668,29.2368164 C158.861817,28.6479463 159.148924,28.1367209 159.520996,27.703125 C159.893068,27.2695291 160.3457,26.9296887 160.878906,26.6835938 C161.412112,26.4374988 162.009762,26.3144531 162.671875,26.3144531 C163.345706,26.3144531 163.950681,26.4374988 164.486816,26.6835938 C165.022952,26.9296887 165.478514,27.2695291 165.853516,27.703125 C166.228518,28.1367209 166.515624,28.6479463 166.714844,29.2368164 C166.914063,29.8256865 167.013672,30.4658169 167.013672,31.1572266 L167.013672,31.3505859 C167.013672,32.0419956 166.914063,32.682126 166.714844,33.2709961 C166.515624,33.8598662 166.228518,34.3696268 165.853516,34.800293 C165.478514,35.2309592 165.024417,35.5678699 164.491211,35.8110352 C163.958005,36.0542004 163.357425,36.1757812 162.689453,36.1757812 C162.021481,36.1757812 161.420901,36.0542004 160.887695,35.8110352 C160.35449,35.5678699 159.900393,35.2309592 159.525391,34.800293 C159.150389,34.3696268 158.861817,33.8598662 158.659668,33.2709961 C158.457519,32.682126 158.356445,32.0419956 158.356445,31.3505859 L158.356445,31.1572266 Z M159.991211,31.3505859 C159.991211,31.8251977 160.046874,32.2734354 160.158203,32.6953125 C160.269532,33.1171896 160.437987,33.4877914 160.663574,33.8071289 C160.889161,34.1264664 161.170408,34.3798819 161.507324,34.5673828 C161.84424,34.7548838 162.238279,34.8486328 162.689453,34.8486328 C163.134768,34.8486328 163.527342,34.7548838 163.867188,34.5673828 C164.207033,34.3798819 164.48828,34.1264664 164.710938,33.8071289 C164.933595,33.4877914 165.10205,33.1171896 165.216309,32.6953125 C165.330567,32.2734354 165.387695,31.8251977 165.387695,31.3505859 L165.387695,31.1572266 C165.387695,30.6884742 165.330567,30.2417013 165.216309,29.8168945 C165.10205,29.3920877 164.93213,29.0200211 164.706543,28.7006836 C164.480956,28.3813461 164.198244,28.1264658 163.858398,27.9360352 C163.518553,27.7456045 163.123049,27.6503906 162.671875,27.6503906 C162.22656,27.6503906 161.836916,27.7456045 161.50293,27.9360352 C161.168944,28.1264658 160.889161,28.3813461 160.663574,28.7006836 C160.437987,29.0200211 160.269532,29.3920877 160.158203,29.8168945 C160.046874,30.2417013 159.991211,30.6884742 159.991211,31.1572266 L159.991211,31.3505859 Z M170.59082,26.4902344 L170.643555,27.6855469 C170.9834,27.2578104 171.393552,26.9223645 171.874023,26.6791992 C172.354495,26.4360339 172.893552,26.3144531 173.491211,26.3144531 C173.954104,26.3144531 174.373045,26.3774408 174.748047,26.503418 C175.123049,26.6293952 175.442381,26.8315416 175.706055,27.1098633 C175.969728,27.388185 176.173339,27.7456033 176.316895,28.1821289 C176.46045,28.6186545 176.532227,29.1474578 176.532227,29.7685547 L176.532227,36 L174.90625,36 L174.90625,29.7509766 C174.90625,29.3818341 174.865235,29.0668958 174.783203,28.8061523 C174.701171,28.5454089 174.579591,28.3330086 174.418457,28.1689453 C174.257323,28.004882 174.058107,27.884766 173.820801,27.8085938 C173.583495,27.7324215 173.309572,27.6943359 172.999023,27.6943359 C172.471677,27.6943359 172.008791,27.8349595 171.610352,28.1162109 C171.211912,28.3974623 170.901368,28.7665993 170.678711,29.2236328 L170.678711,36 L169.052734,36 L169.052734,26.4902344 L170.59082,26.4902344 Z" id="Coming-Soon" fill="#FFFFFF"></path>
                    <path d="M41.9884722,13.3553072 L42.4337048,12.7001072 L42.8707978,12.0537072 L43.8548676,10.6033072 C43.9753327,10.4249072 43.9264955,10.1849072 43.7466118,10.0657072 C43.5634722,9.94650721 43.3192862,9.99450721 43.1980071,10.1737072 L42.1439374,11.7289072 L41.7003327,12.3825072 L41.2502164,13.0449072 C39.8241699,12.5017072 38.2345188,12.1969072 36.5553327,12.1969072 C34.8777746,12.1969072 33.2881234,12.5017072 31.8620769,13.0449072 L31.4144025,12.3825072 L30.9707978,11.7289072 L29.9151002,10.1729072 C29.794635,9.99450721 29.549635,9.94650721 29.3673095,10.0649072 C29.1866118,10.1833072 29.1377746,10.4241072 29.2582397,10.6025072 L30.2414955,12.0529072 L30.6802164,12.6993072 L31.125449,13.3545072 C27.7760304,14.8873072 25.5107978,17.7913072 25.5107978,21.1153072 L47.6031234,21.1153072 C47.6031234,17.7921072 45.3378909,14.8881072 41.9884722,13.3553072 L41.9884722,13.3553072 Z M31.8230071,18.0137072 C31.1677746,18.0137072 30.6387048,17.4929072 30.6387048,16.8505072 C30.6387048,16.2081072 31.1677746,15.6881072 31.8230071,15.6881072 C32.4766118,15.6881072 33.0056815,16.2081072 33.0056815,16.8505072 C33.0056815,17.4929072 32.4766118,18.0137072 31.8230071,18.0137072 L31.8230071,18.0137072 Z M41.2901002,18.0137072 C40.6364955,18.0137072 40.1074257,17.4929072 40.1074257,16.8505072 C40.1074257,16.2081072 40.6364955,15.6881072 41.2901002,15.6881072 C41.9453327,15.6881072 42.4744025,16.2081072 42.4744025,16.8505072 C42.4744025,17.4929072 41.9453327,18.0137072 41.2901002,18.0137072 Z M25.6809141,22.6673072 L25.5107978,22.6673072 L25.5107978,24.6017072 L25.5107978,26.1801072 L25.5107978,39.7289072 C25.5107978,41.0833072 26.6307978,42.1849072 28.0088211,42.1849072 L29.812542,42.1849072 C29.7523095,42.3897072 29.7181234,42.6065072 29.7181234,42.8305072 L29.7181234,42.9601072 L29.7181234,43.7353072 L29.7181234,47.7433072 C29.7181234,49.0273072 30.7787048,50.0697072 32.0859141,50.0697072 C33.3931234,50.0697072 34.4528909,49.0273072 34.4528909,47.7433072 L34.4528909,43.7353072 L34.4528909,42.9601072 L34.4528909,42.8305072 C34.4528909,42.6073072 34.4178909,42.3897072 34.3592862,42.1849072 L38.754635,42.1849072 C38.6944025,42.3897072 38.6610304,42.6065072 38.6610304,42.8305072 L38.6610304,42.9601072 L38.6610304,43.7353072 L38.6610304,47.7433072 C38.6610304,49.0273072 39.7216118,50.0697072 41.0280071,50.0697072 C42.3344025,50.0697072 43.3949839,49.0273072 43.3949839,47.7433072 L43.3949839,43.7353072 L43.3949839,42.9601072 L43.3949839,42.8305072 C43.3949839,42.6073072 43.3616118,42.3897072 43.3013792,42.1849072 L45.1042862,42.1849072 C46.4823095,42.1849072 47.6031234,41.0833072 47.6031234,39.7289072 L47.6031234,26.1801072 L47.6031234,24.6017072 L47.6031234,22.6673072 L47.4330071,22.6673072 L25.6809141,22.6673072 L25.6809141,22.6673072 Z M21.5647513,22.6673072 C20.257542,22.6673072 19.1977746,23.7081072 19.1977746,24.9945072 L19.1977746,34.9457072 C19.1977746,36.2297072 20.257542,37.2721072 21.5647513,37.2721072 C22.8711467,37.2721072 23.9317281,36.2297072 23.9317281,34.9457072 L23.9317281,24.9937072 C23.9317281,23.7081072 22.8719606,22.6673072 21.5647513,22.6673072 Z M51.5491699,22.6673072 C50.2411467,22.6673072 49.1821932,23.7081072 49.1821932,24.9945072 L49.1821932,34.9457072 C49.1821932,36.2297072 50.2411467,37.2721072 51.5491699,37.2721072 C52.8555653,37.2721072 53.9145188,36.2297072 53.9145188,34.9457072 L53.9145188,24.9937072 C53.9145188,23.7081072 52.8555653,22.6673072 51.5491699,22.6673072 Z" id="Android" fill="#FFFFFF"></path>
                </g>
            </g>
        </g>
    </g>
</svg>