<?xml version="1.0" encoding="UTF-8" standalone="no"?>
<svg width="160px" height="80px" viewBox="0 0 160 80" version="1.1" xmlns="http://www.w3.org/2000/svg" xmlns:xlink="http://www.w3.org/1999/xlink" xmlns:sketch="http://www.bohemiancoding.com/sketch/ns">
    <!-- Generator: Sketch 3.4.2 (15855) - http://www.bohemiancoding.com/sketch -->
    <title>topic-sprite</title>
    <desc>Created with Sketch.</desc>
    <defs></defs>
    <g id="Page-1" stroke="none" stroke-width="1" fill="none" fill-rule="evenodd" sketch:type="MSPage">
        <g id="topic-sprite" sketch:type="MSArtboardGroup">
            <g id="icon_play" sketch:type="MSLayerGroup" transform="translate(5.000000, 5.000000)">
                <circle id="Oval-24" stroke="#FFFFFF" sketch:type="MSShapeGroup" cx="15" cy="15" r="15"></circle>
                <path d="M16.75,9.74999999 L22.8121778,20.25 L10.6878222,20.25 L16.75,9.74999999 Z" id="Polygon-1" fill="#FFFFFF" sketch:type="MSShapeGroup" transform="translate(16.750000, 15.000000) rotate(90.000000) translate(-16.750000, -15.000000) "></path>
            </g>
            <g id="icon_play" sketch:type="MSLayerGroup" transform="translate(5.000000, 45.000000)">
                <circle id="Oval-24" stroke="#000000" sketch:type="MSShapeGroup" cx="15" cy="15" r="15"></circle>
                <path d="M16.75,9.74999999 L22.8121778,20.25 L10.6878222,20.25 L16.75,9.74999999 Z" id="Polygon-1" fill="#000000" sketch:type="MSShapeGroup" transform="translate(16.750000, 15.000000) rotate(90.000000) translate(-16.750000, -15.000000) "></path>
            </g>
            <g id="icon_pause" sketch:type="MSLayerGroup" transform="translate(45.000000, 5.000000)">
                <circle id="Oval-24" stroke="#FFFFFF" sketch:type="MSShapeGroup" cx="15" cy="15" r="15"></circle>
                <rect id="Rectangle-363" fill="#FFFFFF" sketch:type="MSShapeGroup" x="11" y="10" width="2" height="10"></rect>
                <rect id="Rectangle-364" fill="#FFFFFF" sketch:type="MSShapeGroup" x="17" y="10" width="2" height="10"></rect>
            </g>
            <g id="icon_pause" sketch:type="MSLayerGroup" transform="translate(45.000000, 45.000000)">
                <circle id="Oval-24" stroke="#000000" sketch:type="MSShapeGroup" cx="15" cy="15" r="15"></circle>
                <rect id="Rectangle-363" fill="#000000" sketch:type="MSShapeGroup" x="11" y="10" width="2" height="10"></rect>
                <rect id="Rectangle-364" fill="#000000" sketch:type="MSShapeGroup" x="17" y="10" width="2" height="10"></rect>
            </g>
            <g id="icon_link" sketch:type="MSLayerGroup" transform="translate(141.000000, 1.000000)" stroke="#C7C7CC" stroke-width="1.8" stroke-linecap="round" stroke-linejoin="round">
                <path d="M11.9518581,11.4427224 C11.9518581,12.2625769 11.6257594,13.0071867 11.0946469,13.5568645 C10.5300664,14.1411801 9.73382017,14.5052224 8.851356,14.5052224 L4.50063606,14.5052224 C2.78827604,14.5052224 1.40013396,13.1306528 1.40013396,11.4427224 C1.40013396,9.75135036 2.78801959,8.3802224 4.50063606,8.3802224 L6.33718448,8.3802224" id="Rectangle-1101" sketch:type="MSShapeGroup" transform="translate(6.675996, 11.442722) rotate(-45.000000) translate(-6.675996, -11.442722) "></path>
                <path d="M6.21515659,6.62602003 C6.21515659,5.80616548 6.54125524,5.06155573 7.07236778,4.51187796 C7.63694826,3.92756238 8.43319452,3.56352003 9.31565869,3.56352003 L13.6663786,3.56352003 C15.3787387,3.56352003 16.7668807,4.93808958 16.7668807,6.62602003 C16.7668807,8.31739207 15.3789951,9.68852003 13.6663786,9.68852003 L11.8298302,9.68852003" id="Rectangle-1101" sketch:type="MSShapeGroup" transform="translate(11.491019, 6.626020) rotate(-45.000000) translate(-11.491019, -6.626020) "></path>
            </g>
            <path d="M125.5,4.61538462 L127.1875,3 L134.5,10 L127.1875,17 L125.5,15.3846154 L131.125,10 L125.5,4.61538462 Z" id="Arrow" fill="#C7C7CC" sketch:type="MSShapeGroup"></path>
            <g id="icon_play" sketch:type="MSLayerGroup" transform="translate(85.000000, 5.000000)">
                <circle id="Oval-24" fill-opacity="0.200000018" fill="#000000" sketch:type="MSShapeGroup" cx="15" cy="15" r="15"></circle>
                <polygon id="Polygon-1" fill="#FFFFFF" sketch:type="MSShapeGroup" transform="translate(15.000000, 15.000000) rotate(-270.000000) translate(-15.000000, -15.000000) " points="15 8 21.0621778 18.5 8.93782217 18.5 "></polygon>
            </g>
            <g id="icon_pause" sketch:type="MSLayerGroup" transform="translate(85.000000, 45.000000)">
                <circle id="Oval-24" fill-opacity="0.200000018" fill="#000000" sketch:type="MSShapeGroup" cx="15" cy="15" r="15"></circle>
                <rect id="Rectangle-363" fill="#FFFFFF" sketch:type="MSShapeGroup" x="11" y="10" width="2" height="10"></rect>
                <rect id="Rectangle-364" fill="#FFFFFF" sketch:type="MSShapeGroup" x="17" y="10" width="2" height="10"></rect>
            </g>
            <path d="M140,66 L146,66 L146,63 L134,63 L134,66 L136,66 L136,64 L140,64 L140,66 Z M140,68 L146.00594,68 C147.105486,68 148,67.1067681 148,66.0049107 L148,51.9950893 C148,50.8926228 147.107229,50 146.00594,50 L133.99406,50 C132.894514,50 132,50.8932319 132,51.9950893 L132,66.0049107 C132,67.1073772 132.892771,68 133.99406,68 L136,68 L136,71 L138,69.25 L140,71 L140,68 Z M146,61 L146,52 L138,52 L138,61 L146,61 Z" id="icon_repo" fill="#CCCCCC" sketch:type="MSShapeGroup"></path>
        </g>
    </g>
</svg>