<?xml version="1.0" encoding="UTF-8" standalone="no"?>
<svg width="50px" height="50px" viewBox="0 0 50 50" version="1.1" xmlns="http://www.w3.org/2000/svg" xmlns:xlink="http://www.w3.org/1999/xlink" xmlns:sketch="http://www.bohemiancoding.com/sketch/ns">
    <!-- Generator: Sketch 3.4 (15575) - http://www.bohemiancoding.com/sketch -->
    <title>appicon</title>
    <desc>Created with Sketch.</desc>
    <defs>
        <path id="path-1" d="M33.5042486,19.9400702 L33.5042554,19.9366648 L30.9609326,18.4750004 L25.1019373,21.8576929 L25.0019948,21.8997266 L24.900062,21.8588472 L19.0390674,18.4750004 L16.4957446,19.9366648 L16.4957514,19.9400702 L25,24.8500004 L33.5042486,19.9400702 L33.5042486,19.9400702 Z"></path>
    </defs>
    <g id="Page-3" stroke="none" stroke-width="1" fill="none" fill-rule="evenodd" sketch:type="MSPage">
        <g id="Safari-(with-URL)" sketch:type="MSArtboardGroup" transform="translate(0.000000, -574.000000)">
            <g id="Bar" sketch:type="MSLayerGroup" transform="translate(0.000000, 574.000000)">
                <g id="appicon">
                    <path d="M29.54075,10 C32.5525,10 34.058,10 35.67925,10.5125 C37.44925,11.15675 38.84325,12.55075 39.4875,14.32075 C40,15.94175 40,17.44775 40,20.45925 L40,29.54075 C40,32.5525 40,34.058 39.4875,35.67925 C38.84325,37.44925 37.44925,38.84325 35.67925,39.48725 C34.058,40 32.5525,40 29.54075,40 L20.45925,40 C17.4475,40 15.94175,40 14.32075,39.48725 C12.55075,38.84325 11.15675,37.44925 10.5125,35.67925 C10,34.058 10,32.5525 10,29.54075 L10,20.45925 C10,17.44775 10,15.94175 10.5125,14.32075 C11.15675,12.55075 12.55075,11.15675 14.32075,10.5125 C15.94175,10 17.4475,10 20.45925,10 L29.54075,10 Z" id="Icon-Shape" stroke="#E1E5E6" stroke-width="0.5" fill="#FFFFFF" sketch:type="MSShapeGroup"></path>
                    <path d="M25.0019948,21.8997266 L25.1019373,21.8576929 L30.9609326,18.4750004 L33.5042554,19.9366648 L33.4984325,22.8700791 L27.5019948,26.3321241 L27.5019948,32.8497262 L25.0019948,34.2997262 L22.5019948,32.8497262 L22.5019948,26.3344274 L16.5015675,22.8700791 L16.4957446,19.9366648 L19.0390674,18.4750004 L24.900062,21.8588472 L25.0019948,21.8997266 Z" id="Polygon" fill="#38A6F9" sketch:type="MSShapeGroup"></path>
                    <path d="M33.504249,19.9398865 L33.4984325,22.8700791 L27.5019948,26.3321241 L27.5019948,32.8497262 L25.0019948,34.2997262 L24.9996823,34.298385 L24.9996823,24.8500004 L33.504249,19.9398865 L33.504249,19.9398865 Z" id="Polygon" fill="#3295DF" sketch:type="MSShapeGroup"></path>
                    <mask id="mask-2" sketch:name="Polygon" fill="white">
                        <use xlink:href="#path-1"></use>
                    </mask>
                    <use id="Polygon" fill="#5FB7FA" sketch:type="MSShapeGroup" xlink:href="#path-1"></use>
                </g>
            </g>
        </g>
    </g>
</svg>