<?xml version="1.0" encoding="UTF-8" standalone="no"?>
<svg width="100px" height="30px" viewBox="0 0 100 30" version="1.1" xmlns="http://www.w3.org/2000/svg" xmlns:xlink="http://www.w3.org/1999/xlink" xmlns:sketch="http://www.bohemiancoding.com/sketch/ns">
    <!-- Generator: Sketch 3.4 (15575) - http://www.bohemiancoding.com/sketch -->
    <title>button_android</title>
    <desc>Created with Sketch.</desc>
    <defs></defs>
    <g id="Page-3" stroke="none" stroke-width="1" fill="none" fill-rule="evenodd" sketch:type="MSPage">
        <g id="Safari-(with-URL)" sketch:type="MSArtboardGroup" transform="translate(-265.000000, -584.000000)">
            <g id="Bar" sketch:type="MSLayerGroup" transform="translate(0.000000, 574.000000)">
                <g id="button_android" transform="translate(265.000000, 10.000000)" sketch:type="MSShapeGroup">
                    <path d="M0,3.9992748 L0,26.0007252 C0,28.2094637 1.78881419,30 3.99732351,30 L96.0026765,30 C98.2103373,30 100,28.2132053 100,26.0007252 L100,3.9992748 C100,1.79053632 98.2111858,0 96.0026765,0 L3.99732351,0 C1.78966269,0 0,1.78679466 0,3.9992748 Z" id="Btn_bg" fill="#000000"></path>
                    <path d="M20.9942361,6.6776536 L21.2168524,6.3500536 L21.4353989,6.0268536 L21.9274338,5.3016536 C21.9876664,5.2124536 21.9632478,5.0924536 21.8733059,5.0328536 C21.7817361,4.9732536 21.6596431,4.9972536 21.5990036,5.0868536 L21.0719687,5.8644536 L20.8501664,6.1912536 L20.6251082,6.5224536 C19.912085,6.2508536 19.1172594,6.0984536 18.2776664,6.0984536 C17.4388873,6.0984536 16.6440617,6.2508536 15.9310384,6.5224536 L15.7072012,6.1912536 L15.4853989,5.8644536 L14.9575501,5.0864536 C14.8973175,4.9972536 14.7748175,4.9732536 14.6836547,5.0324536 C14.5933059,5.0916536 14.5688873,5.2120536 14.6291198,5.3012536 L15.1207478,6.0264536 L15.3401082,6.3496536 L15.5627245,6.6772536 C13.8880152,7.4436536 12.7553989,8.8956536 12.7553989,10.5576536 L23.8015617,10.5576536 C23.8015617,8.8960536 22.6689454,7.4440536 20.9942361,6.6776536 L20.9942361,6.6776536 Z M15.9115036,9.0068536 C15.5838873,9.0068536 15.3193524,8.7464536 15.3193524,8.4252536 C15.3193524,8.1040536 15.5838873,7.8440536 15.9115036,7.8440536 C16.2383059,7.8440536 16.5028408,8.1040536 16.5028408,8.4252536 C16.5028408,8.7464536 16.2383059,9.0068536 15.9115036,9.0068536 L15.9115036,9.0068536 Z M20.6450501,9.0068536 C20.3182478,9.0068536 20.0537129,8.7464536 20.0537129,8.4252536 C20.0537129,8.1040536 20.3182478,7.8440536 20.6450501,7.8440536 C20.9726664,7.8440536 21.2372012,8.1040536 21.2372012,8.4252536 C21.2372012,8.7464536 20.9726664,9.0068536 20.6450501,9.0068536 Z M12.8404571,11.3336536 L12.7553989,11.3336536 L12.7553989,12.3008536 L12.7553989,13.0900536 L12.7553989,19.8644536 C12.7553989,20.5416536 13.3153989,21.0924536 14.0044105,21.0924536 L14.906271,21.0924536 C14.8761547,21.1948536 14.8590617,21.3032536 14.8590617,21.4152536 L14.8590617,21.4800536 L14.8590617,21.8676536 L14.8590617,23.8716536 C14.8590617,24.5136536 15.3893524,25.0348536 16.0429571,25.0348536 C16.6965617,25.0348536 17.2264454,24.5136536 17.2264454,23.8716536 L17.2264454,21.8676536 L17.2264454,21.4800536 L17.2264454,21.4152536 C17.2264454,21.3036536 17.2089454,21.1948536 17.1796431,21.0924536 L19.3773175,21.0924536 C19.3472012,21.1948536 19.3305152,21.3032536 19.3305152,21.4152536 L19.3305152,21.4800536 L19.3305152,21.8676536 L19.3305152,23.8716536 C19.3305152,24.5136536 19.8608059,25.0348536 20.5140036,25.0348536 C21.1672012,25.0348536 21.6974919,24.5136536 21.6974919,23.8716536 L21.6974919,21.8676536 L21.6974919,21.4800536 L21.6974919,21.4152536 C21.6974919,21.3036536 21.6808059,21.1948536 21.6506896,21.0924536 L22.5521431,21.0924536 C23.2411547,21.0924536 23.8015617,20.5416536 23.8015617,19.8644536 L23.8015617,13.0900536 L23.8015617,12.3008536 L23.8015617,11.3336536 L23.7165036,11.3336536 L12.8404571,11.3336536 L12.8404571,11.3336536 Z M10.7823757,11.3336536 C10.128771,11.3336536 9.59888729,11.8540536 9.59888729,12.4972536 L9.59888729,17.4728536 C9.59888729,18.1148536 10.128771,18.6360536 10.7823757,18.6360536 C11.4355733,18.6360536 11.965864,18.1148536 11.965864,17.4728536 L11.965864,12.4968536 C11.965864,11.8540536 11.4359803,11.3336536 10.7823757,11.3336536 Z M25.774585,11.3336536 C25.1205733,11.3336536 24.5910966,11.8540536 24.5910966,12.4972536 L24.5910966,17.4728536 C24.5910966,18.1148536 25.1205733,18.6360536 25.774585,18.6360536 C26.4277826,18.6360536 26.9572594,18.1148536 26.9572594,17.4728536 L26.9572594,12.4968536 C26.9572594,11.8540536 26.4277826,11.3336536 25.774585,11.3336536 Z" id="Android" fill="#FFFFFF"></path>
                    <path d="M37.1723633,21.6791992 L34.1430664,21.6791992 L33.5092773,23.5 L32.0966797,23.5 L35.0507812,15.6796875 L36.2700195,15.6796875 L39.2294922,23.5 L37.8115234,23.5 L37.1723633,21.6791992 Z M34.5244141,20.5834961 L36.7910156,20.5834961 L35.6577148,17.3393555 L34.5244141,20.5834961 Z M40.9428711,17.6884766 L40.9804688,18.3598633 C41.1845713,18.1127917 41.4298488,17.9212246 41.7163086,17.7851562 C42.0027684,17.6490879 42.3214501,17.5810547 42.6723633,17.5810547 C42.9516616,17.5810547 43.2049956,17.6195471 43.432373,17.6965332 C43.6597505,17.7735193 43.8540031,17.8979484 44.0151367,18.0698242 C44.1762703,18.2417001 44.3006994,18.4654934 44.3884277,18.7412109 C44.476156,19.0169285 44.5200195,19.3517233 44.5200195,19.7456055 L44.5200195,23.5 L43.2148438,23.5 L43.2148438,19.7348633 C43.2148438,19.5343414 43.1924644,19.3651537 43.1477051,19.2272949 C43.1029457,19.0894362 43.0375981,18.9775395 42.9516602,18.8916016 C42.8657222,18.8056636 42.7591966,18.7438967 42.6320801,18.7062988 C42.5049636,18.668701 42.3590503,18.6499023 42.1943359,18.6499023 C41.9257799,18.6499023 41.6921397,18.7143548 41.4934082,18.8432617 C41.2946767,18.9721686 41.1362311,19.1458322 41.0180664,19.3642578 L41.0180664,23.5 L39.7128906,23.5 L39.7128906,17.6884766 L40.9428711,17.6884766 Z M45.6049805,20.5512695 C45.6049805,20.1108376 45.6577957,19.7080096 45.7634277,19.3427734 C45.8690598,18.9775372 46.0212392,18.6642266 46.2199707,18.402832 C46.4187022,18.1414375 46.6595038,17.9391283 46.9423828,17.7958984 C47.2252618,17.6526686 47.5439435,17.5810547 47.8984375,17.5810547 C48.2207047,17.5810547 48.5044747,17.6365554 48.7497559,17.7475586 C48.995037,17.8585618 49.2089835,18.0179026 49.3916016,18.2255859 L49.3916016,15.25 L50.6967773,15.25 L50.6967773,23.5 L49.5151367,23.5 L49.4506836,22.8984375 C49.2644847,23.1240246 49.0433769,23.2985834 48.7873535,23.4221191 C48.5313301,23.5456549 48.231447,23.6074219 47.8876953,23.6074219 C47.5367821,23.6074219 47.2207859,23.5331225 46.9396973,23.3845215 C46.6586086,23.2359205 46.4195973,23.0309258 46.2226562,22.7695312 C46.0257152,22.5081367 45.8735357,22.1975116 45.7661133,21.8376465 C45.6586909,21.4777814 45.6049805,21.0865907 45.6049805,20.6640625 L45.6049805,20.5512695 Z M46.9101562,20.6640625 C46.9101562,20.9218763 46.9343259,21.1644683 46.982666,21.3918457 C47.0310061,21.6192231 47.107991,21.8188468 47.213623,21.9907227 C47.3192551,22.1625985 47.4544263,22.2977697 47.6191406,22.3962402 C47.783855,22.4947108 47.9843738,22.5439453 48.2207031,22.5439453 C48.5143244,22.5439453 48.755126,22.4785977 48.9431152,22.3479004 C49.1311045,22.2172031 49.2805984,22.0444347 49.3916016,21.8295898 L49.3916016,19.3481445 C49.2805984,19.1332997 49.1302093,18.9632168 48.9404297,18.8378906 C48.7506501,18.7125645 48.5143243,18.6499023 48.2314453,18.6499023 C47.995116,18.6499023 47.793702,18.7000321 47.6271973,18.800293 C47.4606925,18.9005539 47.3246262,19.0366202 47.2189941,19.2084961 C47.1133621,19.380372 47.035482,19.581786 46.9853516,19.8127441 C46.9352211,20.0437023 46.9101562,20.289875 46.9101562,20.5512695 L46.9101562,20.6640625 Z M55.1010742,18.8808594 C55.0151363,18.8665364 54.9283045,18.8557943 54.8405762,18.8486328 C54.7528479,18.8414713 54.6624354,18.8378906 54.5693359,18.8378906 C54.2542302,18.8378906 53.9982106,18.8987624 53.8012695,19.0205078 C53.6043284,19.1422532 53.45752,19.3105458 53.3608398,19.5253906 L53.3608398,23.5 L52.0556641,23.5 L52.0556641,17.6884766 L53.3017578,17.6884766 L53.3339844,18.3383789 C53.480795,18.1020496 53.6625152,17.9167487 53.8791504,17.7824707 C54.0957856,17.6481927 54.35091,17.5810547 54.6445312,17.5810547 C54.7197269,17.5810547 54.8047684,17.5891112 54.8996582,17.6052246 C54.994548,17.621338 55.0634763,17.6383463 55.1064453,17.65625 L55.1010742,18.8808594 Z M55.487793,20.5405273 C55.487793,20.1179992 55.5495599,19.7268084 55.6730957,19.3669434 C55.7966315,19.0070783 55.9738758,18.6946628 56.204834,18.4296875 C56.4357922,18.1647122 56.7177718,17.957032 57.0507812,17.8066406 C57.3837907,17.6562492 57.7615539,17.5810547 58.184082,17.5810547 C58.6101909,17.5810547 58.9915348,17.6562492 59.328125,17.8066406 C59.6647152,17.957032 59.9484852,18.1647122 60.1794434,18.4296875 C60.4104015,18.6946628 60.5867507,19.0070783 60.7084961,19.3669434 C60.8302415,19.7268084 60.8911133,20.1179992 60.8911133,20.5405273 L60.8911133,20.6533203 C60.8911133,21.0758485 60.8302415,21.4679344 60.7084961,21.8295898 C60.5867507,22.1912453 60.4104015,22.5036608 60.1794434,22.7668457 C59.9484852,23.0300306 59.6656104,23.2359205 59.3308105,23.3845215 C58.9960107,23.5331225 58.6173524,23.6074219 58.1948242,23.6074219 C57.7687153,23.6074219 57.3882666,23.5331225 57.0534668,23.3845215 C56.7186669,23.2359205 56.4357922,23.0300306 56.204834,22.7668457 C55.9738758,22.5036608 55.7966315,22.1912453 55.6730957,21.8295898 C55.5495599,21.4679344 55.487793,21.0758485 55.487793,20.6533203 L55.487793,20.5405273 Z M56.7929688,20.6533203 C56.7929688,20.9147148 56.819824,21.1617827 56.8735352,21.3945312 C56.9272464,21.6272798 57.0113927,21.8304842 57.1259766,22.0041504 C57.2405605,22.1778166 57.3864737,22.3147781 57.5637207,22.4150391 C57.7409677,22.5153 57.9513334,22.5654297 58.1948242,22.5654297 C58.4347343,22.5654297 58.6433097,22.5153 58.8205566,22.4150391 C58.9978036,22.3147781 59.1428217,22.1778166 59.2556152,22.0041504 C59.3684088,21.8304842 59.4525551,21.6272798 59.5080566,21.3945312 C59.5635582,21.1617827 59.5913086,20.9147148 59.5913086,20.6533203 L59.5913086,20.5405273 C59.5913086,20.2827136 59.5635582,20.0383312 59.5080566,19.807373 C59.4525551,19.5764149 59.3675136,19.3741057 59.2529297,19.2004395 C59.1383458,19.0267732 58.9924325,18.8880214 58.8151855,18.7841797 C58.6379386,18.680338 58.4275728,18.628418 58.184082,18.628418 C57.9405912,18.628418 57.7320158,18.680338 57.5583496,18.7841797 C57.3846834,18.8880214 57.2405605,19.0267732 57.1259766,19.2004395 C57.0113927,19.3741057 56.9272464,19.5764149 56.8735352,19.807373 C56.819824,20.0383312 56.7929688,20.2827136 56.7929688,20.5405273 L56.7929688,20.6533203 Z M63.3833008,23.5 L62.078125,23.5 L62.078125,17.6884766 L63.3833008,17.6884766 L63.3833008,23.5 Z M61.9975586,16.1791992 C61.9975586,15.9786774 62.0611159,15.8121751 62.1882324,15.6796875 C62.3153489,15.5471999 62.4970691,15.480957 62.7333984,15.480957 C62.9697277,15.480957 63.1523431,15.5471999 63.28125,15.6796875 C63.4101569,15.8121751 63.4746094,15.9786774 63.4746094,16.1791992 C63.4746094,16.3761403 63.4101569,16.539957 63.28125,16.6706543 C63.1523431,16.8013516 62.9697277,16.8666992 62.7333984,16.8666992 C62.4970691,16.8666992 62.3153489,16.8013516 62.1882324,16.6706543 C62.0611159,16.539957 61.9975586,16.3761403 61.9975586,16.1791992 Z M64.5595703,20.5512695 C64.5595703,20.1108376 64.6123855,19.7080096 64.7180176,19.3427734 C64.8236496,18.9775372 64.9758291,18.6642266 65.1745605,18.402832 C65.373292,18.1414375 65.6140936,17.9391283 65.8969727,17.7958984 C66.1798517,17.6526686 66.4985334,17.5810547 66.8530273,17.5810547 C67.1752946,17.5810547 67.4590645,17.6365554 67.7043457,17.7475586 C67.9496269,17.8585618 68.1635733,18.0179026 68.3461914,18.2255859 L68.3461914,15.25 L69.6513672,15.25 L69.6513672,23.5 L68.4697266,23.5 L68.4052734,22.8984375 C68.2190746,23.1240246 67.9979668,23.2985834 67.7419434,23.4221191 C67.4859199,23.5456549 67.1860369,23.6074219 66.8422852,23.6074219 C66.4913719,23.6074219 66.1753758,23.5331225 65.8942871,23.3845215 C65.6131985,23.2359205 65.3741872,23.0309258 65.1772461,22.7695312 C64.980305,22.5081367 64.8281255,22.1975116 64.7207031,21.8376465 C64.6132807,21.4777814 64.5595703,21.0865907 64.5595703,20.6640625 L64.5595703,20.5512695 Z M65.8647461,20.6640625 C65.8647461,20.9218763 65.8889158,21.1644683 65.9372559,21.3918457 C65.9855959,21.6192231 66.0625809,21.8188468 66.1682129,21.9907227 C66.2738449,22.1625985 66.4090161,22.2977697 66.5737305,22.3962402 C66.7384448,22.4947108 66.9389637,22.5439453 67.175293,22.5439453 C67.4689142,22.5439453 67.7097159,22.4785977 67.8977051,22.3479004 C68.0856943,22.2172031 68.2351882,22.0444347 68.3461914,21.8295898 L68.3461914,19.3481445 C68.2351882,19.1332997 68.0847991,18.9632168 67.8950195,18.8378906 C67.7052399,18.7125645 67.4689142,18.6499023 67.1860352,18.6499023 C66.9497058,18.6499023 66.7482918,18.7000321 66.5817871,18.800293 C66.4152824,18.9005539 66.279216,19.0366202 66.173584,19.2084961 C66.0679519,19.380372 65.9900719,19.581786 65.9399414,19.8127441 C65.8898109,20.0437023 65.8647461,20.289875 65.8647461,20.5512695 L65.8647461,20.6640625 Z M77.1640625,23.5 C77.1315103,23.4088537 77.1062826,23.2973639 77.0883789,23.1655273 C77.0704752,23.0336907 77.0582683,22.8994147 77.0517578,22.7626953 C76.9638667,22.8766282 76.8597011,22.984049 76.7392578,23.0849609 C76.6188145,23.1858729 76.4837247,23.2737626 76.3339844,23.3486328 C76.184244,23.423503 76.0198577,23.4837237 75.8408203,23.5292969 C75.661783,23.57487 75.4681,23.5976562 75.2597656,23.5976562 C75.0026029,23.5976562 74.769044,23.5602217 74.559082,23.4853516 C74.34912,23.4104814 74.1700854,23.305502 74.0219727,23.1704102 C73.8738599,23.0353183 73.759115,22.8766285 73.6777344,22.6943359 C73.5963538,22.5120434 73.5556641,22.3134776 73.5556641,22.0986328 C73.5556641,21.8414701 73.6110021,21.6095388 73.7216797,21.402832 C73.8323573,21.1961253 73.9918609,21.0203458 74.2001953,20.8754883 C74.4085297,20.7306308 74.6616196,20.6199548 74.9594727,20.543457 C75.2573257,20.4669593 75.591795,20.4287109 75.9628906,20.4287109 L77.046875,20.4287109 L77.046875,19.828125 C77.046875,19.4505189 76.9305025,19.1534842 76.6977539,18.9370117 C76.4650053,18.7205393 76.1256533,18.6123047 75.6796875,18.6123047 C75.4746083,18.6123047 75.2858082,18.6399737 75.1132812,18.6953125 C74.9407543,18.7506513 74.7918301,18.8271479 74.6665039,18.9248047 C74.5411778,19.0224614 74.4435225,19.1355788 74.3735352,19.2641602 C74.3035478,19.3927415 74.2685547,19.5302727 74.2685547,19.6767578 L73.6826172,19.671875 C73.6826172,19.4733063 73.7314448,19.2812509 73.8291016,19.0957031 C73.9267583,18.9101553 74.0642895,18.7449552 74.2416992,18.6000977 C74.419109,18.4552402 74.632323,18.3388676 74.8813477,18.2509766 C75.1303723,18.1630855 75.4062485,18.1191406 75.7089844,18.1191406 C75.9889337,18.1191406 76.2469064,18.1549476 76.4829102,18.2265625 C76.7189139,18.2981774 76.9215486,18.4055982 77.0908203,18.5488281 C77.260092,18.692058 77.3919266,18.8710927 77.4863281,19.0859375 C77.5807296,19.3007823 77.6279297,19.5514309 77.6279297,19.8378906 L77.6279297,22.3964844 C77.6279297,22.4876307 77.6311849,22.5820308 77.6376953,22.6796875 C77.6442058,22.7773442 77.6547851,22.8717443 77.6694336,22.9628906 C77.6840821,23.0540369 77.7011718,23.1411129 77.7207031,23.2241211 C77.7402345,23.3071293 77.7630207,23.379557 77.7890625,23.4414062 L77.7890625,23.5 L77.1640625,23.5 Z M75.328125,23.0800781 C75.5397146,23.0800781 75.7358389,23.0532229 75.9165039,22.9995117 C76.0971689,22.9458005 76.2607415,22.8717453 76.4072266,22.7773438 C76.5537117,22.6829422 76.6806635,22.5730801 76.7880859,22.4477539 C76.8955083,22.3224278 76.9817705,22.1865242 77.046875,22.0400391 L77.046875,20.8779297 L76.0458984,20.8779297 C75.7464178,20.8779297 75.4786796,20.9047849 75.2426758,20.9584961 C75.006672,21.0122073 74.8072925,21.0895177 74.6445312,21.1904297 C74.48177,21.2913417 74.3572595,21.4142245 74.2709961,21.559082 C74.1847326,21.7039395 74.1416016,21.8675121 74.1416016,22.0498047 C74.1416016,22.1930346 74.1692706,22.3273106 74.2246094,22.4526367 C74.2799482,22.5779629 74.3588862,22.6870113 74.4614258,22.7797852 C74.5639654,22.8725591 74.6884758,22.9458005 74.8349609,22.9995117 C74.981446,23.0532229 75.1458324,23.0800781 75.328125,23.0800781 Z M83.4335938,20.9121094 C83.4335938,21.3092468 83.3888351,21.6721989 83.2993164,22.0009766 C83.2097977,22.3297542 83.0787769,22.6121407 82.90625,22.8481445 C82.7337231,23.0841483 82.5229505,23.2680657 82.2739258,23.3999023 C82.0249011,23.5317389 81.740887,23.5976562 81.421875,23.5976562 C81.0442689,23.5976562 80.7179376,23.5301114 80.4428711,23.3950195 C80.1678046,23.2599277 79.9407561,23.0735689 79.7617188,22.8359375 L79.7617188,25.53125 L79.1806641,25.53125 L79.1806641,18.2167969 L79.7226562,18.2167969 L79.7519531,18.9638672 C79.9309905,18.700194 80.1572252,18.4934903 80.4306641,18.34375 C80.7041029,18.1940097 81.0296205,18.1191406 81.4072266,18.1191406 C81.7294938,18.1191406 82.0167631,18.1826166 82.269043,18.3095703 C82.5213229,18.4365241 82.7337231,18.6171863 82.90625,18.8515625 C83.0787769,19.0859387 83.2097977,19.3683252 83.2993164,19.6987305 C83.3888351,20.0291358 83.4335938,20.399412 83.4335938,20.8095703 L83.4335938,20.9121094 Z M82.8476562,20.8095703 C82.8476562,20.5035792 82.8159183,20.2171237 82.7524414,19.9501953 C82.6889645,19.6832669 82.5929368,19.4521494 82.4643555,19.2568359 C82.3357741,19.0615225 82.1722015,18.9077154 81.9736328,18.7954102 C81.7750641,18.6831049 81.542319,18.6269531 81.2753906,18.6269531 C81.063801,18.6269531 80.8766284,18.6546221 80.7138672,18.7099609 C80.551106,18.7652998 80.408692,18.839355 80.2866211,18.9321289 C80.1645502,19.0249028 80.0603845,19.1323236 79.9741211,19.2543945 C79.8878576,19.3764655 79.8170576,19.5042311 79.7617188,19.6376953 L79.7617188,22.171875 C79.823568,22.3053392 79.9008784,22.4290359 79.9936523,22.5429688 C80.0864262,22.6569016 80.1954746,22.7553707 80.3208008,22.8383789 C80.4461269,22.9213871 80.5885409,22.9864906 80.7480469,23.0336914 C80.9075529,23.0808922 81.0865875,23.1044922 81.2851562,23.1044922 C81.5520847,23.1044922 81.7832021,23.0483404 81.9785156,22.9360352 C82.1738291,22.8237299 82.3357741,22.6691091 82.4643555,22.472168 C82.5929368,22.2752269 82.6889645,22.0432956 82.7524414,21.7763672 C82.8159183,21.5094388 82.8476562,21.2213557 82.8476562,20.9121094 L82.8476562,20.8095703 Z M85.9824219,20.8388672 L85.3134766,21.4833984 L85.3134766,23.5 L84.7275391,23.5 L84.7275391,16 L85.3134766,16 L85.3134766,20.7998047 L85.8652344,20.2041016 L87.8867188,18.2167969 L88.6240234,18.2167969 L86.3828125,20.4433594 L88.8193359,23.5 L88.1210938,23.5 L85.9824219,20.8388672 Z" id="Android-apk" fill="#FFFFFF"></path>
                    <path d="M33.5776367,11 L33.5776367,6.0234375 L34.9824219,6.0234375 C35.3105485,6.0234375 35.6090481,6.07812445 35.8779297,6.1875 C36.1468112,6.29687555 36.3775218,6.45296123 36.5700684,6.65576172 C36.7626149,6.85856221 36.9118647,7.1046535 37.0178223,7.39404297 C37.1237798,7.68343244 37.1767578,8.00813622 37.1767578,8.36816406 L37.1767578,8.66210938 C37.1767578,9.02213722 37.1237798,9.346841 37.0178223,9.63623047 C36.9118647,9.92561994 36.7614756,10.1711416 36.5666504,10.3728027 C36.3718252,10.5744639 36.1354181,10.7294103 35.8574219,10.8376465 C35.5794257,10.9458827 35.2683936,11 34.9243164,11 L33.5776367,11 Z M34.2338867,6.56347656 L34.2338867,10.4633789 L34.9243164,10.4633789 C35.1886406,10.4633789 35.4210602,10.4206547 35.621582,10.3352051 C35.8221039,10.2497554 35.9895827,10.1284188 36.1240234,9.97119141 C36.2584642,9.81396406 36.3592933,9.62483834 36.4265137,9.40380859 C36.4937341,9.18277884 36.5273438,8.93554824 36.5273438,8.66210938 L36.5273438,8.35791016 C36.5273438,8.073078 36.4931644,7.81958119 36.4248047,7.59741211 C36.356445,7.37524303 36.2561856,7.18725663 36.1240234,7.03344727 C35.9918613,6.8796379 35.8300791,6.76285847 35.6386719,6.68310547 C35.4472647,6.60335247 35.2285169,6.56347656 34.9824219,6.56347656 L34.2338867,6.56347656 Z M37.9013672,9.11669922 C37.9013672,8.84781767 37.9406734,8.5988781 38.0192871,8.36987305 C38.0979008,8.140868 38.2095533,7.94205813 38.354248,7.7734375 C38.4989428,7.60481687 38.6749664,7.47265673 38.8823242,7.37695312 C39.089682,7.28124952 39.3221016,7.23339844 39.5795898,7.23339844 C39.8416354,7.23339844 40.0769033,7.28124952 40.2854004,7.37695312 C40.4938975,7.47265673 40.6710605,7.60481687 40.8168945,7.7734375 C40.9627286,7.94205813 41.0743811,8.140868 41.1518555,8.36987305 C41.2293298,8.5988781 41.2680664,8.84781767 41.2680664,9.11669922 L41.2680664,9.19189453 C41.2680664,9.46077608 41.2293298,9.70971565 41.1518555,9.9387207 C41.0743811,10.1677258 40.9627286,10.365966 40.8168945,10.5334473 C40.6710605,10.7009286 40.4944672,10.8319494 40.2871094,10.9265137 C40.0797516,11.0210779 39.8461927,11.0683594 39.5864258,11.0683594 C39.3266589,11.0683594 39.0931,11.0210779 38.8857422,10.9265137 C38.6783844,10.8319494 38.5017911,10.7009286 38.355957,10.5334473 C38.210123,10.365966 38.0979008,10.1677258 38.0192871,9.9387207 C37.9406734,9.70971565 37.9013672,9.46077608 37.9013672,9.19189453 L37.9013672,9.11669922 Z M38.5371094,9.19189453 C38.5371094,9.37646577 38.5587563,9.55078043 38.6020508,9.71484375 C38.6453453,9.87890707 38.7108557,10.02303 38.798584,10.1472168 C38.8863123,10.2714036 38.9956862,10.3699541 39.126709,10.4428711 C39.2577318,10.5157881 39.4109692,10.5522461 39.5864258,10.5522461 C39.7596037,10.5522461 39.9122715,10.5157881 40.0444336,10.4428711 C40.1765957,10.3699541 40.2859696,10.2714036 40.3725586,10.1472168 C40.4591476,10.02303 40.524658,9.87890707 40.5690918,9.71484375 C40.6135256,9.55078043 40.6357422,9.37646577 40.6357422,9.19189453 L40.6357422,9.11669922 C40.6357422,8.93440664 40.6135256,8.76066163 40.5690918,8.59545898 C40.524658,8.43025634 40.4585779,8.28556377 40.3708496,8.16137695 C40.2831213,8.03719013 40.1731777,7.93807003 40.0410156,7.86401367 C39.9088535,7.78995731 39.7550465,7.75292969 39.5795898,7.75292969 C39.4064119,7.75292969 39.2548835,7.78995731 39.125,7.86401367 C38.9951165,7.93807003 38.8863123,8.03719013 38.798584,8.16137695 C38.7108557,8.28556377 38.6453453,8.43025634 38.6020508,8.59545898 C38.5587563,8.76066163 38.5371094,8.93440664 38.5371094,9.11669922 L38.5371094,9.19189453 Z M45.3354492,10.128418 L46.0463867,7.30175781 L46.6787109,7.30175781 L45.6020508,11 L45.0893555,11 L44.1904297,8.19726562 L43.3154297,11 L42.8027344,11 L41.7294922,7.30175781 L42.3583984,7.30175781 L43.0864258,10.0703125 L43.9477539,7.30175781 L44.4570312,7.30175781 L45.3354492,10.128418 Z M47.9194336,7.30175781 L47.9399414,7.76660156 C48.0721035,7.60025958 48.2316071,7.46980842 48.418457,7.37524414 C48.6053069,7.28067987 48.8149402,7.23339844 49.0473633,7.23339844 C49.2273772,7.23339844 49.3902987,7.25789364 49.5361328,7.30688477 C49.6819669,7.3558759 49.8061518,7.43448839 49.9086914,7.54272461 C50.011231,7.65096083 50.0904131,7.78995683 50.1462402,7.9597168 C50.2020673,8.12947676 50.2299805,8.33512249 50.2299805,8.57666016 L50.2299805,11 L49.5976562,11 L49.5976562,8.56982422 C49.5976562,8.42626881 49.5817059,8.30379282 49.5498047,8.20239258 C49.5179035,8.10099233 49.4706221,8.01839225 49.407959,7.95458984 C49.3452959,7.89078744 49.2678227,7.84407567 49.1755371,7.81445312 C49.0832515,7.78483058 48.9767259,7.77001953 48.855957,7.77001953 C48.6508779,7.77001953 48.4708667,7.82470648 48.315918,7.93408203 C48.1609693,8.04345758 48.0402023,8.18701083 47.9536133,8.36474609 L47.9536133,11 L47.3212891,11 L47.3212891,7.30175781 L47.9194336,7.30175781 Z M51.8706055,11 L51.2382812,11 L51.2382812,5.75 L51.8706055,5.75 L51.8706055,11 Z M52.7148438,9.11669922 C52.7148438,8.84781767 52.75415,8.5988781 52.8327637,8.36987305 C52.9113773,8.140868 53.0230299,7.94205813 53.1677246,7.7734375 C53.3124193,7.60481687 53.488443,7.47265673 53.6958008,7.37695312 C53.9031586,7.28124952 54.1355781,7.23339844 54.3930664,7.23339844 C54.655112,7.23339844 54.8903798,7.28124952 55.098877,7.37695312 C55.3073741,7.47265673 55.484537,7.60481687 55.6303711,7.7734375 C55.7762052,7.94205813 55.8878577,8.140868 55.965332,8.36987305 C56.0428064,8.5988781 56.081543,8.84781767 56.081543,9.11669922 L56.081543,9.19189453 C56.081543,9.46077608 56.0428064,9.70971565 55.965332,9.9387207 C55.8878577,10.1677258 55.7762052,10.365966 55.6303711,10.5334473 C55.484537,10.7009286 55.3079437,10.8319494 55.1005859,10.9265137 C54.8932281,11.0210779 54.6596693,11.0683594 54.3999023,11.0683594 C54.1401354,11.0683594 53.9065766,11.0210779 53.6992188,10.9265137 C53.4918609,10.8319494 53.3152677,10.7009286 53.1694336,10.5334473 C53.0235995,10.365966 52.9113773,10.1677258 52.8327637,9.9387207 C52.75415,9.70971565 52.7148438,9.46077608 52.7148438,9.19189453 L52.7148438,9.11669922 Z M53.3505859,9.19189453 C53.3505859,9.37646577 53.3722329,9.55078043 53.4155273,9.71484375 C53.4588218,9.87890707 53.5243322,10.02303 53.6120605,10.1472168 C53.6997889,10.2714036 53.8091628,10.3699541 53.9401855,10.4428711 C54.0712083,10.5157881 54.2244457,10.5522461 54.3999023,10.5522461 C54.5730803,10.5522461 54.725748,10.5157881 54.8579102,10.4428711 C54.9900723,10.3699541 55.0994462,10.2714036 55.1860352,10.1472168 C55.2726241,10.02303 55.3381345,9.87890707 55.3825684,9.71484375 C55.4270022,9.55078043 55.4492188,9.37646577 55.4492188,9.19189453 L55.4492188,9.11669922 C55.4492188,8.93440664 55.4270022,8.76066163 55.3825684,8.59545898 C55.3381345,8.43025634 55.2720545,8.28556377 55.1843262,8.16137695 C55.0965979,8.03719013 54.9866543,7.93807003 54.8544922,7.86401367 C54.7223301,7.78995731 54.568523,7.75292969 54.3930664,7.75292969 C54.2198885,7.75292969 54.06836,7.78995731 53.9384766,7.86401367 C53.8085931,7.93807003 53.6997889,8.03719013 53.6120605,8.16137695 C53.5243322,8.28556377 53.4588218,8.43025634 53.4155273,8.59545898 C53.3722329,8.76066163 53.3505859,8.93440664 53.3505859,9.11669922 L53.3505859,9.19189453 Z M59.1577148,11 C59.1349283,10.9544269 59.1166993,10.8968916 59.1030273,10.8273926 C59.0893554,10.7578935 59.0779623,10.6855473 59.0688477,10.6103516 C59.0096026,10.6718753 58.9429528,10.7305499 58.8688965,10.786377 C58.7948401,10.8422041 58.713949,10.8911945 58.6262207,10.9333496 C58.5384924,10.9755048 58.4433599,11.0085448 58.3408203,11.0324707 C58.2382807,11.0563966 58.1300461,11.0683594 58.0161133,11.0683594 C57.8269847,11.0683594 57.6555183,11.0398766 57.501709,10.9829102 C57.3478996,10.9259437 57.2168788,10.8484705 57.1086426,10.7504883 C57.0004064,10.652506 56.916667,10.5368659 56.8574219,10.4035645 C56.7981768,10.270263 56.7685547,10.1272794 56.7685547,9.97460938 C56.7685547,9.7763662 56.8072913,9.60148188 56.8847656,9.44995117 C56.96224,9.29842047 57.0733228,9.17138723 57.2180176,9.06884766 C57.3627123,8.96630808 57.5375966,8.8888349 57.7426758,8.83642578 C57.9477549,8.78401667 58.1767565,8.7578125 58.4296875,8.7578125 L59.0585938,8.7578125 L59.0585938,8.46728516 C59.0585938,8.24625541 58.9925137,8.07023177 58.8603516,7.93920898 C58.7281894,7.80818619 58.5333672,7.74267578 58.2758789,7.74267578 C58.1573887,7.74267578 58.0491541,7.75862614 57.9511719,7.79052734 C57.8531896,7.82242854 57.7694502,7.86515273 57.6999512,7.91870117 C57.6304521,7.97224962 57.5763348,8.03434209 57.5375977,8.10498047 C57.4988605,8.17561884 57.4794922,8.24967409 57.4794922,8.32714844 L56.84375,8.32714844 C56.84375,8.19498632 56.878499,8.06396549 56.947998,7.93408203 C57.0174971,7.80419857 57.1160475,7.68741914 57.2436523,7.58374023 C57.3712571,7.48006133 57.5256339,7.39575228 57.7067871,7.33081055 C57.8879404,7.26586882 58.0901682,7.23339844 58.3134766,7.23339844 C58.5139984,7.23339844 58.6991365,7.25903295 58.8688965,7.31030273 C59.0386564,7.36157252 59.1839187,7.43904571 59.3046875,7.54272461 C59.4254563,7.64640351 59.5200192,7.77571537 59.5883789,7.93066406 C59.6567386,8.08561275 59.690918,8.26676329 59.690918,8.47412109 L59.690918,10.1933594 C59.690918,10.3186855 59.7017414,10.450276 59.7233887,10.5881348 C59.7450359,10.7259935 59.7775063,10.8450516 59.8208008,10.9453125 L59.8208008,11 L59.1577148,11 Z M58.1083984,10.5180664 C58.2223313,10.5180664 58.3294266,10.502116 58.4296875,10.4702148 C58.5299484,10.4383136 58.6210933,10.3967288 58.703125,10.345459 C58.7851567,10.2941892 58.8563636,10.2355147 58.916748,10.1694336 C58.9771325,10.1033525 59.0244139,10.0349938 59.0585938,9.96435547 L59.0585938,9.20556641 L58.5322266,9.20556641 C58.1699201,9.20556641 57.8907887,9.26196233 57.6948242,9.37475586 C57.4988597,9.48754939 57.4008789,9.65787646 57.4008789,9.88574219 C57.4008789,9.97460982 57.41569,10.0577796 57.4453125,10.1352539 C57.474935,10.2127283 57.5199378,10.279378 57.5803223,10.3352051 C57.6407067,10.3910322 57.7147619,10.4354653 57.8024902,10.4685059 C57.8902185,10.5015464 57.9921869,10.5180664 58.1083984,10.5180664 Z M60.5283203,9.12011719 C60.5283203,8.83756369 60.5630693,8.58064894 60.6325684,8.34936523 C60.7020674,8.11808153 60.8006179,7.91984132 60.9282227,7.75463867 C61.0558275,7.58943602 61.2090649,7.46126348 61.3879395,7.37011719 C61.566814,7.2789709 61.7667632,7.23339844 61.987793,7.23339844 C62.21338,7.23339844 62.4104809,7.27156537 62.5791016,7.34790039 C62.7477222,7.42423541 62.8935541,7.53417897 63.0166016,7.67773438 L63.0166016,5.75 L63.6489258,5.75 L63.6489258,11 L63.0678711,11 L63.0371094,10.6035156 C62.9140619,10.753907 62.7659514,10.8689775 62.5927734,10.9487305 C62.4195955,11.0284835 62.2156587,11.0683594 61.980957,11.0683594 C61.7644846,11.0683594 61.566814,11.0216476 61.3879395,10.9282227 C61.2090649,10.8347977 61.0558275,10.7043465 60.9282227,10.5368652 C60.8006179,10.3693839 60.7020674,10.1711437 60.6325684,9.94213867 C60.5630693,9.71313362 60.5283203,9.46305474 60.5283203,9.19189453 L60.5283203,9.12011719 Z M61.1606445,9.19189453 C61.1606445,9.37646577 61.1794432,9.55021077 61.217041,9.71313477 C61.2546389,9.87605876 61.3133134,10.017903 61.3930664,10.1386719 C61.4728194,10.2594407 61.5742181,10.3551429 61.6972656,10.4257812 C61.8203131,10.4964196 61.9672843,10.5317383 62.1381836,10.5317383 C62.2498378,10.5317383 62.3500972,10.5186362 62.4389648,10.4924316 C62.5278325,10.4662271 62.6081539,10.4291995 62.6799316,10.3813477 C62.7517093,10.3334959 62.8155108,10.2765303 62.8713379,10.2104492 C62.927165,10.1443682 62.9755857,10.0714522 63.0166016,9.99169922 L63.0166016,8.29296875 C62.9755857,8.21777306 62.9277346,8.14827506 62.8730469,8.08447266 C62.8183591,8.02067025 62.7551273,7.96541365 62.6833496,7.91870117 C62.6115719,7.8719887 62.5312504,7.83553073 62.4423828,7.80932617 C62.3535152,7.78312161 62.2543951,7.77001953 62.1450195,7.77001953 C61.9718416,7.77001953 61.8231614,7.80590784 61.6989746,7.87768555 C61.5747878,7.94946325 61.4728194,8.04687438 61.3930664,8.16992188 C61.3133134,8.29296937 61.2546389,8.43595296 61.217041,8.59887695 C61.1794432,8.76180094 61.1606445,8.93554595 61.1606445,9.12011719 L61.1606445,9.19189453 Z M67.2207031,6.40625 L67.2207031,7.30175781 L67.9111328,7.30175781 L67.9111328,7.79052734 L67.2207031,7.79052734 L67.2207031,10.0839844 C67.2207031,10.179688 67.2320962,10.2565915 67.2548828,10.3146973 C67.2776694,10.372803 67.3078611,10.4178058 67.345459,10.449707 C67.3830568,10.4816082 67.4263507,10.5026855 67.4753418,10.5129395 C67.5243329,10.5231934 67.5750323,10.5283203 67.6274414,10.5283203 C67.6798505,10.5283203 67.7351071,10.5231934 67.7932129,10.5129395 C67.8513186,10.5026855 67.8963215,10.4941407 67.9282227,10.4873047 L67.9282227,11 C67.8780922,11.0136719 67.8131514,11.028483 67.7333984,11.0444336 C67.6536454,11.0603842 67.556804,11.0683594 67.4428711,11.0683594 C67.3266596,11.0683594 67.216716,11.0518394 67.1130371,11.0187988 C67.0093582,10.9857583 66.9187829,10.9305017 66.8413086,10.8530273 C66.7638342,10.775553 66.7023114,10.6735846 66.6567383,10.5471191 C66.6111651,10.4206537 66.5883789,10.2651376 66.5883789,10.0805664 L66.5883789,7.79052734 L65.9150391,7.79052734 L65.9150391,7.30175781 L66.5883789,7.30175781 L66.5883789,6.40625 L67.2207031,6.40625 Z M69.2817383,7.74951172 C69.4139004,7.58772706 69.5722647,7.46126348 69.7568359,7.37011719 C69.9414072,7.2789709 70.1476226,7.23339844 70.3754883,7.23339844 C70.5555022,7.23339844 70.7184237,7.25789364 70.8642578,7.30688477 C71.0100919,7.3558759 71.1342768,7.43448839 71.2368164,7.54272461 C71.339356,7.65096083 71.4185381,7.78995683 71.4743652,7.9597168 C71.5301923,8.12947676 71.5581055,8.33512249 71.5581055,8.57666016 L71.5581055,11 L70.9257812,11 L70.9257812,8.56982422 C70.9257812,8.42626881 70.9098309,8.30379282 70.8779297,8.20239258 C70.8460285,8.10099233 70.7987471,8.01839225 70.736084,7.95458984 C70.6734209,7.89078744 70.5959477,7.84407567 70.5036621,7.81445312 C70.4113765,7.78483058 70.3048509,7.77001953 70.184082,7.77001953 C69.9790029,7.77001953 69.7989917,7.82470648 69.644043,7.93408203 C69.4890943,8.04345758 69.3683273,8.18701083 69.2817383,8.36474609 L69.2817383,11 L68.6494141,11 L68.6494141,5.75 L69.2817383,5.75 L69.2817383,7.74951172 Z M74.0395508,11.0683594 C73.7820625,11.0683594 73.5490733,11.0239262 73.3405762,10.9350586 C73.132079,10.846191 72.9537768,10.7225757 72.8056641,10.564209 C72.6575513,10.4058423 72.5436202,10.2172863 72.4638672,9.99853516 C72.3841142,9.77978406 72.3442383,9.54052864 72.3442383,9.28076172 L72.3442383,9.13720703 C72.3442383,8.83642428 72.3892411,8.56754676 72.479248,8.33056641 C72.569255,8.09358605 72.6894524,7.89420654 72.8398438,7.73242188 C72.9902351,7.57063721 73.1622712,7.44702191 73.355957,7.36157227 C73.5496429,7.27612262 73.751301,7.23339844 73.9609375,7.23339844 C74.2252617,7.23339844 74.453124,7.27954055 74.6445312,7.37182617 C74.8359385,7.46411179 74.9937331,7.59114502 75.1179199,7.75292969 C75.2421067,7.91471435 75.3338213,8.10611869 75.3930664,8.32714844 C75.4523115,8.54817819 75.4819336,8.78857292 75.4819336,9.04833984 L75.4819336,9.33203125 L72.9765625,9.33203125 C72.9811198,9.50293054 73.0090329,9.66243416 73.0603027,9.81054688 C73.1115725,9.95865959 73.1844885,10.0874018 73.2790527,10.1967773 C73.373617,10.3061529 73.4875482,10.3927406 73.6208496,10.456543 C73.7541511,10.5203454 73.9051098,10.5522461 74.0737305,10.5522461 C74.2970389,10.5522461 74.4861646,10.5066736 74.6411133,10.4155273 C74.796062,10.3243811 74.93164,10.203614 75.0478516,10.0532227 L75.434082,10.3540039 C75.3748369,10.4451502 75.3030603,10.5334468 75.21875,10.6188965 C75.1344397,10.7043461 75.0358892,10.78068 74.9230957,10.8479004 C74.8103022,10.9151208 74.6809903,10.9686684 74.5351562,11.0085449 C74.3893222,11.0484214 74.224122,11.0683594 74.0395508,11.0683594 Z M73.9609375,7.75292969 C73.8333327,7.75292969 73.7159836,7.77628557 73.6088867,7.82299805 C73.5017898,7.86971052 73.4060877,7.93749956 73.3217773,8.02636719 C73.237467,8.11523482 73.1673994,8.22574804 73.1115723,8.35791016 C73.0557452,8.49007228 73.0175782,8.64160071 72.9970703,8.8125 L74.8496094,8.8125 L74.8496094,8.76464844 C74.8427734,8.64160095 74.8228355,8.51969461 74.7897949,8.39892578 C74.7567544,8.27815695 74.7054854,8.16992235 74.6359863,8.07421875 C74.5664873,7.97851515 74.4770513,7.90104196 74.3676758,7.84179688 C74.2583002,7.78255179 74.1227222,7.75292969 73.9609375,7.75292969 Z" id="Download-the" fill="#FFFFFF"></path>
                </g>
            </g>
        </g>
    </g>
</svg>