<?xml version="1.0" encoding="UTF-8" standalone="no"?>
<svg width="100px" height="30px" viewBox="0 0 100 30" version="1.1" xmlns="http://www.w3.org/2000/svg" xmlns:xlink="http://www.w3.org/1999/xlink" xmlns:sketch="http://www.bohemiancoding.com/sketch/ns">
    <!-- Generator: Sketch 3.4 (15575) - http://www.bohemiancoding.com/sketch -->
    <title>button_ios</title>
    <desc>Created with Sketch.</desc>
    <defs></defs>
    <g id="Page-3" stroke="none" stroke-width="1" fill="none" fill-rule="evenodd" sketch:type="MSPage">
        <g id="Safari-(with-URL)" sketch:type="MSArtboardGroup" transform="translate(-265.000000, -584.000000)">
            <g id="Bar" sketch:type="MSLayerGroup" transform="translate(0.000000, 574.000000)">
                <g id="button_ios" transform="translate(265.000000, 10.000000)" sketch:type="MSShapeGroup">
                    <g id="Group">
                        <path d="M96.4422222,30 L3.50296296,30 C1.57185185,30 0,28.404 0,26.45025 L0,3.5445 C0,1.59 1.57185185,0 3.50296296,0 L96.4422222,0 C98.3725926,0 100,1.59 100,3.5445 L100,26.45025 C100,28.404 98.3725926,30 96.4422222,30 L96.4422222,30 L96.4422222,30 Z" id="Shape" fill="#000000"></path>
                        <g transform="translate(9.629630, 4.500000)" id="Shape" fill="#FFFFFF">
                            <path d="M12.6874074,10.338 C12.6659259,7.92075 14.6422222,6.74475 14.7325926,6.69 C13.6133333,5.03775 11.8785185,4.812 11.2688889,4.794 C9.81185185,4.63875 8.39851852,5.67675 7.6562963,5.67675 C6.89925926,5.67675 5.7562963,4.809 4.52444444,4.8345 C2.93925926,4.85925 1.4562963,5.7885 0.642962963,7.2315 C-1.03555556,10.17375 0.216296296,14.4975 1.82444444,16.87575 C2.62888889,18.0405 3.56888889,19.341 4.79925926,19.29525 C6.00296296,19.245 6.45259259,18.51825 7.90518519,18.51825 C9.34444444,18.51825 9.76666667,19.29525 11.0214815,19.266 C12.3133333,19.245 13.1266667,18.096 13.902963,16.92075 C14.8325926,15.58575 15.2059259,14.271 15.2207407,14.2035 C15.1903704,14.193 12.7118519,13.23525 12.6874074,10.338 L12.6874074,10.338 Z"></path>
                            <path d="M10.317037,3.2295 C10.9644444,2.40975 11.4074074,1.2945 11.2844444,0.16275 C10.3474074,0.20475 9.17555556,0.819 8.50074074,1.62075 C7.9037037,2.32725 7.37037037,3.48525 7.50814815,4.57425 C8.56074074,4.65375 9.64148148,4.0365 10.317037,3.2295 L10.317037,3.2295 Z"></path>
                        </g>
                        <g transform="translate(31.111111, 13.500000)" id="Shape" fill="#FFFFFF">
                            <path d="M8.62592593,10.128 L6.9437037,10.128 L6.02222222,7.19625 L2.81925926,7.19625 L1.94148148,10.128 L0.303703704,10.128 L3.47703704,0.147 L5.43703704,0.147 L8.62592593,10.128 L8.62592593,10.128 Z M5.74444444,5.96625 L4.91111111,3.36 C4.82296296,3.09375 4.65777778,2.46675 4.41407407,1.47975 L4.38444444,1.47975 C4.28740741,1.90425 4.13111111,2.53125 3.9162963,3.36 L3.09777778,5.96625 L5.74444444,5.96625 L5.74444444,5.96625 Z"></path>
                            <path d="M16.7866667,6.441 C16.7866667,7.665 16.46,8.6325 15.8066667,9.34275 C15.2214815,9.975 14.4948148,10.29075 13.6274074,10.29075 C12.6911111,10.29075 12.0185185,9.95025 11.6088889,9.26925 L11.5792593,9.26925 L11.5792593,13.0605 L10,13.0605 L10,5.30025 C10,4.53075 9.98,3.741 9.94148148,2.931 L11.3303704,2.931 L11.4185185,4.07175 L11.4481481,4.07175 C11.9748148,3.21225 12.7740741,2.78325 13.8466667,2.78325 C14.6851852,2.78325 15.3851852,3.1185 15.9451852,3.78975 C16.5066667,4.46175 16.7866667,5.34525 16.7866667,6.441 L16.7866667,6.441 Z M15.1777778,6.4995 C15.1777778,5.799 15.0222222,5.2215 14.7096296,4.767 C14.3681481,4.293 13.9096296,4.056 13.3348148,4.056 C12.9451852,4.056 12.5911111,4.188 12.2748148,4.44825 C11.9577778,4.71075 11.7503704,5.0535 11.6533333,5.478 C11.6044444,5.676 11.58,5.838 11.58,5.9655 L11.58,7.1655 C11.58,7.689 11.7385185,8.13075 12.0555556,8.4915 C12.3725926,8.85225 12.7844444,9.03225 13.2911111,9.03225 C13.8859259,9.03225 14.3488889,8.79975 14.68,8.33625 C15.0118519,7.872 15.1777778,7.26 15.1777778,6.4995 L15.1777778,6.4995 Z"></path>
                            <path d="M24.9622222,6.441 C24.9622222,7.665 24.6355556,8.6325 23.9814815,9.34275 C23.397037,9.975 22.6703704,10.29075 21.802963,10.29075 C20.8666667,10.29075 20.1940741,9.95025 19.7851852,9.26925 L19.7555556,9.26925 L19.7555556,13.0605 L18.1762963,13.0605 L18.1762963,5.30025 C18.1762963,4.53075 18.1562963,3.741 18.1177778,2.931 L19.5066667,2.931 L19.5948148,4.07175 L19.6244444,4.07175 C20.1503704,3.21225 20.9496296,2.78325 22.022963,2.78325 C22.8607407,2.78325 23.5607407,3.1185 24.1222222,3.78975 C24.6814815,4.46175 24.9622222,5.34525 24.9622222,6.441 L24.9622222,6.441 Z M23.3533333,6.4995 C23.3533333,5.799 23.197037,5.2215 22.8844444,4.767 C22.542963,4.293 22.0859259,4.056 21.5103704,4.056 C21.12,4.056 20.7666667,4.188 20.4496296,4.44825 C20.1325926,4.71075 19.9259259,5.0535 19.8288889,5.478 C19.7807407,5.676 19.7555556,5.838 19.7555556,5.9655 L19.7555556,7.1655 C19.7555556,7.689 19.9140741,8.13075 20.2296296,8.4915 C20.5466667,8.8515 20.9585185,9.03225 21.4666667,9.03225 C22.0614815,9.03225 22.5244444,8.79975 22.8555556,8.33625 C23.1874074,7.872 23.3533333,7.26 23.3533333,6.4995 L23.3533333,6.4995 Z"></path>
                            <path d="M34.102963,7.329 C34.102963,8.178 33.8118519,8.86875 33.2274074,9.402 C32.5851852,9.98475 31.6911111,10.27575 30.5422222,10.27575 C29.4814815,10.27575 28.6311111,10.06875 27.9874074,9.654 L28.3533333,8.32125 C29.0466667,8.74575 29.8074074,8.95875 30.6362963,8.95875 C31.2311111,8.95875 31.6940741,8.82225 32.0266667,8.55075 C32.3577778,8.27925 32.522963,7.91475 32.522963,7.46025 C32.522963,7.05525 32.3866667,6.714 32.1133333,6.43725 C31.8414815,6.1605 31.3874074,5.90325 30.7533333,5.6655 C29.0274074,5.01375 28.1651852,4.059 28.1651852,2.8035 C28.1651852,1.983 28.4674074,1.31025 29.0725926,0.78675 C29.6755556,0.2625 30.48,0.00075 31.4859259,0.00075 C32.382963,0.00075 33.1281481,0.159 33.722963,0.47475 L33.3281481,1.77825 C32.7725926,1.47225 32.1444444,1.31925 31.4414815,1.31925 C30.8859259,1.31925 30.4518519,1.458 30.1407407,1.734 C29.8777778,1.98075 29.7459259,2.2815 29.7459259,2.63775 C29.7459259,3.03225 29.8962963,3.3585 30.1985185,3.615 C30.4614815,3.852 30.9392593,4.1085 31.6325926,4.38525 C32.4807407,4.731 33.1037037,5.13525 33.5044444,5.59875 C33.9037037,6.06075 34.102963,6.639 34.102963,7.329 L34.102963,7.329 Z"></path>
                            <path d="M39.3244444,4.131 L37.5837037,4.131 L37.5837037,7.62525 C37.5837037,8.514 37.8903704,8.958 38.5051852,8.958 C38.7874074,8.958 39.0214815,8.93325 39.2066667,8.88375 L39.2503704,10.098 C38.9392593,10.21575 38.5296296,10.275 38.0222222,10.275 C37.3985185,10.275 36.9111111,10.08225 36.5592593,9.6975 C36.2088889,9.312 36.0325926,8.6655 36.0325926,7.75725 L36.0325926,4.1295 L34.9955556,4.1295 L34.9955556,2.9295 L36.0325926,2.9295 L36.0325926,1.61175 L37.5837037,1.13775 L37.5837037,2.9295 L39.3244444,2.9295 L39.3244444,4.131 L39.3244444,4.131 Z"></path>
                            <path d="M47.1785185,6.47025 C47.1785185,7.5765 46.8659259,8.48475 46.2422222,9.195 C45.5881481,9.92625 44.72,10.29075 43.6377778,10.29075 C42.5948148,10.29075 41.7644444,9.9405 41.1451852,9.24 C40.5259259,8.5395 40.2162963,7.65525 40.2162963,6.5895 C40.2162963,5.47425 40.5348148,4.56075 41.1740741,3.8505 C41.8118519,3.1395 42.6725926,2.784 43.7548148,2.784 C44.7977778,2.784 45.637037,3.13425 46.2703704,3.8355 C46.8762963,4.51575 47.1785185,5.394 47.1785185,6.47025 L47.1785185,6.47025 Z M45.54,6.522 C45.54,5.85825 45.4,5.289 45.1162963,4.81425 C44.7851852,4.23975 44.3118519,3.95325 43.6985185,3.95325 C43.0637037,3.95325 42.5814815,4.2405 42.2503704,4.81425 C41.9666667,5.28975 41.8266667,5.868 41.8266667,6.552 C41.8266667,7.21575 41.9666667,7.785 42.2503704,8.259 C42.5918519,8.8335 43.0688889,9.12 43.6844444,9.12 C44.2874074,9.12 44.7607407,8.8275 45.1022222,8.244 C45.3933333,7.76025 45.54,7.185 45.54,6.522 L45.54,6.522 Z"></path>
                            <path d="M52.3118519,4.33725 C52.1555556,4.308 51.9888889,4.293 51.8140741,4.293 C51.2585185,4.293 50.8288889,4.50525 50.5266667,4.9305 C50.2637037,5.3055 50.1318519,5.7795 50.1318519,6.35175 L50.1318519,10.128 L48.5533333,10.128 L48.5681481,5.1975 C48.5681481,4.368 48.5481481,3.61275 48.5088889,2.93175 L49.8844444,2.93175 L49.9422222,4.30875 L49.9859259,4.30875 C50.1525926,3.8355 50.4155556,3.4545 50.7755556,3.16875 C51.1274074,2.9115 51.5074074,2.78325 51.917037,2.78325 C52.062963,2.78325 52.1948148,2.79375 52.3118519,2.8125 L52.3118519,4.33725 L52.3118519,4.33725 Z"></path>
                            <path d="M59.3748148,6.189 C59.3748148,6.4755 59.3562963,6.717 59.317037,6.91425 L54.5792593,6.91425 C54.5977778,7.62525 54.8266667,8.169 55.2666667,8.544 C55.6659259,8.87925 56.1822222,9.04725 56.8162963,9.04725 C57.5177778,9.04725 58.1577778,8.934 58.7333333,8.70675 L58.9807407,9.81675 C58.3081481,10.11375 57.5140741,10.2615 56.5977778,10.2615 C55.4955556,10.2615 54.6303704,9.933 54.0007407,9.27675 C53.3725926,8.6205 53.0577778,7.73925 53.0577778,6.63375 C53.0577778,5.5485 53.3503704,4.64475 53.9362963,3.924 C54.5496296,3.1545 55.3785185,2.76975 56.4214815,2.76975 C57.4459259,2.76975 58.2214815,3.1545 58.7481481,3.924 C59.1651852,4.53525 59.3748148,5.29125 59.3748148,6.189 L59.3748148,6.189 Z M57.8688889,5.77425 C57.8792593,5.30025 57.7762963,4.89075 57.5622222,4.545 C57.2888889,4.10025 56.8688889,3.87825 56.3037037,3.87825 C55.7874074,3.87825 55.3674074,4.095 55.0466667,4.53 C54.7837037,4.87575 54.6274074,5.2905 54.5792593,5.7735 L57.8688889,5.7735 L57.8688889,5.77425 Z"></path>
                        </g>
                        <g transform="translate(32.592593, 5.250000)" id="Shape" fill="#FFFFFF">
                            <path d="M3.74074074,2.25675 C3.74074074,3.1395 3.47925926,3.804 2.95703704,4.25025 C2.47333333,4.662 1.78592593,4.86825 0.895555556,4.86825 C0.454074074,4.86825 0.0762962963,4.84875 -0.24,4.80975 L-0.24,-0.0135 C0.172592593,-0.081 0.617037037,-0.1155 1.09703704,-0.1155 C1.94518519,-0.1155 2.58444444,0.07125 3.01555556,0.44475 C3.49851852,0.867 3.74074074,1.47075 3.74074074,2.25675 L3.74074074,2.25675 Z M2.92222222,2.2785 C2.92222222,1.70625 2.77259259,1.2675 2.47333333,0.9615 C2.17407407,0.65625 1.73703704,0.50325 1.16148148,0.50325 C0.917037037,0.50325 0.708888889,0.51975 0.536296296,0.55425 L0.536296296,4.221 C0.631851852,4.236 0.806666667,4.24275 1.06074074,4.24275 C1.65481481,4.24275 2.11333333,4.0755 2.4362963,3.741 C2.75925926,3.4065 2.92222222,2.919 2.92222222,2.2785 L2.92222222,2.2785 Z"></path>
                            <path d="M8.08074074,3.02775 C8.08074074,3.5715 7.92740741,4.017 7.62074074,4.3665 C7.29925926,4.72575 6.87333333,4.905 6.34148148,4.905 C5.82888889,4.905 5.42074074,4.73325 5.1162963,4.38825 C4.81259259,4.044 4.66074074,3.60975 4.66074074,3.08625 C4.66074074,2.53875 4.81703704,2.0895 5.13111111,1.74075 C5.44518519,1.392 5.86740741,1.21725 6.39925926,1.21725 C6.91185185,1.21725 7.3237037,1.389 7.63555556,1.73325 C7.93185185,2.06775 8.08074074,2.49975 8.08074074,3.02775 L8.08074074,3.02775 Z M7.27555556,3.05325 C7.27555556,2.727 7.20592593,2.44725 7.06740741,2.214 C6.90444444,1.932 6.67259259,1.791 6.37111111,1.791 C6.05925926,1.791 5.82222222,1.932 5.65925926,2.214 C5.52,2.44725 5.45111111,2.7315 5.45111111,3.0675 C5.45111111,3.39375 5.52074074,3.6735 5.65925926,3.90675 C5.82740741,4.18875 6.06148148,4.32975 6.3637037,4.32975 C6.66,4.32975 6.89259259,4.1865 7.06,3.89925 C7.2037037,3.6615 7.27555556,3.3795 7.27555556,3.05325 L7.27555556,3.05325 Z"></path>
                            <path d="M13.9,1.28925 L12.8074074,4.82475 L12.0962963,4.82475 L11.6437037,3.2895 C11.5288889,2.90625 11.4355556,2.52525 11.362963,2.14725 L11.3488889,2.14725 C11.2814815,2.53575 11.1881481,2.916 11.0681481,3.2895 L10.5874074,4.82475 L9.86814815,4.82475 L8.84074074,1.28925 L9.63851852,1.28925 L10.0333333,2.97 C10.1288889,3.3675 10.2074074,3.74625 10.2703704,4.10475 L10.2844444,4.10475 C10.3422222,3.80925 10.4377778,3.43275 10.5725926,2.9775 L11.0681481,1.29 L11.7007407,1.29 L12.1755556,2.9415 C12.2903704,3.34425 12.3837037,3.732 12.4555556,4.1055 L12.477037,4.1055 C12.5296296,3.74175 12.6088889,3.354 12.7140741,2.9415 L13.1377778,1.29 L13.9,1.29 L13.9,1.28925 Z"></path>
                            <path d="M17.9244444,4.82475 L17.1481481,4.82475 L17.1481481,2.79975 C17.1481481,2.17575 16.9140741,1.86375 16.4444444,1.86375 C16.2140741,1.86375 16.0281481,1.94925 15.8837037,2.121 C15.7407407,2.29275 15.6681481,2.49525 15.6681481,2.727 L15.6681481,4.824 L14.8918519,4.824 L14.8918519,2.2995 C14.8918519,1.989 14.8822222,1.65225 14.8637037,1.28775 L15.5459259,1.28775 L15.5822222,1.8405 L15.6037037,1.8405 C15.6940741,1.66875 15.8288889,1.527 16.0059259,1.41375 C16.2162963,1.28175 16.4518519,1.215 16.7096296,1.215 C17.0355556,1.215 17.3066667,1.3215 17.5222222,1.53525 C17.7903704,1.797 17.9244444,2.18775 17.9244444,2.70675 L17.9244444,4.82475 L17.9244444,4.82475 Z"></path>
                            <path d="M20.0651852,4.82475 L19.2896296,4.82475 L19.2896296,-0.333 L20.0651852,-0.333 L20.0651852,4.82475 L20.0651852,4.82475 Z"></path>
                            <path d="M24.6355556,3.02775 C24.6355556,3.5715 24.4822222,4.017 24.1755556,4.3665 C23.8540741,4.72575 23.4274074,4.905 22.8962963,4.905 C22.382963,4.905 21.9748148,4.73325 21.6711111,4.38825 C21.3674074,4.044 21.2155556,3.60975 21.2155556,3.08625 C21.2155556,2.53875 21.3718519,2.0895 21.6859259,1.74075 C22,1.392 22.4222222,1.21725 22.9533333,1.21725 C23.4666667,1.21725 23.8777778,1.389 24.1903704,1.73325 C24.4866667,2.06775 24.6355556,2.49975 24.6355556,3.02775 L24.6355556,3.02775 Z M23.8296296,3.05325 C23.8296296,2.727 23.76,2.44725 23.6214815,2.214 C23.4592593,1.932 23.2266667,1.791 22.9259259,1.791 C22.6133333,1.791 22.3762963,1.932 22.2140741,2.214 C22.0748148,2.44725 22.0059259,2.7315 22.0059259,3.0675 C22.0059259,3.39375 22.0755556,3.6735 22.2140741,3.90675 C22.3822222,4.18875 22.6162963,4.32975 22.9185185,4.32975 C23.2148148,4.32975 23.4466667,4.1865 23.6140741,3.89925 C23.7585185,3.6615 23.8296296,3.3795 23.8296296,3.05325 L23.8296296,3.05325 Z"></path>
                            <path d="M28.3925926,4.82475 L27.6955556,4.82475 L27.6377778,4.4175 L27.6162963,4.4175 C27.3777778,4.74225 27.0377778,4.905 26.5962963,4.905 C26.2666667,4.905 26,4.79775 25.7992593,4.58475 C25.617037,4.39125 25.5259259,4.1505 25.5259259,3.86475 C25.5259259,3.43275 25.7037037,3.1035 26.0614815,2.8755 C26.4185185,2.6475 26.9207407,2.53575 27.5674074,2.541 L27.5674074,2.475 C27.5674074,2.00925 27.3259259,1.77675 26.8422222,1.77675 C26.4977778,1.77675 26.1940741,1.8645 25.9318519,2.0385 L25.7740741,1.5225 C26.0985185,1.31925 26.4992593,1.21725 26.9718519,1.21725 C27.8844444,1.21725 28.3422222,1.70475 28.3422222,2.67975 L28.3422222,3.98175 C28.3422222,4.335 28.3592593,4.61625 28.3925926,4.82475 L28.3925926,4.82475 Z M27.5866667,3.60975 L27.5866667,3.0645 C26.7303704,3.0495 26.3022222,3.28725 26.3022222,3.777 C26.3022222,3.9615 26.3511111,4.0995 26.4511111,4.19175 C26.5511111,4.284 26.6785185,4.32975 26.8303704,4.32975 C27.0007407,4.32975 27.16,4.275 27.3051852,4.16625 C27.4511111,4.05675 27.5407407,3.918 27.5740741,3.74775 C27.5822222,3.7095 27.5866667,3.663 27.5866667,3.60975 L27.5866667,3.60975 Z"></path>
                            <path d="M32.8037037,4.82475 L32.1148148,4.82475 L32.0785185,4.257 L32.057037,4.257 C31.837037,4.689 31.4622222,4.905 30.9355556,4.905 C30.5148148,4.905 30.1644444,4.73775 29.8866667,4.40325 C29.6088889,4.06875 29.4703704,3.6345 29.4703704,3.10125 C29.4703704,2.529 29.6207407,2.0655 29.922963,1.7115 C30.2155556,1.3815 30.5740741,1.2165 31.0007407,1.2165 C31.4696296,1.2165 31.7977778,1.37625 31.9844444,1.6965 L31.9992593,1.6965 L31.9992593,-0.333 L32.7762963,-0.333 L32.7762963,3.87225 C32.7762963,4.2165 32.7851852,4.53375 32.8037037,4.82475 L32.8037037,4.82475 Z M31.9992593,3.33375 L31.9992593,2.74425 C31.9992593,2.64225 31.9918519,2.55975 31.9777778,2.49675 C31.9340741,2.30775 31.84,2.14875 31.697037,2.0205 C31.5525926,1.89225 31.3785185,1.82775 31.1777778,1.82775 C30.8881481,1.82775 30.6614815,1.944 30.4948148,2.17725 C30.3296296,2.4105 30.2459259,2.70825 30.2459259,3.072 C30.2459259,3.4215 30.3251852,3.705 30.4844444,3.92325 C30.6525926,4.15575 30.8792593,4.272 31.162963,4.272 C31.4177778,4.272 31.6214815,4.17525 31.7762963,3.981 C31.9259259,3.80175 31.9992593,3.58575 31.9992593,3.33375 L31.9992593,3.33375 Z"></path>
                            <path d="M39.442963,3.02775 C39.442963,3.5715 39.2896296,4.017 38.982963,4.3665 C38.6614815,4.72575 38.2362963,4.905 37.7037037,4.905 C37.1918519,4.905 36.7837037,4.73325 36.4785185,4.38825 C36.1748148,4.044 36.022963,3.60975 36.022963,3.08625 C36.022963,2.53875 36.1792593,2.0895 36.4933333,1.74075 C36.8074074,1.392 37.2296296,1.21725 37.7622222,1.21725 C38.2740741,1.21725 38.6866667,1.389 38.9977778,1.73325 C39.2940741,2.06775 39.442963,2.49975 39.442963,3.02775 L39.442963,3.02775 Z M38.6385185,3.05325 C38.6385185,2.727 38.5688889,2.44725 38.4303704,2.214 C38.2666667,1.932 38.0355556,1.791 37.7333333,1.791 C37.4222222,1.791 37.1851852,1.932 37.0214815,2.214 C36.8822222,2.44725 36.8133333,2.7315 36.8133333,3.0675 C36.8133333,3.39375 36.882963,3.6735 37.0214815,3.90675 C37.1896296,4.18875 37.4237037,4.32975 37.7259259,4.32975 C38.0222222,4.32975 38.2555556,4.1865 38.422963,3.89925 C38.5659259,3.6615 38.6385185,3.3795 38.6385185,3.05325 L38.6385185,3.05325 Z"></path>
                            <path d="M43.617037,4.82475 L42.8414815,4.82475 L42.8414815,2.79975 C42.8414815,2.17575 42.6074074,1.86375 42.137037,1.86375 C41.9066667,1.86375 41.7207407,1.94925 41.577037,2.121 C41.4333333,2.29275 41.3614815,2.49525 41.3614815,2.727 L41.3614815,4.824 L40.5844444,4.824 L40.5844444,2.2995 C40.5844444,1.989 40.5755556,1.65225 40.557037,1.28775 L41.2385185,1.28775 L41.2748148,1.8405 L41.2962963,1.8405 C41.3874074,1.66875 41.5222222,1.527 41.6985185,1.41375 C41.9096296,1.28175 42.1444444,1.215 42.402963,1.215 C42.7281481,1.215 42.9992593,1.3215 43.2148148,1.53525 C43.4837037,1.797 43.617037,2.18775 43.617037,2.70675 L43.617037,4.82475 L43.617037,4.82475 Z"></path>
                            <path d="M48.8414815,1.878 L47.9866667,1.878 L47.9866667,3.5955 C47.9866667,4.032 48.1385185,4.25025 48.4392593,4.25025 C48.5785185,4.25025 48.6940741,4.23825 48.7851852,4.2135 L48.8051852,4.80975 C48.6518519,4.86825 48.4503704,4.8975 48.2022222,4.8975 C47.8955556,4.8975 47.657037,4.803 47.4844444,4.614 C47.3111111,4.425 47.2251852,4.107 47.2251852,3.66075 L47.2251852,1.878 L46.7148148,1.878 L46.7148148,1.28925 L47.2251852,1.28925 L47.2251852,0.64125 L47.9859259,0.40875 L47.9859259,1.2885 L48.8407407,1.2885 L48.8407407,1.878 L48.8414815,1.878 Z"></path>
                            <path d="M52.9511111,4.82475 L52.1740741,4.82475 L52.1740741,2.81475 C52.1740741,2.181 51.94,1.86375 51.4711111,1.86375 C51.1111111,1.86375 50.8651852,2.0475 50.7303704,2.415 C50.7074074,2.49225 50.6940741,2.58675 50.6940741,2.69775 L50.6940741,4.824 L49.9185185,4.824 L49.9185185,-0.333 L50.6940741,-0.333 L50.6940741,1.79775 L50.7088889,1.79775 C50.9533333,1.41 51.3037037,1.2165 51.7577778,1.2165 C52.0792593,1.2165 52.3451852,1.323 52.5562963,1.53675 C52.8192593,1.803 52.9511111,2.199 52.9511111,2.7225 L52.9511111,4.82475 L52.9511111,4.82475 Z"></path>
                            <path d="M57.1903704,2.88975 C57.1903704,3.03075 57.18,3.14925 57.1614815,3.246 L54.8333333,3.246 C54.8437037,3.5955 54.9548148,3.86175 55.1703704,4.04625 C55.3674074,4.21125 55.6214815,4.29375 55.9325926,4.29375 C56.277037,4.29375 56.5911111,4.23825 56.8740741,4.1265 L56.9955556,4.6725 C56.6644444,4.818 56.2748148,4.89075 55.8237037,4.89075 C55.282963,4.89075 54.857037,4.7295 54.5488889,4.407 C54.2392593,4.0845 54.0859259,3.65175 54.0859259,3.10875 C54.0859259,2.5755 54.2288889,2.1315 54.517037,1.7775 C54.8177778,1.3995 55.2244444,1.2105 55.7377778,1.2105 C56.24,1.2105 56.6214815,1.3995 56.8792593,1.7775 C57.0874074,2.0775 57.1903704,2.44875 57.1903704,2.88975 L57.1903704,2.88975 Z M56.4496296,2.6865 C56.4555556,2.45325 56.4044444,2.25225 56.2992593,2.08275 C56.1644444,1.8645 55.9592593,1.755 55.6814815,1.755 C55.4281481,1.755 55.2214815,1.8615 55.0637037,2.07525 C54.9348148,2.2455 54.8585185,2.44875 54.8333333,2.6865 L56.4496296,2.6865 L56.4496296,2.6865 Z"></path>
                        </g>
                    </g>
                </g>
            </g>
        </g>
    </g>
</svg>