<?xml version="1.0" encoding="UTF-8" standalone="no"?>
<svg width="200px" height="100px" viewBox="0 0 200 100" version="1.1" xmlns="http://www.w3.org/2000/svg" xmlns:xlink="http://www.w3.org/1999/xlink" xmlns:sketch="http://www.bohemiancoding.com/sketch/ns">
    <!-- Generator: Sketch 3.2.2 (9983) - http://www.bohemiancoding.com/sketch -->
    <title>logo</title>
    <desc>Created with Sketch.</desc>
    <defs>
        <linearGradient x1="52.2007048%" y1="0%" x2="52.2007048%" y2="100%" id="linearGradient-1">
            <stop stop-color="#0088D5" offset="0%"></stop>
            <stop stop-color="#00E3CA" offset="100%"></stop>
        </linearGradient>
    </defs>
    <g id="Website" stroke="none" stroke-width="1" fill="none" fill-rule="evenodd" sketch:type="MSPage">
        <g id="Invatation" sketch:type="MSArtboardGroup" transform="translate(-60.000000, -75.000000)">
            <g id="Logo" sketch:type="MSLayerGroup" transform="translate(79.000000, 100.000000)">
                <path d="M10.9282032,0 L15.8564065,2.75637259 L15.8564065,8.26911778 L10.9282032,11.0254904 L6,8.26911778 L6,2.75637259 L10.9282032,0 Z M45.0717968,0 L50,2.75637259 L50,8.26911778 L45.0717968,11.0254904 L40.1435935,8.26911778 L40.1435935,2.75637259 L45.0717968,0 Z M10.9282032,37.9276869 L15.8564065,40.6840595 L15.8564065,46.1968047 L10.9282032,48.9531773 L6,46.1968047 L6,40.6840595 L10.9282032,37.9276869 Z M45.0717968,37.9276869 L50,40.6840595 L50,46.1968047 L45.0717968,48.9531773 L40.1435935,46.1968047 L40.1435935,40.6840595 L45.0717968,37.9276869 Z M16.6188022,9.48192172 L21.5470054,12.2382943 L21.5470054,17.7510395 L16.6188022,20.5074121 L11.6905989,17.7510395 L11.6905989,12.2382943 L16.6188022,9.48192172 Z M39.3811978,9.48192172 L44.3094011,12.2382943 L44.3094011,17.7510395 L39.3811978,20.5074121 L34.4529946,17.7510395 L34.4529946,12.2382943 L39.3811978,9.48192172 Z M10.9282032,18.9638434 L15.8564065,21.720216 L15.8564065,27.2329612 L10.9282032,29.9893338 L6,27.2329612 L6,21.720216 L10.9282032,18.9638434 Z M22.3094011,18.9638434 L27.2376043,21.720216 L27.2376043,27.2329612 L22.3094011,29.9893338 L17.3811978,27.2329612 L17.3811978,21.720216 L22.3094011,18.9638434 Z M33.6905989,18.9638434 L38.6188022,21.720216 L38.6188022,27.2329612 L33.6905989,29.9893338 L28.7623957,27.2329612 L28.7623957,21.720216 L33.6905989,18.9638434 Z M45.0717968,18.9638434 L50,21.720216 L50,27.2329612 L45.0717968,29.9893338 L40.1435935,27.2329612 L40.1435935,21.720216 L45.0717968,18.9638434 Z M16.6188022,28.4457652 L21.5470054,31.2021378 L21.5470054,36.7148829 L16.6188022,39.4712555 L11.6905989,36.7148829 L11.6905989,31.2021378 L16.6188022,28.4457652 Z M39.3811978,28.4457652 L44.3094011,31.2021378 L44.3094011,36.7148829 L39.3811978,39.4712555 L34.4529946,36.7148829 L34.4529946,31.2021378 L39.3811978,28.4457652 Z" id="logo" fill="url(#linearGradient-1)" sketch:type="MSShapeGroup"></path>
                <path d="M61.456,11.512 L64.048,11.512 L64.048,22.564 L77.944,22.564 L77.944,11.512 L80.536,11.512 L80.536,37 L77.944,37 L77.944,24.94 L64.048,24.94 L64.048,37 L61.456,37 L61.456,11.512 Z M92.848,34.084 L97.996,20.152 L100.876,20.152 L92.452,41.392 C91.9479975,42.6880065 91.3060039,43.7199962 90.526,44.488 C89.7459961,45.2560038 88.6240073,45.64 87.16,45.64 C86.7999982,45.64 86.4340019,45.6280001 86.062,45.604 C85.6899981,45.5799999 85.3240018,45.5080006 84.964,45.388 L85.216,43.084 C85.7200025,43.3480013 86.3199965,43.48 87.016,43.48 C87.8560042,43.48 88.5159976,43.2160026 88.996,42.688 C89.4760024,42.1599974 89.8959982,41.4160048 90.256,40.456 L91.48,37.216 L84.568,20.152 L87.556,20.152 L92.848,34.084 Z M105.376,28.576 C105.376,29.5120047 105.525999,30.3879959 105.826,31.204 C106.126002,32.0200041 106.551997,32.727997 107.104,33.328 C107.656003,33.928003 108.321996,34.4019983 109.102,34.75 C109.882004,35.0980017 110.763995,35.272 111.748,35.272 C112.708005,35.272 113.601996,35.0980017 114.43,34.75 C115.258004,34.4019983 115.971997,33.928003 116.572,33.328 C117.172003,32.727997 117.639998,32.0200041 117.976,31.204 C118.312002,30.3879959 118.48,29.5120047 118.48,28.576 C118.48,27.6399953 118.312002,26.7640041 117.976,25.948 C117.639998,25.1319959 117.172003,24.424003 116.572,23.824 C115.971997,23.223997 115.258004,22.7500017 114.43,22.402 C113.601996,22.0539983 112.708005,21.88 111.748,21.88 C110.763995,21.88 109.882004,22.0539983 109.102,22.402 C108.321996,22.7500017 107.656003,23.223997 107.104,23.824 C106.551997,24.424003 106.126002,25.1319959 105.826,25.948 C105.525999,26.7640041 105.376,27.6399953 105.376,28.576 L105.376,28.576 Z M120.748,37 L118.372,37 L118.372,34.192 L118.3,34.192 C117.915998,34.7680029 117.460003,35.259998 116.932,35.668 C116.403997,36.076002 115.852003,36.4119987 115.276,36.676 C114.699997,36.9400013 114.106003,37.1319994 113.494,37.252 C112.881997,37.3720006 112.300003,37.432 111.748,37.432 C110.427993,37.432 109.222005,37.2100022 108.13,36.766 C107.037995,36.3219978 106.096004,35.704004 105.304,34.912 C104.511996,34.119996 103.894002,33.1840054 103.45,32.104 C103.005998,31.0239946 102.784,29.8480064 102.784,28.576 C102.784,27.3039936 103.005998,26.1280054 103.45,25.048 C103.894002,23.9679946 104.511996,23.032004 105.304,22.24 C106.096004,21.447996 107.037995,20.8300022 108.13,20.386 C109.222005,19.9419978 110.427993,19.72 111.748,19.72 C112.300003,19.72 112.881997,19.7799994 113.494,19.9 C114.106003,20.0200006 114.699997,20.2119987 115.276,20.476 C115.852003,20.7400013 116.403997,21.075998 116.932,21.484 C117.460003,21.892002 117.915998,22.3839971 118.3,22.96 L118.372,22.96 L118.372,9.784 L120.748,9.784 L120.748,37 Z M126.184,25.408 C126.184,24.6639963 126.166,23.9080038 126.13,23.14 C126.094,22.3719962 126.064,21.3760061 126.04,20.152 L128.38,20.152 L128.38,23.284 L128.452,23.284 C128.620001,22.8279977 128.859998,22.3900021 129.172,21.97 C129.484002,21.5499979 129.861998,21.1720017 130.306,20.836 C130.750002,20.4999983 131.265997,20.230001 131.854,20.026 C132.442003,19.821999 133.107996,19.72 133.852,19.72 C134.524003,19.72 135.111997,19.7919993 135.616,19.936 L135.148,22.276 C134.835998,22.1559994 134.380003,22.096 133.78,22.096 C132.867995,22.096 132.088003,22.2699983 131.44,22.618 C130.791997,22.9660017 130.252002,23.4099973 129.82,23.95 C129.387998,24.4900027 129.070001,25.0719969 128.866,25.696 C128.661999,26.3200031 128.56,26.9199971 128.56,27.496 L128.56,37 L126.184,37 L126.184,25.408 Z M151.672,28.576 C151.672,27.6399953 151.522002,26.7640041 151.222,25.948 C150.921999,25.1319959 150.496003,24.424003 149.944,23.824 C149.391997,23.223997 148.726004,22.7500017 147.946,22.402 C147.165996,22.0539983 146.284005,21.88 145.3,21.88 C144.315995,21.88 143.434004,22.0539983 142.654,22.402 C141.873996,22.7500017 141.214003,23.223997 140.674,23.824 C140.133997,24.424003 139.714002,25.1319959 139.414,25.948 C139.113999,26.7640041 138.964,27.6399953 138.964,28.576 C138.964,29.5120047 139.113999,30.3879959 139.414,31.204 C139.714002,32.0200041 140.133997,32.727997 140.674,33.328 C141.214003,33.928003 141.873996,34.4019983 142.654,34.75 C143.434004,35.0980017 144.315995,35.272 145.3,35.272 C146.284005,35.272 147.165996,35.0980017 147.946,34.75 C148.726004,34.4019983 149.391997,33.928003 149.944,33.328 C150.496003,32.727997 150.921999,32.0200041 151.222,31.204 C151.522002,30.3879959 151.672,29.5120047 151.672,28.576 L151.672,28.576 Z M154.264,28.576 C154.264,29.8480064 154.042002,31.0239946 153.598,32.104 C153.153998,33.1840054 152.536004,34.119996 151.744,34.912 C150.951996,35.704004 150.010005,36.3219978 148.918,36.766 C147.825995,37.2100022 146.620007,37.432 145.3,37.432 C144.003994,37.432 142.810005,37.2100022 141.718,36.766 C140.625995,36.3219978 139.684004,35.704004 138.892,34.912 C138.099996,34.119996 137.482002,33.1840054 137.038,32.104 C136.593998,31.0239946 136.372,29.8480064 136.372,28.576 C136.372,27.3039936 136.593998,26.1280054 137.038,25.048 C137.482002,23.9679946 138.099996,23.032004 138.892,22.24 C139.684004,21.447996 140.625995,20.8300022 141.718,20.386 C142.810005,19.9419978 144.003994,19.72 145.3,19.72 C146.620007,19.72 147.825995,19.9419978 148.918,20.386 C150.010005,20.8300022 150.951996,21.447996 151.744,22.24 C152.536004,23.032004 153.153998,23.9679946 153.598,25.048 C154.042002,26.1280054 154.264,27.3039936 154.264,28.576 L154.264,28.576 Z" id="Hydro" fill="#FFFFFF" sketch:type="MSShapeGroup"></path>
            </g>
        </g>
    </g>
</svg>